<svg width="250" height="117" viewBox="0 0 250 117" fill="none" xmlns="http://www.w3.org/2000/svg">
<path d="M263.523 2.10481C265.908 2.53841 269.946 7.76872 269.539 9.90962C268.482 15.8174 255.962 29.2861 251.464 33.595C232.846 51.3455 208.212 60.9118 183.172 65.0581C177.562 65.9795 161.817 68.0662 156.451 67.1177C153.714 66.6299 152.467 62.4294 152.901 60.1259C153.307 57.8224 155.394 52.7818 157.671 51.8333L161.356 51.9146C167.399 51.9146 173.416 51.4268 179.405 50.5867C190.407 49.042 201.274 46.2507 211.735 42.4296C221.599 38.8253 230.651 33.2156 238.456 26.1696C242.819 22.213 246.802 17.8499 250.407 13.1887C252.114 10.9936 253.632 8.14812 255.447 6.14272C257.046 4.38122 261.274 1.69831 263.523 2.10481Z" fill="#F2EEE1"/>
<path d="M157.833 52.5379C155.936 53.4864 154.012 58.0663 153.633 60.2343C153.443 61.2912 153.66 62.7817 154.175 64.0012C154.527 64.7871 155.286 66.1421 156.587 66.386C161.654 67.2803 176.884 65.3562 183.063 64.3264C211.274 59.6652 234.12 49.1504 250.976 33.053C256.558 27.7414 267.886 15.0315 268.835 9.77411C268.943 9.15081 268.428 7.63321 266.992 5.81751C265.745 4.19151 264.282 2.99911 263.388 2.83651C261.545 2.51131 257.561 4.92321 256.016 6.60341C254.987 7.74161 254.011 9.20501 253.09 10.6142C252.412 11.6169 251.735 12.6738 251.003 13.5952C247.236 18.4461 243.171 22.8634 238.943 26.6845C230.813 34.0015 221.762 39.5299 211.979 43.08C201.22 47.0095 190.272 49.7466 179.513 51.2642C173.063 52.1585 167.128 52.5921 161.356 52.5921L157.833 52.5379ZM154.906 53.4593C155.638 52.3753 156.478 51.5081 157.4 51.1287L157.535 51.0745L161.383 51.1558C167.074 51.1558 172.955 50.7222 179.323 49.8279C190.001 48.3374 200.814 45.6003 211.491 41.725C221.084 38.2291 230 32.8091 237.968 25.6005C242.141 21.8336 246.125 17.4976 249.838 12.7009C250.515 11.8066 251.193 10.7768 251.843 9.80121C252.819 8.33781 253.794 6.82021 254.932 5.60071C256.477 3.92051 260.949 0.885313 263.632 1.37311C265.556 1.72541 267.561 4.16441 268.13 4.89611C268.699 5.65491 270.569 8.22941 270.244 10.018C269.052 16.6033 255.285 30.9121 251.951 34.1099C234.878 50.397 211.789 61.0473 183.28 65.7627C179.052 66.4673 162.142 68.8521 156.316 67.8223C154.852 67.5513 153.605 66.4131 152.82 64.5974C152.169 63.1069 151.925 61.3454 152.169 59.9904C152.44 58.6083 153.443 55.6273 154.906 53.4593Z" fill="#17202D"/>
<path d="M181.389 75.6288C170.844 78.9868 168.382 83.5844 167.82 85.7798C167.186 88.2696 168.1 90.7794 170.291 92.4521C173.174 94.6714 177.328 94.8035 180.86 92.7756C185.393 90.1641 187.629 87.3517 187.494 84.4011C187.37 81.058 184.402 77.952 181.389 75.6288ZM274.907 73.6791C274.323 76.9139 272.483 79.6917 269.438 81.9705C256.391 91.7043 250.175 83.4083 245.204 76.7486C240.999 71.1277 238.093 67.842 233.425 69.8862C231.693 70.6371 230.686 71.5671 230.356 72.6952C229.63 75.177 232.103 78.9108 234.744 82.8444C238.284 88.1294 242.274 94.1016 240.737 100.03C239.729 103.875 236.601 107.096 231.126 109.902C226.911 112.056 223.957 112.491 221.843 111.265C218.585 109.36 218.341 103.947 218.034 97.6724C217.676 89.866 217.248 81.0122 211.401 76.1731C207.366 72.8349 201.276 71.816 192.743 73.0822C189.203 73.6054 186.162 74.2417 183.553 74.9621C186.528 77.467 189.208 80.6867 189.332 84.2843C189.47 87.9987 186.929 91.3862 181.74 94.3567C177.572 96.7687 172.613 96.5891 169.122 93.9002C166.304 91.7329 165.152 88.5081 165.99 85.2725C167.173 80.748 171.925 76.9524 179.517 74.2848C176.961 72.557 174.739 71.5063 174.695 71.4793L175.491 69.7903C175.758 69.9063 178.666 71.3178 181.754 73.5782C184.915 72.6284 188.502 71.8316 192.463 71.2528C201.535 69.918 208.099 71.071 212.567 74.748C219.04 80.1046 219.511 89.7952 219.869 97.6016C220.132 103.317 220.37 108.267 222.747 109.655C224.224 110.502 226.741 110.028 230.229 108.25C235.196 105.7 238.035 102.871 238.88 99.5664C240.207 94.4529 236.44 88.8473 233.125 83.8829C230.117 79.385 227.521 75.4784 228.482 72.161C228.977 70.4688 230.319 69.1516 232.603 68.1713C238.978 65.3972 242.873 70.5975 246.622 75.6231C251.8 82.5555 256.712 89.0944 268.249 80.4781C271.368 78.1593 273.034 75.2507 273.169 71.8609C273.591 61.4848 260.173 49.5502 260.045 49.4233L261.28 48.0042C261.86 48.5178 275.492 60.6562 275.039 71.9089C275.076 72.537 275.003 73.1091 274.907 73.6791Z" fill="#17202D"/>
<path d="M148.077 45.4106L176.532 45.0041C177.562 48.6626 179.188 52.7005 179.784 56.4132C180.461 60.6679 180.218 65.6272 180.38 69.9632C173.524 72.7545 166.668 75.5458 159.784 78.2829C160.055 73.1881 160.326 68.0933 160.462 62.9714C160.489 61.4809 149.811 47.7954 148.077 45.4106Z" fill="#90908F"/>
<path d="M175.854 45.9526L149.865 46.3049C150.109 46.6301 150.38 46.9824 150.651 47.3347C159.73 59.2858 161.356 61.9958 161.329 63.0256C161.22 67.7681 160.976 72.4835 160.733 76.9279C167.264 74.2992 173.415 71.8331 179.404 69.367C179.377 68.2017 179.377 67.0093 179.35 65.844C179.323 62.7004 179.296 59.4484 178.835 56.5487C178.456 54.1097 177.589 51.4539 176.749 48.9065C176.478 47.958 176.152 46.9282 175.854 45.9526ZM147.237 45.0312C147.237 45.0312 147.264 45.0312 147.237 45.0312C147.399 44.706 147.697 44.5163 148.05 44.5163L176.505 44.1098C176.911 44.1098 177.264 44.3808 177.399 44.7602C177.724 45.9255 178.104 47.1179 178.51 48.3645C179.35 50.9932 180.245 53.7032 180.651 56.2777C181.139 59.3129 181.166 62.6191 181.193 65.844C181.193 67.2803 181.22 68.6353 181.247 69.9632C181.274 70.3426 181.03 70.6949 180.678 70.8575C174.093 73.5675 167.345 76.2775 160.082 79.1772C159.784 79.2856 159.459 79.2585 159.215 79.0688C158.971 78.8791 158.808 78.581 158.836 78.2829C159.107 73.4591 159.378 68.2559 159.513 63.0527C159.107 61.508 151.925 52.023 149.188 48.4458C148.321 47.3076 147.643 46.4133 147.318 45.9526C147.128 45.6816 147.101 45.3293 147.237 45.0312Z" fill="#17202D"/>
<path d="M127.047 90.2611L126.722 81.7788L141.221 77.7138L141.058 74.6244L128.077 78.0119C127.996 74.5702 127.887 71.1014 127.779 67.6597L141.194 64.5161L140.977 61.0202L127.942 64.1367C128.158 61.9145 128.484 59.5839 128.538 57.3617L126.018 53.8929L139.947 47.1179C141.356 48.5 148.809 55.9254 148.754 57.3617C148.646 61.779 148.023 66.4402 147.698 70.8846C147.427 74.6515 147.128 78.3913 146.803 82.1311C146.776 82.4021 146.966 82.8357 146.722 82.9712C140.299 86.9278 134.202 88.1744 127.047 90.2611Z" fill="#90908F"/>
<path d="M139.757 91.1283C140.652 80.5051 141.248 69.909 141.519 59.2316C141.627 55.0582 140.354 51.4539 139.242 47.4431L148.158 43.8117C149.92 45.3835 161.193 55.0853 161.275 55.3021C161.329 55.4647 161.112 64.8142 161.085 65.8169C161.058 67.1448 160.624 80.207 160.516 80.3967C160.462 80.478 154.364 84.5972 153.741 85.0037C151.708 86.3858 149.08 88.6351 146.885 89.5836C144.933 90.4237 141.898 90.6676 139.757 91.1283Z" fill="#90908F"/>
<path d="M162.142 54.9498C162.006 54.6517 162.006 54.5975 152.928 46.7385C151.004 45.0583 149.378 43.6491 148.782 43.1342C148.511 42.9174 148.158 42.8361 147.833 42.9716L138.917 46.603C138.809 46.6301 138.728 46.7114 138.673 46.7656C138.971 46.7385 139.27 46.7385 139.568 46.7385C140.597 46.7385 141.573 46.874 142.522 47.1179L148.023 44.8686C148.809 45.5461 150.191 46.7385 151.763 48.1206C154.852 50.8035 159.378 54.733 160.435 55.7086C160.435 57.2804 160.299 64.0012 160.245 65.8169C160.191 67.47 159.838 77.8222 159.703 79.9089C159.161 80.2883 157.643 81.3452 153.443 84.1365L153.28 84.2449C152.63 84.6785 151.925 85.1934 151.194 85.7354C149.676 86.8465 147.996 88.1202 146.559 88.7164C145.34 89.2313 143.578 89.5294 141.898 89.8004C141.519 89.8546 141.139 89.9088 140.787 89.9901C140.896 88.5538 141.031 87.1175 141.112 85.6812C140.489 85.8438 139.893 85.9251 139.27 85.9793C139.134 87.6866 138.999 89.3668 138.863 91.047C138.836 91.3451 138.944 91.6161 139.161 91.8058C139.378 91.9955 139.676 92.0768 139.947 92.0226C140.597 91.8871 141.356 91.7516 142.169 91.6432C143.958 91.3451 145.828 91.047 147.264 90.4508C148.89 89.7733 150.597 88.4725 152.278 87.253C152.982 86.711 153.66 86.2232 154.283 85.7896L154.446 85.6812C161.221 81.1284 161.221 81.1284 161.356 80.8574C161.654 80.2341 162.034 66.0337 162.034 65.8711C162.305 55.3292 162.223 55.1395 162.142 54.9498Z" fill="#17202D"/>
<path d="M160.841 58.798L179.838 55.5189L179.567 53.9471L161.112 57.1178C161.058 57.6869 160.977 58.256 160.841 58.798Z" fill="#17202D"/>
<path d="M134.473 88.6893L139.351 91.4535L139.92 86.9278L134.473 88.6893Z" fill="#17202D"/>
<path d="M224.177 58.5849L241.259 49.3844C241.259 49.3844 241.752 46.044 241.745 45.8526C241.757 45.7677 239.704 40.8529 239.464 40.2906C238.812 38.6741 238.163 36.1753 237.193 34.782C235.576 32.4048 231.262 28.8385 229.072 26.6481L214.386 33.1257C214.772 39.7767 216.34 44.7524 219.059 50.7577C219.387 51.4969 221.381 56.0918 221.631 56.4044C222.203 57.1265 223.423 57.9235 224.177 58.5849Z" fill="#90908F"/>
<path d="M224.261 57.6881L240.566 48.9047C240.752 47.6588 240.933 46.3862 240.994 45.9619C240.739 45.3197 239.657 42.7072 239.167 41.5293L238.778 40.6084C238.57 40.068 238.346 39.4475 238.118 38.8004C237.667 37.5329 237.187 36.1054 236.585 35.2234C235.523 33.6264 233.142 31.4435 231.027 29.5149C230.263 28.8001 229.536 28.1338 228.908 27.5596L215.164 33.6175C215.62 40.2006 217.317 45.1253 219.718 50.4448C219.806 50.6217 219.958 51.0071 220.189 51.516C220.742 52.7374 222.016 55.6456 222.212 55.9679C222.535 56.3774 223.18 56.8935 223.757 57.3392C223.941 57.4434 224.099 57.5524 224.261 57.6881ZM241.948 49.8374L224.065 59.4867L223.673 59.1451C223.442 58.9391 223.154 58.7162 222.865 58.4933C222.189 57.9555 221.454 57.4007 221.018 56.8192C220.872 56.6253 220.518 55.891 218.834 52.0934C218.609 51.6111 218.456 51.2258 218.368 51.0489C215.828 45.424 214.057 40.2376 213.647 33.1503L213.608 32.634L229.264 25.7318L229.63 26.0783C230.272 26.7325 231.162 27.5345 232.057 28.3631C234.208 30.3402 236.657 32.5934 237.828 34.3358C238.512 35.3681 239.029 36.844 239.536 38.2666C239.759 38.8871 239.951 39.4857 240.155 39.9995L240.543 40.9204C242.503 45.6317 242.503 45.6317 242.489 45.8547C242.499 45.908 242.479 46.1044 241.991 49.4714L241.948 49.8374Z" fill="#17202D"/>
<path d="M240.85 45.9329C240.836 45.8529 238.82 40.9865 238.584 40.451C237.936 38.8611 237.288 36.3623 236.35 34.9908C234.737 32.6402 230.787 29.5586 228.617 27.4749L227.572 27.9407C229.684 30.0075 233.513 33.0285 235.068 35.3621C236.052 36.8355 236.737 39.3827 237.431 41.0743C237.671 41.6366 239.811 46.7284 239.804 46.8399C239.804 47.7488 239.557 48.813 239.451 49.7414C240.723 49.0137 240.846 47.4212 240.85 45.9329Z" fill="#A9A9A9"/>
<path d="M241.762 45.7944C234.579 49.61 228.104 53.0763 221.965 56.4261L221.254 55.0957C227.398 51.7725 233.895 48.2747 241.051 44.4639L241.762 45.7944Z" fill="#17202D"/>
<path d="M237.06 35.7153C230.318 39.2301 223.608 42.7668 217.084 46.2695L216.374 44.939C222.871 41.4412 229.608 37.8997 236.35 34.3848L237.06 35.7153Z" fill="#17202D"/>
<path d="M214.055 36.2988L210.302 27.3415C207.658 29.3108 203.582 30.8249 200.356 31.4127L199.953 30.7148C202.018 29.6499 204.379 28.6964 206.303 27.4643C209.264 25.5749 211.878 23.4457 214.985 21.7502C219.321 19.39 223.935 17.8054 228.275 15.4719L227.028 17.2418L231.254 25.6172C226.936 29.7371 219.608 33.9648 214.055 36.2988Z" fill="#90908F"/>
<path d="M210.297 27.3149L214.05 36.2721C211.721 37.2474 208.554 38.4582 205.992 38.4568C203.132 38.4821 201.615 33.6349 200.346 31.3594C203.577 30.7982 207.653 29.2841 210.297 27.3149Z" fill="#A9A9A9"/>
<path d="M231.275 25.5856L227.05 17.2103C228.392 15.2028 228.828 15.1784 230.861 14.0917C231.349 15.1047 234.155 20.6809 234.156 21.2869C234.147 22.7485 232.291 24.6569 231.275 25.5856Z" fill="#626060"/>
<path d="M228.309 13.2346C229.164 13.2439 230.093 13.3502 230.117 14.3925C230.124 19.267 206.866 30.8599 201.832 30.8958C201.061 30.8986 200.043 30.7535 200.055 29.7597C200.004 24.3423 222.998 13.2658 228.309 13.2346Z" fill="#90908F"/>
<path d="M200.903 28.9716C200.791 29.2674 200.702 29.5316 200.714 29.7498C200.717 29.9146 200.758 29.9897 200.906 30.0454C201.054 30.1011 201.318 30.1907 201.812 30.1832C204.125 30.1751 211.024 27.3752 217.538 23.8192C225.758 19.3463 229.444 15.8374 229.421 14.354C229.426 14.0777 229.337 14.039 229.247 14.0002C228.978 13.884 228.478 13.8648 228.314 13.8673C225.836 13.8779 218.895 16.6027 212.495 20.0278C206.185 23.4916 201.838 26.8455 200.903 28.9716ZM230.539 15.5001C229.14 18.7026 222.388 22.7701 218.176 25.0527C212.263 28.2788 204.734 31.5516 201.815 31.56C201.209 31.5602 200.727 31.4829 200.337 31.3061C199.704 31.0082 199.325 30.4436 199.337 29.7528C199.341 26.1436 207.178 21.3824 211.84 18.8524C218.514 15.2673 225.593 12.5449 228.315 12.5171C228.757 12.5194 229.341 12.5507 229.821 12.7662C230.454 13.0641 230.805 13.6336 230.798 14.3511C230.786 14.7389 230.689 15.1146 230.539 15.5001Z" fill="#17202D"/>
<path d="M234.769 22.0842C234.459 22.8018 233.182 24.4117 228.133 28.4446L228.036 28.5174C221.859 33.4718 212.686 37.7052 205.195 39.0703L204.821 39.1383L199.493 31.8178L200.489 31.0854L205.349 37.8026C212.586 36.4011 221.321 32.3304 227.255 27.5578L227.352 27.4851C232.159 23.634 233.3 22.1865 233.547 21.7283L233.542 21.7017C232.444 20.0563 231.537 18.1005 230.67 16.2199C230.219 15.2554 229.773 14.3175 229.336 13.433L230.446 12.8726C230.914 13.779 231.366 14.7435 231.817 15.708C232.673 17.5353 233.539 19.4159 234.57 20.9911C234.706 21.1316 234.905 21.3157 234.9 21.5921C234.861 21.6818 234.864 21.8466 234.769 22.0842Z" fill="#17202D"/>
<path d="M-12.1923 1.4544C-9.94305 1.0479 -5.71545 3.73081 -4.14365 5.46521C-2.30085 7.47061 -0.783245 10.3161 0.896955 12.5112C4.50126 17.1724 8.48495 21.5355 12.8481 25.4921C20.6529 32.5381 29.7043 38.1478 39.5687 41.7521C50.0293 45.5461 60.8692 48.3645 71.8989 49.9092C77.8881 50.7493 83.9043 51.2371 89.9476 51.2371L93.6332 51.1558C95.9367 52.1043 97.9963 57.1449 98.4028 59.4484C98.8093 61.779 97.5898 65.9524 94.8527 66.4402C89.4869 67.3887 73.7418 65.302 68.132 64.3806C43.0917 60.2343 18.4578 50.6951 -0.159945 32.9175C-4.65855 28.6357 -17.1787 15.1399 -18.2356 9.23211C-18.615 7.11831 -14.6042 1.888 -12.1923 1.4544Z" fill="#F2EEE1"/>
<path d="M89.9746 51.9688C84.2023 51.9688 78.2674 51.5352 71.8176 50.6409C61.0318 49.1233 50.1105 46.3862 39.3518 42.4567C29.5687 38.9066 20.5173 33.3782 12.3873 26.0612C8.15967 22.2401 4.09467 17.8499 0.32777 12.9719C-0.403931 12.0505 -1.08143 10.9936 -1.75893 9.9909C-2.68033 8.5817 -3.65593 7.11831 -4.68573 5.98011C-6.23043 4.29991 -10.2412 1.88801 -12.0569 2.21321C-12.9512 2.37581 -14.4146 3.56821 -15.6612 5.19421C-17.0704 7.03701 -17.6124 8.5275 -17.504 9.1508C-16.5555 14.4082 -5.22773 27.1181 0.35487 32.4297C17.184 48.4729 40.0293 58.9877 68.2675 63.676C74.4463 64.7058 89.6765 66.6299 94.7442 65.7356C96.0721 65.4917 96.8309 64.1367 97.1561 63.3508C97.671 62.1313 97.8878 60.6408 97.6981 59.5839C97.3187 57.4159 95.3946 52.836 93.4976 51.8875L89.9746 51.9688ZM99.1344 59.34C99.3783 60.695 99.1344 62.4565 98.484 63.947C97.6981 65.7627 96.4515 66.928 94.9881 67.1719C89.1616 68.2017 72.2241 65.8169 68.0236 65.1123C39.5144 60.3969 16.3981 49.7466 -0.647829 33.4595C-3.98113 30.2617 -17.7479 15.9529 -18.9403 9.36761C-19.2655 7.57901 -17.3956 5.00451 -16.8265 4.24571C-16.2574 3.51401 -14.252 1.04791 -12.3279 0.722707C-9.64503 0.234907 -5.17353 3.2701 -3.62883 4.9503C-2.51773 6.1698 -1.51503 7.6874 -0.539431 9.1508C0.11097 10.1535 0.788469 11.1562 1.46597 12.0505C5.17867 16.8472 9.16237 21.1832 13.3358 24.9501C21.3032 32.1587 30.2191 37.5787 39.8125 41.0746C50.4899 44.9499 61.3028 47.687 71.9802 49.1775C78.3487 50.0718 84.2294 50.5054 89.9204 50.5054L93.7686 50.4241L93.9041 50.4783C94.8255 50.8577 95.6656 51.7249 96.3973 52.8089C97.8878 54.9769 98.8905 57.9579 99.1344 59.34Z" fill="#17202D"/>
<path d="M116.289 53.5406C115.394 54.191 107.617 59.9904 107.508 60.0446C107.427 60.0717 96.5327 58.6083 95.4216 58.4728C97.3457 54.0013 99.2969 49.5569 101.275 45.0854C106.424 44.977 108.701 45.0312 110.95 44.7331C113.226 44.435 115.476 43.7846 120.652 42.3212L125.205 47.1179L116.289 53.5406Z" fill="#90908F"/>
<path d="M120.191 43.5136C115.557 44.8415 113.335 45.4377 111.058 45.7358C109.216 45.9797 107.4 46.0068 104.148 46.061C103.525 46.061 102.82 46.0881 102.088 46.0881C100.544 49.5569 98.7821 53.5677 97.0206 57.6327C99.2699 57.9308 105.449 58.7438 107.21 58.9606C108.213 58.2289 110.896 56.2506 112.766 54.8414C114.121 53.8387 115.259 52.9986 115.584 52.7547L123.552 47.0095L120.191 43.5136ZM126.072 47.7954C126.045 47.8225 125.991 47.8767 125.936 47.9038L117.048 54.2994C116.749 54.5162 115.611 55.3563 114.256 56.359C108.213 60.8576 108.186 60.8576 107.969 60.966C107.563 61.1286 107.563 61.1286 96.4786 59.6652L95.1778 59.5026C94.8526 59.4484 94.5545 59.2858 94.3919 59.0419C94.2293 58.798 94.2022 58.4999 94.3377 58.2018C96.3702 53.4593 98.4569 48.771 100.191 44.8144C100.381 44.3808 100.842 44.1098 101.357 44.0827C102.468 44.0556 103.416 44.0556 104.283 44.0285C107.454 43.9743 109.189 43.9472 110.869 43.7304C113.037 43.4323 115.178 42.8361 120.354 41.3727C120.814 41.2372 121.302 41.3456 121.6 41.6708L126.153 46.4675C126.533 46.8469 126.478 47.416 126.072 47.7954Z" fill="#17202D"/>
<path d="M90.4895 65.8711C91.3838 64.7329 100.164 53.7303 100.354 53.649C101.194 53.2967 113.091 52.5379 113.877 52.2398C117.589 50.7493 121.329 48.6084 124.961 46.874C124.581 47.5244 121.953 52.1585 121.763 52.3482C119.568 54.6517 99.7035 66.1963 96.2076 67.6055L90.4895 65.8711Z" fill="#626060"/>
<path d="M122.224 49.3943C122.007 49.5027 121.79 49.6111 121.6 49.7195C119.243 50.939 116.776 52.1856 114.337 53.1612C113.85 53.3509 112.82 53.4593 107.481 53.92C105.123 54.1097 101.98 54.3807 101.031 54.5162C99.8661 55.8983 94.5816 62.4836 92.3323 65.302L96.1805 66.4673C100.679 64.4348 118.43 54.0013 120.733 51.8062C120.76 51.7791 120.76 51.7791 120.787 51.752C121.004 51.5081 121.6 50.4512 122.224 49.3943ZM96.6412 68.5269C96.3431 68.6353 96.0179 68.6624 95.7198 68.5811L90.0288 66.8467C89.7036 66.7383 89.4597 66.5215 89.3513 66.2234C89.2429 65.9253 89.3242 65.6001 89.5139 65.3562C99.2699 53.0257 99.6493 52.8631 99.9203 52.7547C100.462 52.5379 101.709 52.4024 107.4 51.9146C109.73 51.7249 112.874 51.4539 113.497 51.3184C115.801 50.3699 118.186 49.1775 120.462 47.9851C121.763 47.3076 123.118 46.6301 124.419 46.0068C124.879 45.79 125.448 45.8442 125.801 46.1152C126.153 46.4133 126.234 46.874 126.018 47.2805C125.936 47.4431 125.692 47.8225 125.421 48.3374C122.901 52.7276 122.82 52.8089 122.657 52.9715C122.603 53.0257 122.576 53.0528 122.522 53.107C119.568 55.8712 100.137 67.1177 96.6412 68.5269Z" fill="#17202D"/>
<path d="M101.221 46.4675C99.5139 48.8794 88.972 62.6733 89.0262 64.1909C89.2159 69.2857 89.514 74.3805 89.8663 79.4753C82.9558 76.7924 76.0724 74.0824 69.189 71.3724C69.2974 67.0364 68.9993 62.0771 69.6497 57.8224C70.2188 54.1097 71.7635 50.0176 72.7662 46.3591L101.221 46.4675Z" fill="#90908F"/>
<path d="M73.4435 47.2805C73.1454 48.2832 72.8473 49.2859 72.5221 50.2886C71.7091 52.8631 70.8961 55.5189 70.5167 57.9579C70.0831 60.8576 70.0831 64.1096 70.1102 67.2532C70.1102 68.4185 70.1102 69.6109 70.1102 70.7762C76.1264 73.161 82.2781 75.5729 88.8634 78.1474C88.5653 73.703 88.2943 68.9605 88.1317 64.2451C88.1046 63.2153 89.7035 60.4782 98.6465 48.4458C98.9175 48.0664 99.1885 47.7141 99.4324 47.3889L73.4435 47.2805ZM102.034 46.061C102.17 46.3591 102.142 46.7114 101.953 46.9824C101.628 47.4431 100.95 48.3374 100.11 49.5027C97.427 53.107 90.3268 62.6733 89.9474 64.218C90.1371 69.4212 90.4623 74.5973 90.7604 79.4211C90.7875 79.7192 90.652 80.0173 90.381 80.207C90.1371 80.3967 89.8119 80.4238 89.5138 80.3154C82.2239 77.497 75.4489 74.8412 68.8365 72.2125C68.4842 72.077 68.2403 71.7247 68.2674 71.3453C68.2945 70.0174 68.2945 68.6624 68.2945 67.2261C68.2945 64.0012 68.2674 60.695 68.7281 57.6598C69.1075 55.0582 69.9747 52.3482 70.7877 49.7195C71.1942 48.4729 71.5465 47.2805 71.8717 46.1152C71.9801 45.7087 72.3324 45.4377 72.7389 45.4377L101.194 45.5461C101.573 45.5461 101.871 45.7358 102.034 46.061Z" fill="#17202D"/>
<path d="M102.278 64.489L104.717 86.44L136.153 95.112L141.844 92.944L150.245 59.069L117.454 46.874L110.137 50.397L102.278 64.489Z" fill="#626060"/>
<path d="M147.806 69.638L141.573 71.264L143.47 62.863L149.161 60.695L147.806 69.638Z" fill="#4F4F4F"/>
<path d="M145.096 82.104L138.863 83.73L140.76 74.516L146.451 73.161L145.096 82.104Z" fill="#4F4F4F"/>
<path d="M141.844 93.486L135.611 95.112L137.508 85.898L143.741 85.627L141.844 93.486Z" fill="#4F4F4F"/>
<path d="M136.207 96.2502L135.855 96.1689L103.714 87.3072L101.14 64.1638L110.137 47.687L117.129 45.6003L151.546 58.3915L142.766 93.757L136.207 96.2502ZM105.72 85.5999L136.099 93.9738L140.923 92.131L148.944 59.7465L117.779 48.1477L113.118 49.042L103.416 64.8413L105.72 85.5999Z" fill="#17202D"/>
<path d="M137.318 86.3587L108.403 78.6894L108.538 75.6L138.023 83.6216L140.57 73.4862L108.294 65.5188L108.457 62.0229L141.194 70.993L143.524 61.6977L109.351 48.0664C107.942 49.4756 100.598 56.9552 100.652 58.3915C100.815 62.8088 101.492 67.4429 101.845 71.8873C102.143 75.6271 102.495 79.394 102.847 83.1338C102.874 83.4048 102.685 83.8384 102.929 83.9739C108.43 87.2801 129.107 92.9711 135.232 94.6242L137.318 86.3587Z" fill="#90908F"/>
<path d="M141.979 72.3209L144.825 61.0473L112.332 48.0664C112.169 48.0664 112.007 48.0664 111.844 48.0664C110.625 48.0664 109.459 47.8767 108.348 47.5244C99.5137 56.4403 99.5679 57.8766 99.5679 58.4186C99.6763 61.237 99.9744 64.1638 100.272 66.9822C100.435 68.6353 100.625 70.3426 100.76 71.9686C101.058 75.5187 101.384 79.2043 101.763 83.188C101.763 83.2151 101.763 83.2422 101.763 83.2693C101.736 83.5403 101.6 84.4075 102.386 84.8682C107.996 88.2286 128.755 93.9738 134.988 95.654L136.044 95.9521L138.673 85.5457L109.568 77.8222L109.595 76.955L138.836 84.9224L141.925 72.6461L109.459 64.6245L109.514 63.3508L141.979 72.3209ZM139.269 74.245L137.237 82.2666L107.508 74.1908L107.264 79.5024L135.99 87.1446L134.418 93.3234C127.454 91.4264 109.568 86.4129 103.877 83.3235C103.877 83.2422 103.877 83.1609 103.877 83.0525C103.497 79.0417 103.172 75.3832 102.874 71.8331C102.739 70.18 102.549 68.4456 102.386 66.7925C102.088 64.0283 101.79 61.1828 101.709 58.4728C101.98 57.6327 104.744 54.2723 109.595 49.3672L142.223 62.3752L140.38 69.6651L107.4 60.5866L107.129 66.3318L139.269 74.245Z" fill="#17202D"/>
<path d="M110.002 92.0768C107.861 91.6432 104.825 91.4264 102.847 90.6134C100.625 89.692 97.9962 87.4698 95.9366 86.1148C95.2862 85.6812 89.1616 81.6433 89.1074 81.562C88.999 81.3723 88.4299 68.3372 88.3757 66.9822C88.3486 65.9795 88.0234 56.63 88.0776 56.4674C88.186 56.2235 99.3512 46.4133 101.086 44.8415L110.056 48.3916C108.999 52.4024 107.752 56.0338 107.915 60.1801C108.294 70.8575 108.972 81.4807 110.002 92.0768Z" fill="#90908F"/>
<path d="M88.1589 62.1855L88.0505 59.1232L107.969 56.088L107.427 60.695C101.763 61.6706 93.8499 62.0771 88.186 62.9443L88.1589 62.1855Z" fill="#F2EEE1"/>
<path d="M97.5897 49.2046C94.5274 51.9146 90.0559 55.8712 88.999 56.8739C88.999 58.4457 89.2158 65.1665 89.2971 66.9822C89.3513 68.6353 89.812 78.9875 89.9746 81.0742C90.5166 81.4536 92.0613 82.4834 96.2618 85.2476L96.4244 85.356C97.0748 85.7896 97.7794 86.3045 98.5111 86.8465C100.029 87.9576 101.736 89.2042 103.172 89.8004C104.419 90.3153 106.153 90.5863 107.861 90.8302C108.24 90.8844 108.619 90.9386 108.972 90.9928C108.023 80.9116 107.373 70.5865 106.993 60.2614C106.858 56.6029 107.752 53.4322 108.674 50.0447C108.782 49.6924 108.863 49.3401 108.972 48.9607L101.302 45.9255C100.516 46.603 99.1615 47.8225 97.5897 49.2046ZM110.95 48.6626C110.787 49.2859 110.625 49.9092 110.435 50.5325C109.541 53.7574 108.701 56.8197 108.836 60.1801C109.216 70.8846 109.92 81.5891 110.896 91.9955C110.923 92.2936 110.815 92.5646 110.598 92.7543C110.381 92.944 110.083 93.0253 109.812 92.9711C109.161 92.8356 108.403 92.7272 107.59 92.5917C105.801 92.3207 103.931 92.0497 102.495 91.4535C100.869 90.776 99.1344 89.5294 97.4542 88.3099C96.7225 87.795 96.045 87.2801 95.4217 86.8736L95.2591 86.7652C88.457 82.2937 88.457 82.2937 88.2944 81.9956C87.9963 81.3723 87.4814 67.1719 87.4543 67.0364C87.0749 56.5216 87.1562 56.3319 87.2375 56.1422C87.373 55.8441 87.373 55.7899 96.3702 47.8496C98.2672 46.1694 99.8932 44.7331 100.489 44.1911C100.733 43.9472 101.113 43.893 101.438 44.0285L110.408 47.5786C110.625 47.6599 110.787 47.8225 110.896 48.0393C110.977 48.2019 111.004 48.4458 110.95 48.6626Z" fill="#17202D"/>
<path d="M70.2456 55.1395C70.1643 55.7357 70.0559 56.3319 69.8662 56.9281L88.1858 59.34L92.3321 58.7438L70.2456 55.1395Z" fill="#17202D"/>
<path d="M100.625 59.9904C102.658 59.9362 104.907 60.3156 106.939 60.5324C107.481 70.722 108.267 80.8303 109.378 90.9657C107.102 90.5863 104.826 90.234 102.576 89.692C104.013 89.4752 105.503 89.4481 106.939 89.1771C105.449 88.9332 103.796 88.7164 102.387 88.2015C103.823 87.9576 105.286 87.9576 106.723 87.6595C105.232 87.4156 103.579 87.1988 102.17 86.6839C103.606 86.44 105.069 86.44 106.506 86.1419C105.015 85.898 103.362 85.6812 101.953 85.1663C103.389 84.9224 104.853 84.9224 106.289 84.6243C104.798 84.3804 103.172 84.1636 101.736 83.6487C103.172 83.4319 104.636 83.4048 106.072 83.1067C104.582 82.8628 102.956 82.646 101.546 82.1311C102.983 81.9143 104.446 81.8872 105.882 81.5891C104.419 81.3452 102.766 81.1284 101.357 80.6135C102.793 80.3696 104.256 80.3696 105.666 80.0715C104.202 79.8276 102.549 79.6108 101.167 79.0959C102.603 78.852 104.067 78.852 105.476 78.5268C104.013 78.2829 102.359 78.0661 100.977 77.5512C102.414 77.3073 103.877 77.3073 105.286 76.9821C103.823 76.7382 102.17 76.5214 100.788 76.0065C102.224 75.7897 103.687 75.7626 105.097 75.4374C103.633 75.1935 102.007 74.9767 100.625 74.4618C102.061 74.245 103.525 74.2179 104.934 73.8927C103.471 73.6488 101.845 73.432 100.462 72.9171C101.899 72.6732 103.335 72.6461 104.771 72.348C103.308 72.1041 101.682 71.8873 100.3 71.3724C101.736 71.1285 103.172 71.1014 104.609 70.8033C103.172 70.5594 101.519 70.3426 100.164 69.8006C101.574 69.5296 103.037 69.5296 104.473 69.2315C103.037 68.9876 101.384 68.7708 100.029 68.2288C101.438 68.0662 102.929 67.9578 104.311 67.6597C102.874 67.4158 101.221 67.199 99.8662 66.657C101.275 66.4944 102.766 66.386 104.148 66.0879C102.874 65.8711 100.842 65.573 99.7036 65.031C101.113 64.8142 102.576 64.76 103.985 64.4348C102.549 64.1909 100.923 63.9741 99.5681 63.4321C100.977 63.2153 102.441 63.1611 103.85 62.8359C102.414 62.592 100.788 62.3752 99.4326 61.8332C100.842 61.5622 102.305 61.5622 103.714 61.237C102.278 60.9931 100.652 60.7763 99.3242 60.2343C99.7307 60.0717 100.191 59.9904 100.625 59.9904Z" fill="#F2EEE1"/>
<path d="M108.077 56.4132L87.4814 59.611L87.2104 57.8224L107.806 54.6246L108.077 56.4132Z" fill="#17202D"/>
<path d="M109.812 87.8763L110.408 92.402L115.259 89.5836L109.812 87.8763Z" fill="#17202D"/>
<path d="M149.605 58.5972L142.562 61.0349L143.271 63.0836L150.314 60.6459L149.605 58.5972Z" fill="#17202D"/>
<path d="M141.952 72.2938L141.004 70.2071L147.779 68.3101L148.375 70.4239L141.952 72.2938Z" fill="#17202D"/>
<path d="M146.258 71.8312L140.56 72.9157L140.966 75.0456L146.663 73.9611L146.258 71.8312Z" fill="#17202D"/>
<path d="M144.45 81.9504L138.489 82.7626L138.782 84.9107L144.743 84.0985L144.45 81.9504Z" fill="#17202D"/>
<path d="M143.134 85.3491L137.721 85.6204L137.83 87.7856L143.243 87.5143L143.134 85.3491Z" fill="#17202D"/>
<path d="M24.2299 32.1587C23.6066 32.9446 22.5497 33.9473 22.1161 34.7874C21.9535 35.1126 20.8153 39.9906 20.5985 40.8036C18.9996 47.1992 18.3492 52.3753 19.1622 58.9877L34.7718 62.7275C36.5333 60.1801 40.1376 55.8983 41.3029 53.2696C41.9804 51.7249 42.1701 49.1504 42.5495 47.4431C42.685 46.874 43.8232 41.6708 43.7961 41.5624C43.769 41.3727 42.685 38.1749 42.685 38.1749L24.2299 32.1587Z" fill="#90908F"/>
<path d="M42.902 41.6166C42.631 40.1532 42.2245 38.6085 40.8424 38.1478C41.1134 39.0421 41.547 40.0177 41.7096 40.9391C41.7367 41.0204 40.5172 46.4404 40.4088 47.0366C40.0294 48.8252 39.8126 51.4539 39.108 53.0799C37.9698 55.6544 34.772 59.2858 33.0647 61.7248L34.1758 61.9958C35.9373 59.5568 39.2977 55.817 40.4359 53.2154C41.1134 51.6978 41.3031 49.1233 41.6554 47.4431C41.7638 46.874 42.902 41.6979 42.902 41.6166Z" fill="#A9A9A9"/>
<path d="M24.0673 33.4866C23.5795 34.0286 23.0104 34.6519 22.7936 35.1126C22.6581 35.4649 21.9264 38.5543 21.6012 39.8551C21.4657 40.3971 21.3844 40.8036 21.3302 40.9933C19.921 46.6572 19.1351 51.8062 19.8668 58.3644L34.4737 61.8603C34.9615 61.1557 35.5577 60.3698 36.2081 59.5568C37.9154 57.2804 39.8666 54.7059 40.6525 52.9444C41.0861 51.9688 41.3029 50.4783 41.5197 49.1504C41.6281 48.4729 41.7365 47.8225 41.8449 47.2534L42.0617 46.2778C42.3327 45.0312 42.9289 42.2399 43.0644 41.5895C42.9289 41.183 42.5224 39.9635 42.1159 38.7711L24.5009 33.053C24.3383 33.1885 24.2028 33.324 24.0673 33.4866ZM43.3896 37.931C44.5007 41.183 44.5278 41.3456 44.5278 41.3998C44.582 41.6166 44.582 41.6166 43.498 46.603L43.2812 47.5786C43.1728 48.1206 43.0644 48.7168 42.9831 49.3943C42.7392 50.8848 42.5224 52.4295 42.0075 53.5677C41.1674 55.4918 39.162 58.1476 37.4005 60.4782C36.6417 61.4538 35.9371 62.4023 35.4222 63.1611L35.1241 63.5676L18.4847 59.5839L18.4305 59.069C17.5633 52.023 18.3763 46.603 19.8668 40.6139C19.921 40.4242 20.0023 40.0177 20.1378 39.5028C21.1134 35.4649 21.3302 34.679 21.4386 34.4622C21.7638 33.8118 22.3871 33.1343 22.9562 32.4839C23.2001 32.2129 23.444 31.9419 23.6337 31.698L23.9589 31.2915L43.2812 37.5787L43.3896 37.931Z" fill="#17202D"/>
<path d="M43.3897 43.0258C35.6391 40.5597 28.6473 38.2833 22.0078 36.1153L22.4685 34.679C29.108 36.847 36.0998 39.1234 43.8504 41.5895L43.3897 43.0258Z" fill="#17202D"/>
<path d="M40.5714 53.7845C33.3086 51.5352 26.0458 49.2317 19.0269 46.9824L19.4876 45.5461C26.5065 47.8225 33.7693 50.0989 41.0321 52.3482L40.5714 53.7845Z" fill="#17202D"/>
<path d="M18.268 55.8983C24.1487 57.1991 32.1161 60.0446 37.1296 63.3508L34.4738 72.348L36.0185 73.8656C31.3302 72.348 26.5064 71.6434 21.8181 70.0716C18.4577 68.9605 15.4767 67.3345 12.2518 66.0066C10.1109 65.1394 7.61771 64.6245 5.42261 63.947L5.69361 63.1882C8.97271 63.1882 13.2545 63.947 16.2084 65.4104L18.268 55.8983Z" fill="#90908F"/>
<path d="M16.1813 65.4104C13.2274 63.947 8.9185 63.1882 5.6665 63.1882C6.4795 60.7221 7.1299 55.6815 9.94831 55.1937C12.4686 54.7601 15.8019 55.3563 18.268 55.8983L16.1813 65.4104Z" fill="#A9A9A9"/>
<path d="M37.1297 63.3508C38.2679 64.0825 40.463 65.6272 40.734 67.0364C40.8424 67.6326 39.0809 73.6217 38.7828 74.7057C36.5606 74.0011 36.1541 74.0553 34.4739 72.3209L37.1297 63.3508Z" fill="#626060"/>
<path d="M36.4248 76.0336C31.1945 76.955 6.58774 70.1529 5.63924 64.8413C5.47664 63.8928 6.42514 63.5405 7.18394 63.405C12.1432 62.5378 37.1294 69.7735 37.9695 74.5702C38.1592 75.6 37.2649 75.8981 36.4248 76.0336Z" fill="#90908F"/>
<path d="M6.64208 65.4646C7.94288 67.3887 12.8209 69.909 19.6501 72.1312C26.5606 74.3805 33.8776 75.7897 36.3166 75.3561C36.4792 75.329 36.967 75.2477 37.2109 75.058C37.2922 75.0038 37.3735 74.9496 37.3193 74.6786C37.0483 73.2423 32.8207 70.451 23.9319 67.4971C16.8859 65.1665 9.59598 63.676 7.31958 64.0554C6.83178 64.1367 6.58789 64.2722 6.45239 64.3535C6.31689 64.4619 6.28979 64.5161 6.31689 64.6787C6.34399 64.9768 6.45238 65.2207 6.64208 65.4646ZM38.1865 73.4049C38.4304 73.7572 38.593 74.1095 38.6472 74.4618C38.7827 75.1935 38.5388 75.8168 37.9697 76.1962C37.5361 76.5214 36.967 76.6298 36.5334 76.7111C33.8505 77.1718 26.398 75.7626 19.1894 73.432C14.1488 71.7789 5.55808 68.4998 4.93478 64.9497C4.79928 64.2451 5.07029 63.6489 5.63939 63.2424C5.99169 62.9985 6.45238 62.8359 7.04858 62.7275C9.92119 62.2126 17.9157 64.0825 24.3113 66.1963C28.8641 67.7139 36.2353 70.5052 38.1865 73.4049Z" fill="#17202D"/>
<path d="M41.1675 66.1692C41.3301 66.386 41.3301 66.5215 41.3572 66.6299C41.4114 66.928 41.2759 67.1177 41.1404 67.2803C40.4087 69.0147 39.8938 71.0201 39.3789 72.9713C39.1079 73.974 38.8369 75.0309 38.5388 76.0065L37.3464 75.6542C37.6445 74.7057 37.8884 73.7301 38.1594 72.6732C38.7014 70.6678 39.2434 68.5811 40.0022 66.7654V66.7383C39.6499 66.3318 38.2949 65.1123 32.8749 62.1855L32.7665 62.1313C26.127 58.527 16.7775 56.088 9.40632 55.9796L5.26002 65.302L4.71802 62.9172L8.64752 54.7601H9.02692C16.642 54.7601 26.4251 57.2804 33.3898 61.0473L33.4982 61.1015C39.1892 64.1909 40.7339 65.5188 41.1675 66.1692Z" fill="#17202D"/>
<path d="M146.722 40.912L130.733 38.202L126.397 38.744L138.592 45.79L150.516 44.706L146.722 40.912Z" fill="#17202D"/>
<path d="M118.565 56.3319L116.858 50.8848C119.974 48.2561 121.356 47.1179 122.467 45.79C123.578 44.4621 124.446 42.9445 126.559 39.6383C130.597 40.641 134.662 41.6437 138.7 42.6735C138.375 43.4865 135.123 51.3455 135.069 51.3997C134.988 51.4539 127.643 53.5677 126.803 53.8116L118.565 56.3319Z" fill="#90908F"/>
<path d="M117.888 51.1829L119.134 55.1937L126.505 52.9173C126.803 52.836 127.86 52.5108 129.134 52.1585C130.896 51.6436 133.416 50.9119 134.364 50.6409C134.906 49.3672 136.749 44.8957 137.427 43.2968C133.741 42.3483 130.137 41.454 126.966 40.6952C126.668 41.183 126.37 41.6166 126.126 42.0231C124.798 44.1369 124.066 45.3022 123.145 46.3862C122.034 47.687 120.706 48.8252 117.888 51.1829ZM118.701 57.2262C118.267 57.3075 117.833 57.0365 117.698 56.6029L115.991 51.1558C115.882 50.8035 115.991 50.4241 116.289 50.1802C119.432 47.5515 120.706 46.4675 121.79 45.1938C122.63 44.1911 123.335 43.08 124.608 41.0204C124.961 40.4513 125.367 39.828 125.801 39.1234C126.018 38.7982 126.397 38.6356 126.803 38.7169C130.408 39.6112 134.662 40.641 138.944 41.7521C139.188 41.8063 139.405 41.996 139.54 42.2128C139.649 42.4567 139.676 42.7277 139.568 42.9716L139.188 43.9201C135.882 51.9146 135.882 51.9146 135.584 52.1043C135.421 52.2127 135.421 52.2127 129.703 53.8658C128.429 54.2452 127.373 54.5433 127.074 54.6246L118.836 57.172C118.782 57.1991 118.728 57.1991 118.701 57.2262Z" fill="#17202D"/>
<path d="M144.961 47.1721C142.549 48.8794 126.316 56.4945 123.741 56.7113C123.524 56.7384 119.08 55.9254 118.43 55.817C121.113 54.2181 124.148 52.7547 126.695 50.939C127.21 50.5596 132.359 42.4025 132.955 41.9689C133.091 41.8876 144.662 41.9689 145.855 41.996L144.961 47.1721Z" fill="#626060"/>
<path d="M123.66 55.6002C123.687 55.6002 123.687 55.6002 123.714 55.6002C126.234 55.1937 140.841 48.5 144.093 46.4404L144.717 42.9445C141.763 42.9174 134.825 42.8632 133.335 42.9174C132.874 43.5136 131.465 45.6274 130.408 47.2263C127.996 50.8306 127.535 51.5081 127.183 51.752C125.503 52.9444 123.633 53.9742 121.817 54.9769C121.655 55.0582 121.492 55.1666 121.329 55.2479C122.359 55.3834 123.389 55.5731 123.66 55.6002ZM123.985 57.6056C123.931 57.6056 123.877 57.6327 123.823 57.6327C123.633 57.6598 122.495 57.9308 118.267 57.172C117.725 56.63 118.457 56.7655 118.321 56.7384C117.915 56.6842 117.617 56.3319 117.535 55.8983C117.454 55.4647 117.644 55.0311 117.969 54.8414C118.945 54.2452 119.974 53.6761 120.977 53.1341C122.739 52.1585 124.554 51.1558 126.126 50.0447C126.451 49.6653 127.888 47.5515 128.917 45.9797C131.465 42.1586 132.061 41.3185 132.413 41.0746C132.603 40.9391 132.874 40.7494 145.801 40.9391C146.072 40.9391 146.343 41.0746 146.532 41.3185C146.722 41.5624 146.776 41.8876 146.722 42.1857L145.828 47.3347C145.774 47.6057 145.638 47.8225 145.448 47.958C143.064 49.6382 127.183 57.1178 123.985 57.6056Z" fill="#17202D"/>
<path d="M135.736 50.9469L135.464 53.0977L161.221 56.3508L161.492 54.1999L135.736 50.9469Z" fill="#17202D"/>
<path d="M118.402 90.0443C118.375 89.963 115.936 85.4644 115.665 84.9495C113.985 84.9766 112.142 84.7869 110.571 84.9766L110.462 85.3289L109.324 88.9332C109.216 89.2855 108.159 92.673 108.159 92.7001C108.213 92.8627 111.248 98.6079 111.6 99.2583C112.088 99.177 116.478 98.3369 116.56 98.2827C117.156 97.7678 118.619 91.1283 118.402 90.0443Z" fill="#90908F"/>
<path d="M112.847 91.589L108.24 92.944L110.408 85.627L116.099 85.085L112.847 91.589Z" fill="#A9A9A9"/>
<path d="M117.752 90.1798C117.427 89.5836 116.072 87.0633 115.53 86.0606L115.367 85.7625C114.907 85.7625 114.446 85.7354 113.985 85.7354C112.983 85.7083 111.98 85.6812 111.031 85.7354L109.785 89.5836C109.162 91.5348 108.891 92.402 108.782 92.7814C109.243 93.7028 110.76 96.5754 111.465 97.8762C111.573 98.093 111.682 98.3098 111.79 98.4724C114.067 98.0388 115.693 97.7136 116.126 97.6052C116.641 96.8464 117.834 91.4535 117.752 90.1798ZM115.964 84.1365L116.614 85.356C118.999 89.7733 118.999 89.7733 119.026 89.9901C119.297 91.2909 117.806 98.1743 116.966 98.8789C116.831 98.9873 116.804 99.0144 111.817 99.9358L111.357 100.017L111.059 99.5022C110.977 99.3396 110.76 98.9331 110.462 98.3911C107.59 92.9982 107.59 92.944 107.536 92.7543C107.454 92.4833 107.454 92.4833 108.592 88.7706L110.029 84.2178L110.327 84.1907C111.411 84.0552 112.576 84.0823 113.741 84.1365C114.338 84.1636 114.934 84.1636 115.503 84.1636L115.964 84.1365Z" fill="#17202D"/>
<path d="M114.88 84.7327L116.235 85.627L113.904 92.6459L113.796 92.7543C113.66 92.8898 113.633 92.9169 108.457 93.7841L107.969 92.2394C109.948 91.8871 112.061 91.5077 112.793 91.3451L114.88 84.7327Z" fill="#17202D"/>
<path d="M128.538 90.2882C128.511 90.1798 126.126 85.5728 125.855 85.0579C123.579 85.1392 121.221 85.0308 119.053 85.2476L118.863 85.627L117.129 89.3939L115.34 93.3505C115.367 93.486 118.376 99.3667 118.701 100.017C119.378 99.9358 125.665 99.0686 125.801 98.9873C126.695 98.364 127.617 94.5429 127.888 93.2692C127.969 92.944 128.565 90.3695 128.538 90.2882Z" fill="#90908F"/>
<path d="M123.145 92.944L116.099 93.486L118.809 85.356L125.313 85.085L123.145 92.944Z" fill="#A9A9A9"/>
<path d="M127.806 90.3424C127.427 89.5836 126.18 87.1988 125.665 86.2232L125.503 85.9251C124.798 85.9522 124.094 85.9522 123.389 85.9522C122.088 85.9522 120.76 85.9522 119.541 86.0606L116.099 93.486C116.587 94.4616 117.969 97.1987 118.674 98.6079C118.809 98.8518 118.918 99.0686 118.999 99.2583C123.823 98.5808 125.123 98.364 125.449 98.3098C125.909 97.822 126.668 95.5998 127.21 92.9982C127.237 92.9169 127.264 92.7001 127.346 92.402C127.454 91.8871 127.698 90.8302 127.806 90.3424ZM126.235 84.1636L126.885 85.4373C129.216 89.963 129.243 89.9901 129.27 90.2069C129.297 90.4508 129.297 90.4779 128.728 92.944C128.674 93.215 128.619 93.4318 128.592 93.5131C128.24 95.112 127.319 98.8247 126.235 99.6106C126.072 99.719 126.018 99.7732 119.161 100.695L118.457 100.803L118.186 100.288C118.105 100.126 117.888 99.6919 117.59 99.1228C114.798 93.6486 114.771 93.5944 114.744 93.4318L114.69 93.1608L116.56 88.9874L118.619 84.4888L118.918 84.4617C120.3 84.2991 121.79 84.2991 123.226 84.2991C124.067 84.2991 124.934 84.2991 125.774 84.2449L126.235 84.1636Z" fill="#17202D"/>
<path d="M125.015 84.814L126.424 85.7625C126.343 85.9522 126.072 86.6026 125.72 87.4427C123.308 93.1879 123.308 93.1879 123.145 93.3234C122.955 93.4589 122.901 93.5131 115.666 94.3261L115.124 94.3803L114.717 92.7814L115.259 92.7272C119.026 92.2665 121.384 91.9684 122.142 91.86C122.522 90.9928 123.66 88.2015 124.338 86.5484C124.663 85.6812 124.934 85.0037 125.015 84.814Z" fill="#17202D"/>
<path d="M137.373 90.9928C137.346 90.9115 134.907 86.4129 134.636 85.898C132.955 85.9251 131.113 85.7354 129.541 85.9251L129.432 86.2774L128.294 89.8817C128.186 90.234 127.129 93.6215 127.129 93.6486C127.183 93.8112 130.218 99.5564 130.571 100.207C131.058 100.126 135.449 99.2854 135.53 99.2312C136.126 98.6892 137.589 92.0768 137.373 90.9928Z" fill="#90908F"/>
<path d="M131.817 92.402L127.21 93.757L129.378 86.44L135.069 85.898L131.817 92.402Z" fill="#A9A9A9"/>
<path d="M136.722 91.1283C136.397 90.5321 135.042 88.0118 134.5 87.0091L134.337 86.711C133.877 86.711 133.416 86.6839 132.955 86.6839C131.953 86.6568 130.95 86.6297 130.001 86.6839L128.755 90.5321C128.132 92.4833 127.861 93.3505 127.752 93.7299C128.213 94.6513 129.73 97.5239 130.435 98.8247C130.543 99.0415 130.652 99.2583 130.76 99.4209C133.037 98.9873 134.663 98.6621 135.096 98.5537C135.611 97.7949 136.804 92.402 136.722 91.1283ZM134.934 85.085L135.584 86.3045C137.969 90.7218 137.969 90.7218 137.996 90.9386C138.267 92.2394 136.776 99.1228 135.936 99.8274C135.801 99.9358 135.774 99.9629 130.787 100.884L130.327 100.966L130.029 100.451C129.947 100.288 129.73 99.8816 129.432 99.3396C126.56 93.9467 126.56 93.8925 126.506 93.7028C126.424 93.4318 126.424 93.4318 127.562 89.7191L128.999 85.1663L129.297 85.1392C130.381 85.0037 131.546 85.0308 132.711 85.085C133.308 85.1121 133.904 85.1121 134.473 85.1121L134.934 85.085Z" fill="#17202D"/>
<path d="M133.85 85.6812L135.205 86.5755L132.874 93.5944L132.766 93.7028C132.63 93.8383 132.603 93.8654 127.427 94.7326L126.939 93.1879C128.918 92.8356 131.031 92.4562 131.763 92.2936L133.85 85.6812Z" fill="#17202D"/>
</svg>
