<svg width="30" height="30" viewBox="0 0 30 30" fill="none" xmlns="http://www.w3.org/2000/svg">
<path d="M22.0898 0H7.91016C3.55078 0 0 3.55078 0 7.91016V22.0898C0 26.4492 3.55078 30 7.91016 30H22.0898C26.4492 30 30 26.4492 30 22.0898V7.91016C30 3.55078 26.4492 0 22.0898 0ZM20.4785 7.69336H18.5039C16.957 7.69336 16.6582 8.45508 16.6582 9.5625V12.2109H20.1504L19.6699 16.0547H16.6582V25.7227H12.8086V16.0547H9.66797V12.2109H12.8086V9.18164C12.8086 5.89453 14.7598 4.10156 17.6016 4.10156C18.9668 4.10156 20.1387 4.20703 20.4785 4.25391V7.69336Z" fill="#FF0066"/>
</svg>
