<svg width="30" height="30" viewBox="0 0 30 30" fill="none" xmlns="http://www.w3.org/2000/svg">
<path d="M22.0898 0H7.91016C3.55078 0 0 3.55078 0 7.91016V22.0898C0 26.4492 3.55078 30 7.91016 30H22.0898C26.4492 30 30 26.4492 30 22.0898V7.91016C30 3.55078 26.4492 0 22.0898 0ZM25.2539 7.875L22.125 22.5293C21.8906 23.5664 21.2754 23.8184 20.4023 23.332L15.6387 19.8457L13.3418 22.043C13.0898 22.2949 12.873 22.5059 12.3867 22.5059L12.7324 17.6836L21.5625 9.75586C21.9492 9.41602 21.4805 9.22852 20.9648 9.56836L10.0371 16.4004L5.33789 14.9414C4.31836 14.625 4.29492 13.9277 5.54883 13.4355L23.9297 6.39844C24.7852 6.08203 25.5293 6.58594 25.2539 7.875Z" fill="#FF0066"/>
</svg>
