<svg width="14" height="14" viewBox="0 0 14 14" fill="none" xmlns="http://www.w3.org/2000/svg">
<g clip-path="url(#clip0)">
<path d="M5.80384 10.6707L4.15415 12.3204C3.47023 13.0043 2.36266 13.0043 1.67931 12.3205C0.995824 11.637 0.995824 10.5293 1.67918 9.84598L4.97912 6.54603C5.66247 5.86265 6.77015 5.86265 7.4535 6.54603C7.6813 6.77383 8.05066 6.77383 8.27846 6.54603C8.50627 6.31822 8.50627 5.94886 8.27846 5.72106C7.13948 4.58207 5.29314 4.58207 4.15415 5.72106L0.854237 9.02098C-0.284746 10.16 -0.284746 12.0063 0.854237 13.1453C1.99308 14.2849 3.83956 14.2849 4.97915 13.1453L6.62883 11.4956C6.85664 11.2678 6.85664 10.8984 6.62883 10.6706C6.40103 10.4428 6.03164 10.4429 5.80384 10.6707Z" fill="black" fill-opacity="0.6"/>
<path d="M13.1454 0.854207C12.0064 -0.284776 10.1595 -0.284776 9.02047 0.854207L7.04121 2.83347C6.81341 3.06127 6.81341 3.43063 7.04121 3.65843C7.26902 3.88624 7.63838 3.88624 7.86618 3.65843L9.84544 1.67917C10.5288 0.995794 11.637 0.995794 12.3204 1.67917C13.0038 2.36252 13.0038 3.4702 12.3204 4.15355L8.6909 7.7831C8.00752 8.46648 6.89987 8.46648 6.21652 7.7831C5.98872 7.5553 5.61936 7.5553 5.39155 7.7831C5.16375 8.0109 5.16375 8.38026 5.39155 8.60806C6.53054 9.74705 8.37688 9.74705 9.51586 8.60806L13.1454 4.97854C14.2844 3.83956 14.2844 1.99319 13.1454 0.854207Z" fill="black" fill-opacity="0.6"/>
</g>
<defs>
<clipPath id="clip0">
<rect width="14" height="14" fill="white"/>
</clipPath>
</defs>
</svg>
