<svg width="30" height="30" viewBox="0 0 30 30" fill="none" xmlns="http://www.w3.org/2000/svg">
<path d="M17.6367 15C17.6367 16.459 16.459 17.6367 15 17.6367C13.541 17.6367 12.3633 16.459 12.3633 15C12.3633 13.541 13.541 12.3633 15 12.3633C16.459 12.3633 17.6367 13.541 17.6367 15Z" fill="#FF0066"/>
<path d="M19.4531 7.03125H10.5469C8.60742 7.03125 7.03125 8.60742 7.03125 10.5469V19.4531C7.03125 21.3926 8.60742 22.9688 10.5469 22.9688H19.4531C21.3926 22.9688 22.9688 21.3926 22.9688 19.4531V10.5469C22.9688 8.60742 21.3926 7.03125 19.4531 7.03125ZM15 19.3945C12.5742 19.3945 10.6055 17.4258 10.6055 15C10.6055 12.5742 12.5742 10.6055 15 10.6055C17.4258 10.6055 19.3945 12.5742 19.3945 15C19.3945 17.4258 17.4258 19.3945 15 19.3945ZM20.0391 10.8398C19.5527 10.8398 19.1602 10.4473 19.1602 9.96094C19.1602 9.47461 19.5527 9.08203 20.0391 9.08203C20.5254 9.08203 20.918 9.47461 20.918 9.96094C20.918 10.4473 20.5254 10.8398 20.0391 10.8398Z" fill="#FF0066"/>
<path d="M22.0898 0H7.91016C3.55078 0 0 3.55078 0 7.91016V22.0898C0 26.4492 3.55078 30 7.91016 30H22.0898C26.4492 30 30 26.4492 30 22.0898V7.91016C30 3.55078 26.4492 0 22.0898 0ZM24.7266 19.4531C24.7266 22.3594 22.3594 24.7266 19.4531 24.7266H10.5469C7.64062 24.7266 5.27344 22.3594 5.27344 19.4531V10.5469C5.27344 7.64062 7.64062 5.27344 10.5469 5.27344H19.4531C22.3594 5.27344 24.7266 7.64062 24.7266 10.5469V19.4531Z" fill="#FF0066"/>
</svg>
