<svg width="300" height="131" viewBox="0 0 300 131" fill="none" xmlns="http://www.w3.org/2000/svg">
<g clip-path="url(#clip0)">
<path d="M185.696 11.4415V90.426C185.696 92.9499 183.512 95.0411 180.813 95.0411H97.2939C94.6213 95.0411 92.4113 92.9739 92.4113 90.426V11.4415C92.4113 8.91761 94.5956 6.82642 97.2939 6.82642H180.813C183.512 6.82642 185.696 8.91761 185.696 11.4415Z" fill="#D9D0D0"/>
<path d="M167.039 50.9338C167.039 52.2077 166.936 53.4817 166.756 54.7075C166.062 59.3707 164.058 63.6492 161.128 67.1826C156.785 72.4707 150.361 76.1242 143.011 77.1097C141.726 77.278 140.39 77.3741 139.054 77.3741C137.692 77.3741 136.381 77.278 135.07 77.1097C127.772 76.1242 121.373 72.4707 117.03 67.2307C114.075 63.6732 112.07 59.3947 111.376 54.7075C111.197 53.4817 111.094 52.2077 111.094 50.9338C111.094 49.6598 111.197 48.3859 111.376 47.16C112.07 42.4729 114.075 38.1943 117.03 34.6369C121.373 29.3969 127.772 25.7433 135.096 24.7578C136.381 24.5896 137.717 24.4934 139.054 24.4934C140.39 24.4934 141.726 24.5896 143.037 24.7578C150.361 25.7433 156.785 29.4209 161.128 34.685C164.058 38.2424 166.037 42.4969 166.756 47.16C166.936 48.3859 167.039 49.6598 167.039 50.9338Z" fill="#BBBABD"/>
<path d="M167.039 50.9338C167.039 52.2077 166.936 53.4817 166.756 54.7075C166.062 59.3707 164.058 63.6492 161.128 67.1826C156.785 72.4707 150.361 76.1242 143.011 77.1097C141.726 77.278 140.39 77.3741 139.054 77.3741C137.692 77.3741 136.381 77.278 135.07 77.1097C127.772 76.1242 121.373 72.4707 117.03 67.2307C114.075 63.6732 112.07 59.3947 111.376 54.7075C111.197 53.4817 111.094 52.2077 111.094 50.9338C111.094 49.6598 111.197 48.3859 111.376 47.16C112.07 42.4729 114.075 38.1943 117.03 34.6369C121.373 29.3969 127.772 25.7433 135.096 24.7578C136.381 24.5896 137.717 24.4934 139.054 24.4934C140.39 24.4934 141.726 24.5896 143.037 24.7578C150.361 25.7433 156.785 29.4209 161.128 34.685C164.058 38.2424 166.037 42.4969 166.756 47.16C166.936 48.3859 167.039 49.6598 167.039 50.9338Z" fill="#B4B4B6"/>
<path d="M127.027 54.7074C129.227 54.7074 131.01 53.0179 131.01 50.9337C131.01 48.8495 129.227 47.1599 127.027 47.1599C124.827 47.1599 123.043 48.8495 123.043 50.9337C123.043 53.0179 124.827 54.7074 127.027 54.7074Z" fill="#222424"/>
<path d="M151.183 54.7074C153.383 54.7074 155.166 53.0179 155.166 50.9337C155.166 48.8495 153.383 47.1599 151.183 47.1599C148.983 47.1599 147.2 48.8495 147.2 50.9337C147.2 53.0179 148.983 54.7074 151.183 54.7074Z" fill="#222424"/>
<path d="M139.079 47.1599C137.049 47.1599 135.353 48.6021 135.122 50.477H143.037C142.78 48.6021 141.11 47.1599 139.079 47.1599Z" fill="#E0E0E1"/>
<path d="M139.079 54.7076C141.11 54.7076 142.806 53.2654 143.037 51.3905H135.122C135.353 53.2654 137.024 54.7076 139.079 54.7076Z" fill="#E0E0E1"/>
<path d="M143.037 50.4771H135.122C135.096 50.6213 135.096 50.7895 135.096 50.9338C135.096 51.078 135.096 51.2462 135.122 51.3905H143.037C143.062 51.2462 143.062 51.078 143.062 50.9338C143.062 50.7895 143.037 50.6213 143.037 50.4771Z" fill="#9B9C9E"/>
<path d="M117.081 34.6368V47.16H111.402C112.096 42.4968 114.1 38.1943 117.081 34.6368Z" fill="#E7E7E7"/>
<path d="M117.081 54.7076V67.2308H117.056C114.1 63.6733 112.096 59.3948 111.402 54.7076H117.081Z" fill="#E7E7E7"/>
<path d="M166.756 47.16H161.128V34.6849C164.058 38.2424 166.037 42.4969 166.756 47.16Z" fill="#E7E7E7"/>
<path d="M166.756 54.7076C166.062 59.3708 164.058 63.6493 161.128 67.1827V54.7076H166.756Z" fill="#E7E7E7"/>
<path d="M143.037 67.9518V77.1338C141.752 77.302 140.416 77.3982 139.079 77.3982C137.717 77.3982 136.407 77.302 135.096 77.1338V67.9518H143.037Z" fill="#A4A4A5"/>
<path d="M143.037 24.7578V33.7475H135.096V24.7578C136.381 24.5896 137.717 24.4934 139.079 24.4934C140.441 24.4934 141.752 24.5896 143.037 24.7578Z" fill="#A4A4A5"/>
<path d="M141.855 69.1536H136.175V78.3596H141.855V69.1536Z" fill="#9A9A9C"/>
<path d="M141.855 23.6522H136.175V32.8583H141.855V23.6522Z" fill="#9A9A9C"/>
<path d="M139.079 21.6331C121.964 21.6331 108.087 34.7571 108.087 50.9338C108.087 67.1105 121.964 80.2345 139.079 80.2345C156.194 80.2345 170.072 67.1105 170.072 50.9338C170.046 34.7571 156.194 21.6331 139.079 21.6331ZM161.129 67.1826C156.785 72.4707 150.361 76.1243 143.011 77.1098C141.726 77.278 140.39 77.3742 139.054 77.3742C137.692 77.3742 136.381 77.278 135.07 77.1098C127.772 76.1243 121.373 72.4707 117.03 67.2307C114.075 63.6733 112.07 59.3947 111.377 54.7076C111.197 53.4817 111.094 52.2077 111.094 50.9338C111.094 49.6599 111.197 48.3859 111.377 47.16C112.07 42.4729 114.075 38.1943 117.03 34.6369C121.373 29.3969 127.772 25.7433 135.096 24.7578C136.381 24.5896 137.717 24.4934 139.054 24.4934C140.39 24.4934 141.726 24.5896 143.037 24.7578C150.361 25.7433 156.785 29.4209 161.129 34.685C164.058 38.2424 166.037 42.4969 166.756 47.16C166.936 48.3859 167.039 49.6358 167.039 50.9338C167.039 52.2077 166.936 53.4817 166.756 54.7076C166.037 59.3707 164.058 63.6492 161.129 67.1826Z" fill="url(#paint0_linear)"/>
<path d="M146.275 49.4193H138.977H131.678L116.157 36.6558C113.253 40.7902 111.557 45.7658 111.557 51.1019C111.557 65.596 123.969 77.35 139.285 77.35C154.601 77.35 167.014 65.596 167.014 51.1019C167.014 45.6215 165.24 40.5258 162.182 36.3193L146.275 49.4193Z" fill="#202322"/>
<path d="M138.977 49.4194H146.275L162.208 36.3194C157.223 29.4209 148.819 24.8779 139.311 24.8779C129.648 24.8779 121.116 29.5651 116.157 36.6559L131.678 49.4194H138.977Z" fill="#202322"/>
<path d="M138.977 49.4194H146.275L162.208 36.3194C157.223 29.4209 148.819 24.8779 139.311 24.8779C129.648 24.8779 121.116 29.5651 116.157 36.6559L131.678 49.4194H138.977Z" fill="#3A3C3D"/>
<path d="M146.583 89.6328H131.987C130.291 89.6328 128.903 88.3348 128.903 86.7484V46.7754C128.903 45.189 130.291 43.891 131.987 43.891H146.583C148.28 43.891 149.667 45.189 149.667 46.7754V86.7244C149.667 88.3348 148.28 89.6328 146.583 89.6328Z" fill="#2A2D2D"/>
<path d="M142.549 95.1372H136.022C134.865 95.1372 133.94 94.2479 133.94 93.1903V79.2971C133.94 78.2154 134.891 77.3501 136.022 77.3501H142.549C143.705 77.3501 144.63 78.2395 144.63 79.2971V93.1903C144.656 94.2719 143.705 95.1372 142.549 95.1372Z" fill="#2A2D2D"/>
<path d="M136.972 94.5844C136.972 108.67 127.618 116.89 111.325 117.107V117.179C97.2939 117.612 83.2626 116.674 74.371 108.43C66.5587 101.195 63.0381 88.8156 63.6548 70.5718L61.085 70.4996H63.6548C63.6548 51.751 57.7956 38.627 46.7196 32.5697C37.0057 27.2576 23.9766 27.8105 8.68611 34.1081C5.88499 32.2813 2.49281 30.5987 -1.43904 29.0844C-13.5943 24.4453 -29.6815 21.8734 -46.7709 21.8734V26.6808C-30.3239 26.6808 -14.9307 29.1085 -3.39211 33.5312C-0.950764 34.4686 1.25929 35.4782 3.21236 36.5358C2.08163 37.0886 0.925213 37.6655 -0.231213 38.2664L-0.179817 38.3386C-5.60216 41.6075 -8.66026 47.4965 -7.70942 53.2173C-6.80998 58.6496 -2.44127 62.4714 3.95761 63.4088L4.08611 62.5675V63.4329C12.2839 63.4329 18.4772 56.9189 18.4772 48.2897C18.4772 44.4919 16.6269 40.8384 13.1062 37.5213C25.7498 32.762 36.3375 32.4255 44.0984 36.68C53.504 41.8239 58.4895 53.5057 58.4895 70.4516C57.847 90.0655 61.8559 103.598 70.7219 111.819C79.7677 120.208 92.6939 122.058 106.031 122.058C108.421 122.058 110.837 121.986 113.253 121.914V121.866C122.427 121.433 129.622 118.717 134.659 113.79C139.542 109.03 142.112 102.396 142.112 94.5844H136.972ZM13.3632 48.3138C13.3632 54.0586 9.58555 58.4092 4.52298 58.6496C0.462643 57.9765 -2.08149 55.8132 -2.64685 52.5202C-3.23792 48.9628 -1.25915 44.1314 3.70063 41.8239L3.67493 41.7758C5.13974 41.0307 6.57884 40.3336 8.01795 39.6846C11.4872 42.4248 13.3632 45.3813 13.3632 48.3138Z" fill="black"/>
<path d="M271.374 117.852C270.732 118.068 270.064 118.285 269.37 118.477C266.646 119.198 263.665 119.558 260.787 119.534C258.345 119.51 255.955 119.198 253.771 118.621C250.636 121.578 247.552 123.861 245.83 124.991C243.414 126.553 240.999 127.755 238.66 128.596C236.347 129.413 234.06 129.894 231.799 130.014C229.64 130.135 227.481 129.942 225.374 129.413C223.447 128.933 221.494 128.188 219.566 127.154C212.499 123.38 206.589 116.458 200.858 109.776L205.587 106.242C210.957 112.516 216.508 119.006 222.573 122.251C228.895 125.616 235.191 125.015 242.412 120.328C243.569 119.582 245.625 118.068 247.886 116.097C246.216 115.04 244.854 113.766 243.826 112.299C242.798 110.809 242.104 109.151 241.821 107.372C241.538 105.545 241.641 103.598 242.181 101.555C242.721 99.4397 244.005 97.5408 245.856 96.0265C247.603 94.6324 249.762 93.695 251.946 93.3825C256.135 92.8056 259.938 94.5362 262.097 98.0216C262.894 99.3195 263.331 100.762 263.382 102.324C263.408 103.646 263.176 105.088 262.637 106.555C261.84 108.766 260.401 111.17 258.319 113.718C261.378 114.078 264.693 113.862 267.725 113.044C272.325 111.819 275.666 109.463 277.182 106.41C279.983 100.714 281.088 94.4882 282.27 87.8781C283.324 81.8689 284.429 75.6674 286.896 69.5621C288.464 65.6682 289.98 62.6636 291.599 60.1157C293.423 57.2553 295.531 54.8276 297.998 52.7124C300.49 50.5731 303.471 48.6742 307.146 46.8474C310.59 45.1408 314.702 43.4823 320.021 41.6315L322.103 46.8955C302.418 53.7219 297.664 58.7696 292.498 71.5331C290.237 77.1096 289.183 83.0467 288.181 88.7915C286.999 95.4737 285.765 102.396 282.63 108.766C281.448 111.17 279.598 113.261 277.131 114.967C275.435 116.145 273.507 117.107 271.374 117.852ZM251.689 99.2474C249.916 99.8724 248.426 101.291 248.014 102.901C246.781 107.732 249.171 110.449 252.126 111.987C252.486 111.602 252.846 111.194 253.18 110.785C255.03 108.574 256.289 106.579 256.932 104.824C257.523 103.165 257.523 101.891 256.906 100.882C255.75 99.0071 254.054 98.8148 252.82 98.983C252.435 99.0311 252.049 99.1272 251.689 99.2474Z" fill="#931640"/>
<path d="M271.631 116.89C270.989 117.107 270.321 117.323 269.627 117.515C266.903 118.236 263.922 118.597 261.044 118.573C258.602 118.549 256.212 118.236 254.028 117.66C250.893 120.616 247.809 122.9 246.087 124.029C243.672 125.592 241.256 126.794 238.917 127.635C236.604 128.452 234.317 128.933 232.056 129.053C229.897 129.173 227.739 128.981 225.631 128.452C223.704 127.971 221.751 127.226 219.824 126.193C212.756 122.419 206.846 115.496 201.115 108.814L205.844 105.281C211.215 111.554 216.765 118.044 222.83 121.289C229.152 124.654 235.448 124.053 242.669 119.366C243.826 118.621 245.882 117.107 248.143 115.136C246.473 114.078 245.111 112.804 244.083 111.338C243.055 109.848 242.361 108.189 242.078 106.41C241.796 104.584 241.898 102.637 242.438 100.594C242.978 98.4783 244.263 96.5794 246.113 95.0651C247.86 93.671 250.019 92.7335 252.203 92.4211C256.392 91.8442 260.196 93.5748 262.354 97.0601C263.151 98.3581 263.588 99.8003 263.639 101.363C263.665 102.685 263.434 104.127 262.894 105.593C262.097 107.805 260.658 110.208 258.577 112.756C261.635 113.117 264.95 112.9 267.982 112.083C272.582 110.857 275.923 108.502 277.439 105.449C280.24 99.7522 281.345 93.5267 282.527 86.9167C283.581 80.9075 284.686 74.706 287.153 68.6007C288.721 64.7067 290.237 61.7022 291.856 59.1543C293.68 56.2939 295.788 53.8662 298.255 51.751C300.748 49.6117 303.729 47.7128 307.403 45.886C310.847 44.1794 314.959 42.5209 320.278 40.67L322.36 45.9341C302.675 52.7605 297.921 57.8082 292.755 70.5717C290.494 76.1482 289.44 82.0853 288.438 87.83C287.256 94.5122 286.022 101.435 282.887 107.805C281.705 110.208 279.855 112.299 277.388 114.006C275.692 115.184 273.764 116.145 271.631 116.89ZM251.946 98.286C250.173 98.911 248.683 100.329 248.272 101.94C247.038 106.771 249.428 109.487 252.383 111.025C252.743 110.641 253.103 110.232 253.437 109.824C255.287 107.612 256.546 105.617 257.189 103.863C257.78 102.204 257.78 100.93 257.163 99.9205C256.007 98.0456 254.311 97.8533 253.077 98.0216C252.692 98.0697 252.306 98.1658 251.946 98.286Z" fill="#B21F54"/>
<path d="M254.028 117.636C254.028 117.636 257.497 114.174 258.577 112.78L259.553 112.876C259.553 112.876 256.29 116.554 255.262 117.924L254.028 117.636Z" fill="#7F0F3A"/>
<path d="M192.815 63.8415L187.598 67.5191L175.571 52.6163C175.057 51.9673 174.235 51.6549 173.438 51.7029C172.975 51.727 172.513 51.8712 172.102 52.1596C171.536 52.5442 171.228 53.1211 171.151 53.722C171.074 54.2989 171.228 54.8998 171.639 55.4046L183.28 69.8506L169.609 79.5134L157.968 65.0673C157.454 64.4184 156.631 64.1059 155.835 64.1539C155.372 64.178 154.909 64.3222 154.498 64.6106C153.933 64.9952 153.625 65.5721 153.547 66.173C153.47 66.7499 153.625 67.3508 154.036 67.8556L166.063 82.7584L160.82 86.46L162.208 88.1666L200.139 75.0666L192.815 63.8415Z" fill="#BBBABD"/>
<path d="M184.381 66.888L168.012 78.4409L170.581 81.6258L186.95 70.0729L184.381 66.888Z" fill="#DDDDDE"/>
<path d="M169.66 78.7201L157.274 63.3846C156.76 62.7357 155.937 62.4232 155.141 62.4712L168.761 79.3691L169.66 78.7201Z" fill="#A8AAAF"/>
<path d="M168.764 79.3451L155.144 62.4473C154.681 62.4713 154.218 62.6155 153.807 62.904C153.242 63.2886 152.934 63.8654 152.856 64.4664L166.271 81.0997L168.764 79.3451Z" fill="#EFF1F6"/>
<path d="M165.703 81.5085L166.268 81.1239L152.854 64.4905C152.777 65.0674 152.931 65.6683 153.342 66.173L165.703 81.5085Z" fill="#DDDDDE"/>
<path d="M187.29 66.2932L174.903 50.9337C174.389 50.2847 173.567 49.9722 172.77 50.0203L186.39 66.9181L187.29 66.2932Z" fill="#A8AAAF"/>
<path d="M186.393 66.9192L172.773 50.0214C172.31 50.0454 171.848 50.1896 171.436 50.4781C170.871 50.8626 170.563 51.4395 170.486 52.0404L183.9 68.6739L186.393 66.9192Z" fill="#EFF1F7"/>
<path d="M183.332 69.0813L183.897 68.6968L170.483 52.0634C170.406 52.6402 170.56 53.2412 170.971 53.7459L183.332 69.0813Z" fill="#F7F7F7"/>
<path d="M206.666 105.954L208.85 104.415C209.775 103.766 209.981 102.517 209.261 101.627C208.645 100.858 207.54 100.642 206.64 101.026L204.199 97.9977L201.912 75.0907L201.5 74.5859L162.799 88.9599L169.866 97.7092L192.789 106.05L195.23 109.079C194.562 109.776 194.51 110.833 195.127 111.578C195.821 112.444 197.157 112.636 198.108 111.963L200.704 110.136L206.666 105.954Z" fill="#931640"/>
<path d="M189.654 72.7831L181.148 79.6816L171.742 85.4264L169.224 96.0747L192.146 104.415L197.851 100.377L203.556 96.3631L201.269 73.4561L189.654 72.7831Z" fill="#B21F54"/>
<path d="M185.861 74.4559L174.456 82.5052L196.806 110.21L208.211 102.161L185.861 74.4559Z" fill="#FF2A66"/>
<path d="M208.593 99.9685C209.287 100.834 209.107 102.084 208.182 102.757L197.466 110.328C196.541 110.977 195.204 110.809 194.485 109.944C193.791 109.078 193.971 107.828 194.896 107.155L205.638 99.5839C206.563 98.9109 207.899 99.1032 208.593 99.9685Z" fill="#FF2A66"/>
<path d="M192.14 62.1645L160.099 84.7781L169.216 96.0787L201.256 73.4651L192.14 62.1645Z" fill="#FF2A66"/>
<g opacity="0.5">
<path opacity="0.5" d="M173.695 75.1627L188.96 94.1036C189.602 94.8969 190.605 95.2814 191.581 95.2334L174.774 74.3936L173.695 75.1627Z" fill="#931640"/>
<g opacity="0.5">
<path opacity="0.5" d="M174.8 74.3936L191.607 95.2335C192.172 95.2094 192.763 95.0171 193.252 94.6566C193.945 94.1758 194.331 93.4788 194.434 92.7336L177.884 72.2063L174.8 74.3936Z" fill="#B21F54"/>
<path opacity="0.5" d="M178.578 71.7495L177.884 72.2302L194.434 92.7576C194.536 92.0365 194.331 91.2913 193.842 90.6904L178.578 71.7495Z" fill="#FF5A96"/>
</g>
</g>
<path d="M172.461 87.782L171.305 88.5992L168.324 84.9457L167.168 85.7629L170.149 89.4165L170.997 90.4501L172.153 89.6328L173.309 88.8156L174.466 87.9983L173.618 86.9647L169.789 82.2776L168.632 83.0948L172.461 87.782Z" fill="black"/>
<path d="M171.639 81.6285L171.305 81.2199L170.149 82.0371L170.483 82.4458L171.331 83.4793L174.8 87.7579L175.956 86.9406L172.487 82.6621L173.644 81.8449L173.978 82.2535L175.134 81.4362L174.8 81.0276L173.952 79.994L172.796 80.8113L171.639 81.6285Z" fill="black"/>
<path d="M181.045 74.9222L179.657 75.9077L179.323 75.4991L178.166 76.3164L182.844 82.0611L184 81.2439L180.531 76.9654L181.918 75.9799L185.388 80.2584L186.544 79.4411L183.075 75.1626L182.227 74.129L181.045 74.9222Z" fill="black"/>
<mask id="mask0" mask-type="alpha" maskUnits="userSpaceOnUse" x="166" y="61" width="38" height="30">
<path d="M171.022 90.474L203.916 67.0623L199.239 61.3175L166.345 84.7293L171.022 90.474Z" fill="white"/>
</mask>
<g mask="url(#mask0)">
<path d="M179.477 79.1767L179.143 79.4171L178.038 78.071L177.19 77.0375L176.033 77.8547L175.108 78.5037L173.952 79.321L174.8 80.3545L177.781 84.0081L178.629 85.0417L179.785 84.2244L181.404 83.0707L182.561 82.2534L181.713 81.2199L179.837 78.9123L179.477 79.1767ZM175.956 79.5373L176.882 78.8883L177.987 80.2344L177.061 80.8833L175.956 79.5373ZM180.531 82.0611L178.912 83.2149L177.884 81.965L179.503 80.8112L180.531 82.0611Z" fill="black"/>
<path d="M190.964 68.1439C192.48 70.0188 192.994 71.7013 192.943 73.2637C192.892 74.8261 192.352 76.1481 191.761 77.1577C189.319 77.7826 185.67 77.7105 182.689 74.0329C184.154 72.0859 184.694 70.8841 185.233 69.7784C185.311 69.6102 185.336 69.514 185.413 69.3458C185.593 69.3217 185.722 69.3217 185.927 69.2977C187.187 69.1054 188.574 68.9371 190.964 68.1439Z" fill="black"/>
<path d="M187.72 73.8061C187.866 73.7017 187.895 73.5056 187.783 73.3683C187.671 73.2309 187.462 73.2043 187.315 73.3088C187.168 73.4132 187.14 73.6093 187.251 73.7466C187.363 73.884 187.573 73.9106 187.72 73.8061Z" fill="white"/>
<path d="M189.387 72.6198C189.534 72.5153 189.562 72.3192 189.45 72.1819C189.339 72.0445 189.129 72.0179 188.982 72.1223C188.835 72.2268 188.807 72.4229 188.919 72.5602C189.03 72.6976 189.24 72.7243 189.387 72.6198Z" fill="white"/>
<path d="M189.294 73.0235L188.728 73.4081L188.163 73.7927C188.086 73.8407 188.086 73.9609 188.137 74.009L188.189 74.0811C188.24 74.1532 188.369 74.1532 188.42 74.1051L188.985 73.7206L189.551 73.336C189.628 73.2879 189.628 73.1677 189.576 73.1196L189.525 73.0475C189.474 72.9754 189.345 72.9754 189.294 73.0235Z" fill="white"/>
<path d="M187.128 71.4759C187.275 71.3715 187.304 71.1754 187.192 71.0381C187.08 70.9007 186.871 70.8741 186.724 70.9785C186.577 71.083 186.548 71.2791 186.66 71.4164C186.772 71.5538 186.981 71.5804 187.128 71.4759Z" fill="white"/>
<path d="M187.165 71.3194L186.96 71.465L187.225 71.7902L187.429 71.6447L187.165 71.3194Z" fill="white"/>
<path d="M185.773 74.1772C185.439 74.4176 185.413 74.9464 185.67 75.2589C185.927 75.5714 186.416 75.6435 186.775 75.4031L185.773 74.1772Z" fill="white"/>
<path d="M190.245 71.0044C190.579 70.764 191.067 70.8121 191.35 71.1486C191.607 71.4611 191.607 71.9899 191.247 72.2302L190.245 71.0044Z" fill="white"/>
<path d="M191.121 73.4321L188.089 75.5954C187.883 75.7396 187.446 75.7396 187.24 75.4992L185.673 73.5522C185.467 73.2878 185.519 72.9513 185.776 72.759L188.731 70.6438C189.014 70.4515 189.374 70.4996 189.579 70.7399L191.147 72.6869C191.429 73.0234 191.327 73.2878 191.121 73.4321ZM186.058 73.0715C185.981 73.1196 185.981 73.2398 186.033 73.2878L187.6 75.2348C187.652 75.3069 187.78 75.3069 187.832 75.2589L190.787 73.1436C190.864 73.0955 190.864 72.9754 190.813 72.9273L189.245 70.9803C189.194 70.9082 189.065 70.9082 189.014 70.9563L186.058 73.0715Z" fill="white"/>
</g>
</g>
<defs>
<linearGradient id="paint0_linear" x1="108.085" y1="50.9388" x2="170.057" y2="50.9388" gradientUnits="userSpaceOnUse">
<stop stop-color="#EFEFEF"/>
<stop offset="0.4904" stop-color="#EDEDED"/>
<stop offset="0.667" stop-color="#E6E6E6"/>
<stop offset="0.793" stop-color="#DBDBDB"/>
<stop offset="0.8947" stop-color="#CACACA"/>
<stop offset="0.9809" stop-color="#B5B4B4"/>
<stop offset="1" stop-color="#AFAEAE"/>
</linearGradient>
<clipPath id="clip0">
<rect width="368" height="131" fill="white" transform="translate(-46)"/>
</clipPath>
</defs>
</svg>
