<svg width="15" height="15" viewBox="0 0 15 15" fill="none" xmlns="http://www.w3.org/2000/svg">
<g clip-path="url(#clip0)">
<path d="M15 12.5391H12.5391V15H11.3672V12.5391H8.90625V11.3672H11.3672V8.90625H12.5391V11.3672H15V12.5391ZM8.76869 6.54602C8.82019 6.77776 8.84766 7.01855 8.84766 7.26562C8.84766 8.27785 8.39081 9.18537 7.67269 9.79305C7.69318 9.80118 7.71389 9.80907 7.73438 9.81743V11.1123C7.10701 10.7705 6.38832 10.5762 5.625 10.5762V10.575C5.61527 10.5753 5.60543 10.5753 5.5957 10.5755V10.5762C3.15639 10.5762 1.17188 12.5607 1.17188 15H0C0 12.6747 1.42593 10.6763 3.44913 9.83265C2.70355 9.2252 2.22656 8.30006 2.22656 7.26562C2.22656 5.44018 3.71166 3.95508 5.53711 3.95508C5.75409 3.95508 5.96615 3.97625 6.17157 4.0163C6.12076 3.78651 6.09375 3.5479 6.09375 3.30311C6.09375 1.48178 7.57553 0 9.39686 0C11.2182 0 12.7 1.48178 12.7 3.30311C12.7 4.32541 12.233 5.24071 11.5014 5.84702C12.4686 6.23108 13.3022 6.87584 13.9127 7.70508H12.3351C11.6072 7.05986 10.6659 6.65039 9.63181 6.59775C9.5541 6.60324 9.47582 6.60622 9.39686 6.60622C9.18205 6.60622 8.97205 6.58539 8.76869 6.54602ZM7.26562 3.30311C7.26562 4.4783 8.22166 5.43434 9.39686 5.43434C10.5719 5.43434 11.5281 4.4783 11.5281 3.30311C11.5281 2.12791 10.5719 1.17188 9.39686 1.17188C8.22166 1.17188 7.26562 2.12791 7.26562 3.30311ZM7.67578 7.26562C7.67578 6.08631 6.71642 5.12695 5.53711 5.12695C4.3578 5.12695 3.39844 6.08631 3.39844 7.26562C3.39844 8.44494 4.3578 9.4043 5.53711 9.4043C6.71642 9.4043 7.67578 8.44494 7.67578 7.26562Z" fill="#2E2E2E"/>
</g>
<defs>
<clipPath id="clip0">
<rect width="15" height="15" fill="white"/>
</clipPath>
</defs>
</svg>
