<svg width="15" height="15" viewBox="0 0 15 15" fill="none" xmlns="http://www.w3.org/2000/svg">
<path d="M11.7188 15H3.28125C2.50626 15 1.875 14.3694 1.875 13.5938V7.03125C1.875 6.25557 2.50626 5.625 3.28125 5.625H11.7188C12.4937 5.625 13.125 6.25557 13.125 7.03125V13.5938C13.125 14.3694 12.4937 15 11.7188 15ZM3.28125 6.5625C3.02307 6.5625 2.8125 6.7725 2.8125 7.03125V13.5938C2.8125 13.8525 3.02307 14.0625 3.28125 14.0625H11.7188C11.9769 14.0625 12.1875 13.8525 12.1875 13.5938V7.03125C12.1875 6.7725 11.9769 6.5625 11.7188 6.5625H3.28125Z" fill="#C4C4C4"/>
<path d="M10.7812 6.5625C10.5225 6.5625 10.3125 6.3525 10.3125 6.09375V3.75C10.3125 2.19933 9.05067 0.9375 7.5 0.9375C5.94933 0.9375 4.6875 2.19933 4.6875 3.75V6.09375C4.6875 6.3525 4.4775 6.5625 4.21875 6.5625C3.96 6.5625 3.75 6.3525 3.75 6.09375V3.75C3.75 1.68182 5.43182 0 7.5 0C9.56818 0 11.25 1.68182 11.25 3.75V6.09375C11.25 6.3525 11.04 6.5625 10.7812 6.5625Z" fill="#C4C4C4"/>
</svg>
