<?xml version="1.0" encoding="UTF-8"?>
<svg width="161px" height="30px" viewBox="0 0 161 30" version="1.1" xmlns="http://www.w3.org/2000/svg" xmlns:xlink="http://www.w3.org/1999/xlink">
    <!-- Generator: Sketch 51.1 (57501) - http://www.bohemiancoding.com/sketch -->
    <title>Logo</title>
    <desc>Created with Sketch.</desc>
    <defs>
        <polygon id="path-1" points="0 30 160.85251 30 160.85251 0 0 0"></polygon>
    </defs>
    <g id="Symbols" stroke="none" stroke-width="1" fill="none" fill-rule="evenodd">
        <g id="header">
            <g id="Logo">
                <g id="Page-1">
                    <path d="M117.339952,2.19567273 L107.609585,29.9882182 L103.512529,29.9882182 L93.7292462,2.19567273 L96.5805224,2.19567273 L104.045631,24.8724 C104.268554,25.5444 104.575917,26.5507636 104.967722,27.8936727 L106.100351,27.8936727 C106.491592,26.5507636 106.798956,25.5444 107.023005,24.8724 L114.488113,2.19567273 L117.339952,2.19567273 Z" id="Fill-1" fill="#000000"></path>
                    <path d="M121.761542,16.5751091 L128.681727,16.5751091 C131.0303,16.5483818 132.651559,16.1120182 133.546629,15.2660182 C134.440573,14.4200182 134.888108,12.7891091 134.888108,10.3722 C134.888108,7.92856364 134.440573,6.27747273 133.546629,5.41729091 C132.651559,4.55874545 131.0303,4.12892727 128.681727,4.12892727 C126.305007,4.12892727 123.998653,4.15565455 121.761542,4.20910909 L121.761542,16.5751091 Z M119.035237,29.9883818 L119.035237,2.19583636 C121.356227,1.98092727 124.585797,1.87347273 128.723384,1.87347273 C132.106073,1.87347273 134.447891,2.47129091 135.748276,3.66583636 C137.048098,4.86038182 137.69829,7.0962 137.69829,10.3722 C137.69829,13.6487455 137.062171,15.8834727 135.790496,17.0785636 C134.517133,18.2736545 132.259755,18.8709273 129.017237,18.8709273 C126.584223,18.8709273 124.165846,18.7640182 121.761542,18.5485636 L121.761542,29.9883818 L119.035237,29.9883818 Z" id="Fill-3" fill="#000000"></path>
                    <path d="M160.852116,2.19567273 L160.852116,29.9882182 L155.78906,29.9882182 L144.412102,7.99549091 C143.377424,5.92821818 142.832501,4.81330909 142.77677,4.6524 L141.980777,4.6524 C142.035382,5.37730909 142.063529,6.49167273 142.063529,7.99549091 L142.063529,29.9882182 L139.337788,29.9882182 L139.337788,2.19567273 L144.664298,2.19567273 L155.442291,23.7045818 C156.308651,25.3698545 156.951526,26.6184 157.370914,27.4507636 L158.25191,27.4507636 C158.168033,26.1356727 158.126375,24.8058545 158.126375,23.4629455 L158.126375,2.19567273 L160.852116,2.19567273 Z" id="Fill-5" fill="#000000"></path>
                    <polygon id="Fill-7" fill="#FF0066" points="11.2587413 24.5454545 5.62937063 24.5454545 5.62937063 5.45454545 0 5.45454545 0 24.5454545 0 30 5.62937063 30 11.2587413 30 16.8881119 30 16.8881119 24.5454545 16.8881119 0 11.2587413 0"></polygon>
                    <polygon id="Fill-9" fill="#FF0066" points="24.2062937 2.18181818 24.2062937 0 18.5769231 0 18.5769231 2.18181818 18.5769231 7.63636364 18.5769231 30 24.2062937 30 24.2062937 7.63636364 29.8356643 7.63636364 29.8356643 9.81818182 35.465035 9.81818182 35.465035 7.63636364 35.465035 2.18181818 29.8356643 2.18181818"></polygon>
                    <polygon id="Fill-11" fill="#FF0066" points="91.1958042 2.18181818 84.4405594 2.18181818 84.4405594 0 78.8111888 0 78.8111888 30 84.4405594 30 84.4405594 7.63636364 91.1958042 7.63636364 91.1958042 30 96.8251748 30 96.8251748 7.63636364 96.8251748 2.18181818"></polygon>
                    <mask id="mask-2" fill="white">
                        <use xlink:href="#path-1"></use>
                    </mask>
                    <g id="Clip-14"></g>
                    <path d="M63.6118881,24.5454545 L71.493007,24.5454545 L71.493007,18 L63.6118881,18 L63.6118881,24.5454545 Z M71.493007,2.18181818 L61.3601399,2.18181818 L61.3601399,7.63636364 L71.493007,7.63636364 L71.493007,12.5454545 L63.6118881,12.5454545 L59.1083916,12.5454545 L57.9825175,12.5454545 L57.9825175,24.5454545 L57.9825175,30 L63.6118881,30 L71.493007,30 L77.1223776,30 L77.1223776,24.5454545 L77.1223776,18 L77.1223776,12.5454545 L77.1223776,2.18181818 L75.9965035,2.18181818 L71.493007,2.18181818 Z" id="Fill-13" fill="#FF0066" mask="url(#mask-2)"></path>
                    <path d="M42.7832168,24.5454545 L50.6643357,24.5454545 L50.6643357,18 L42.7832168,18 L42.7832168,24.5454545 Z M42.7832168,12.5454545 L47.2867133,12.5454545 L47.2867133,5.45454545 L42.7832168,5.45454545 L42.7832168,12.5454545 Z M52.9160839,12.5454545 L52.9160839,5.45454545 L52.9160839,0 L47.2867133,0 L42.7832168,0 L37.1538462,0 L37.1538462,5.45454545 L37.1538462,24.5454545 L37.1538462,30 L42.7832168,30 L50.6643357,30 L56.2937063,30 L56.2937063,24.5454545 L56.2937063,12.5454545 L54.6048951,12.5454545 L52.9160839,12.5454545 Z" id="Fill-15" fill="#FF0066" mask="url(#mask-2)"></path>
                </g>
            </g>
        </g>
    </g>
</svg>