<svg width="110" height="110" viewBox="0 0 110 110" fill="none" xmlns="http://www.w3.org/2000/svg">
    <path d="M2.41558 59.609C5.10225 52.7275 11.9801 45.0689 19.9327 48.3987C29.7121 52.5055 29.9271 67.8226 26.5956 76.2581C23.9089 83.1397 17.0311 90.6872 9.18598 87.3574C-0.700956 83.3616 -1.02336 68.1555 2.41558 59.609Z" fill="#90908F"/>
    <path d="M16.0638 48.0657C13.629 48.1237 11.2833 49.0225 9.40089 50.6185C6.47348 53.0701 4.18355 56.2362 2.73795 59.831C0.999545 64.6867 0.481897 69.9185 1.23342 75.0371C1.87822 79.2548 3.81262 84.6935 9.18596 86.9134C10.8813 87.5743 12.714 87.7684 14.504 87.4765C16.2939 87.1846 17.9796 86.4168 19.3953 85.2485C22.3183 82.8638 24.5798 79.7241 25.9508 76.147C27.747 71.2666 28.266 65.9835 27.4553 60.8299C26.8105 56.6122 24.8761 51.1735 19.5028 48.9536C18.4526 48.349 17.266 48.0426 16.0638 48.0657ZM12.9473 88.6893C11.5855 88.7008 10.2347 88.4368 8.97102 87.9123C4.45742 86.0254 1.44835 81.5857 0.373685 75.3701C-0.455479 70.0618 0.100973 64.6212 1.98569 59.609C3.36816 55.7636 5.74746 52.3847 8.86355 49.8416C12.41 47.0667 16.2788 46.4008 20.0401 47.9547C24.5537 49.8416 27.5628 54.2813 28.53 60.6079C29.3531 65.953 28.7971 71.4277 26.918 76.48C25.4661 80.2243 23.0958 83.5139 20.0401 86.0254C18.0212 87.6899 15.5299 88.6256 12.9473 88.6893Z" fill="#17202D"/>
    <path d="M7.14416 60.164C9.83082 53.2824 16.7087 45.6239 24.6612 48.9537C34.4407 53.0604 34.6556 68.3775 31.3242 76.813C28.6375 83.6946 21.7596 91.2422 13.9146 87.9124C4.02762 83.8056 3.70522 68.5995 7.14416 60.164Z" fill="#90908F"/>
    <path d="M7.5739 60.275C4.13497 69.0435 4.88724 83.6946 14.0219 87.4684C15.7173 88.1293 17.55 88.3234 19.3399 88.0315C21.1299 87.7396 22.8155 86.9718 24.2312 85.8035C27.1806 83.3992 29.4457 80.2161 30.7867 76.591C34.2257 67.7115 33.4734 53.0604 24.3387 49.2866C22.6386 48.6134 20.7949 48.423 18.9993 48.7353C17.2038 49.0477 15.5222 49.8513 14.1294 51.0625C11.2029 53.4895 8.9428 56.6657 7.5739 60.275ZM17.6758 89.1333C16.314 89.1448 14.9631 88.8808 13.6995 88.3563C9.18591 86.4694 6.17684 82.0297 5.10217 75.8141C4.27899 70.469 4.83501 64.9943 6.71417 59.942C8.19394 56.1529 10.6009 52.8255 13.6995 50.2856C17.2459 47.5107 21.1147 46.8448 24.876 48.3987C29.3897 50.2856 32.3987 54.7253 33.3659 61.0519C34.1948 66.3968 33.6386 71.8731 31.7539 76.924C30.3021 80.6683 27.9318 83.9579 24.876 86.4694C22.8105 88.1241 20.2888 89.057 17.6758 89.1333Z" fill="#17202D"/>
    <path d="M9.7233 60.497C12.41 53.6154 19.2878 45.9569 27.2404 49.2867C37.0198 53.3934 37.2348 68.7105 33.9033 77.146C31.2166 84.0276 24.3388 91.5752 16.4937 88.2454C6.71423 84.2496 6.39183 69.0435 9.7233 60.497Z" fill="#17202D"/>
    <path d="M23.479 48.9537C21.0443 49.0117 18.6985 49.9105 16.8161 51.5065C13.8887 53.958 11.5988 57.1242 10.1532 60.719C6.71423 69.4874 7.46649 84.1386 16.6012 87.9123C18.2965 88.5733 20.1292 88.7673 21.9192 88.4754C23.7091 88.1835 25.3948 87.4157 26.8105 86.2474C29.7924 83.8506 32.0941 80.6682 33.4734 77.035C35.2697 72.1546 35.7887 66.8714 34.978 61.7179C34.3332 57.5001 32.3988 52.0615 27.0254 49.8416C25.9318 49.2495 24.7138 48.9445 23.479 48.9537ZM20.3625 89.6882C19.0007 89.6997 17.6499 89.4358 16.3862 88.9113C11.8726 87.0244 8.86356 82.5847 7.7889 76.258C6.91914 70.9231 7.43839 65.4453 9.29343 60.386L9.7233 60.608L9.29343 60.386C10.7446 56.5803 13.1567 53.2459 16.2788 50.7295C19.8252 47.9547 23.694 47.2887 27.4553 48.8427C31.9689 50.7295 34.978 55.1693 36.0526 61.4959C36.8815 66.8408 36.3253 72.3171 34.4406 77.368C32.9888 81.1123 30.6185 84.4019 27.5628 86.9134C25.5048 88.5971 22.9853 89.568 20.3625 89.6882Z" fill="#17202D"/>
    <path d="M91.3979 48.9536C91.881 49.0352 92.351 49.1846 92.795 49.3976C93.5166 49.7093 94.1733 50.1615 94.7294 50.7295C95.1696 51.211 95.4882 51.797 95.6569 52.4359C95.8256 53.0748 95.8392 53.7467 95.6966 54.3923C95.0518 58.2771 93.2248 63.4938 92.1502 67.3786L88.6038 79.6988C86.132 88.2453 90.1083 97.9018 86.9918 106.004C86.7388 106.839 86.2939 107.598 85.695 108.217C85.0962 108.835 84.3611 109.295 83.5528 109.556C80.8662 110.222 39.384 103.784 33.3659 102.674C27.1327 101.417 20.9921 99.7104 14.9891 97.5688C16.3861 93.573 17.8907 89.6882 19.3952 85.8035C22.7267 77.479 26.1656 69.1545 29.4971 60.8299C30.8941 57.2782 32.2912 53.7264 33.4734 50.1746L36.5899 49.8416C36.6973 49.5086 36.8048 49.0646 36.9123 48.7317C39.1691 42.849 45.7246 44.6249 50.4531 45.2909C52.28 45.5128 54.2144 45.8458 56.0414 45.9568C59.8027 46.4008 64.1014 44.2919 67.6478 44.6249C70.227 44.8469 72.8062 45.5128 75.3854 45.9568C80.7587 46.7338 86.132 47.7327 91.3979 48.9536Z" fill="#90908F"/>
    <path d="M15.7414 97.1248C21.5546 99.2338 27.5195 100.867 33.5809 102.008C40.4587 103.229 81.0812 109.556 83.5529 108.89C84.95 108.557 85.9172 107.447 86.6694 105.671C88.2814 101.565 87.959 97.0138 87.6366 92.2411C87.3142 88.0233 87.0993 83.5836 88.2814 79.4768C88.9262 77.3679 89.571 75.1481 90.1084 73.0392C90.6457 70.9303 91.2905 69.1544 91.8278 67.1566C92.1502 66.0466 92.4726 64.9367 92.9025 63.6048C93.9354 60.5224 94.7613 57.3701 95.3742 54.1703C95.4983 53.6022 95.4848 53.0112 95.3348 52.4497C95.1848 51.8882 94.9031 51.3736 94.5145 50.9515C93.9832 50.4323 93.3639 50.0184 92.6876 49.7306C92.2436 49.5176 91.7736 49.3682 91.2905 49.2866L90.8606 49.1756V49.0646C86.562 48.1767 81.0812 47.0668 75.3854 46.0678C74.6596 45.9734 73.9413 45.825 73.2361 45.6238C71.391 45.2197 69.5252 44.9232 67.6478 44.7359C65.7979 44.6463 63.9463 44.8713 62.167 45.4019C60.1702 45.9462 58.1042 46.1708 56.0414 46.0678C54.5369 45.9568 53.0323 45.7348 51.6353 45.5128L50.4531 45.4019C49.9158 45.2909 49.3785 45.2909 48.8411 45.1799C44.3275 44.5139 39.2766 43.737 37.3422 48.6207L37.0198 49.6196L36.9123 49.9526L33.7958 50.3966C32.6137 53.6154 31.4315 56.9452 29.927 60.8299C28.315 65.0477 26.5955 69.2654 24.8761 73.3722C23.1566 77.4789 21.4371 81.6967 19.8251 85.9144C18.2131 90.1322 16.9235 93.684 15.7414 97.1248ZM83.0156 109.889C76.5676 109.889 38.8467 103.895 33.4734 103.007C27.2072 101.739 21.0316 100.034 14.9891 97.9017L14.5593 97.7907L14.7742 97.3468C16.0638 93.795 17.4609 90.0212 19.1803 85.5815C20.7923 81.3637 22.5118 77.146 24.2313 73.0392C25.9507 68.9325 27.6702 64.7147 29.2822 60.6079C30.7867 56.7232 32.1838 53.1714 33.2585 49.9526L33.3659 49.7306L36.4825 49.3976C36.5899 49.0646 36.6974 48.8426 36.8049 48.5097C38.9542 42.96 44.6499 43.8479 49.271 44.5139C49.8083 44.6249 50.3457 44.6249 50.7755 44.7359L51.9577 44.8469C53.3548 45.0689 54.8593 45.2909 56.3638 45.4019C58.3203 45.5044 60.28 45.2795 62.167 44.7359C64.054 44.1923 66.0137 43.9674 67.9702 44.0699C69.7971 44.2919 71.7316 44.6249 73.5585 44.9579C74.3108 45.0689 74.9556 45.2909 75.7078 45.4019C81.6185 46.5118 87.3142 47.6217 91.7204 48.5097L92.1502 48.6207V48.7317L93.2249 49.0646C94.0307 49.386 94.7627 49.8775 95.3742 50.5075C95.853 51.0568 96.1998 51.7149 96.3865 52.4284C96.5732 53.1418 96.5946 53.8907 96.4489 54.6143C95.8367 57.8506 95.0109 61.0399 93.9772 64.1597C93.5473 65.3807 93.2249 66.6016 92.9025 67.6005C92.3652 69.5984 91.8278 71.4853 91.183 73.4832C90.5382 75.4811 89.8934 77.8119 89.3561 79.9208C88.174 83.9166 88.4964 88.2453 88.8188 92.3521C89.1412 97.0138 89.4636 101.897 87.7441 106.226C87.469 107.128 86.9812 107.945 86.3247 108.603C85.6681 109.262 84.8634 109.742 83.9828 110C83.6684 109.908 83.3417 109.871 83.0156 109.889Z" fill="#17202D"/>
    <path d="M72.1615 45.5128C74.2034 46.4008 75.6004 47.8437 75.278 50.2855C74.7407 54.1703 73.881 58.0551 73.1287 61.8288C71.5167 69.8204 69.6898 77.8119 68.0778 85.8034C67.3255 89.6882 66.3583 96.2368 64.9612 99.6776C64.5619 100.71 63.9034 101.615 63.0535 102.298C62.2035 102.98 61.1928 103.417 60.1252 103.562C59.2329 103.673 58.3309 103.673 57.4386 103.562C49.8084 102.785 42.2858 101.453 34.7631 100.233C31.2167 99.6776 16.4937 98.0127 14.3444 97.0137C13.6559 96.6831 13.0645 96.17 12.6303 95.5266C12.1962 94.8832 11.9348 94.1326 11.8727 93.351C11.6577 91.1311 16.9236 43.5149 17.4609 42.072C17.8583 41.1396 18.5032 40.3424 19.321 39.7727C20.1388 39.2031 21.0961 38.8843 22.082 38.8532C25.6284 38.4092 41.7484 41.1841 46.3695 41.85C53.7847 42.849 61.3074 43.6259 68.7226 44.6249C69.902 44.7619 71.0584 45.0605 72.1615 45.5128Z" fill="#A9A9A9"/>
    <path d="M23.1566 39.4082H22.2968C21.3962 39.4492 20.5225 39.7385 19.7666 40.2459C19.0107 40.7534 18.4001 41.4606 17.9982 42.2941C17.3534 44.0699 12.195 91.3531 12.4099 93.351C12.4551 94.0375 12.6786 94.6987 13.0568 95.2651C13.435 95.8315 13.954 96.2822 14.5592 96.5698C16.1712 97.2358 24.9835 98.3457 30.3568 99.1227C31.8715 99.2644 33.378 99.4867 34.8704 99.7887C36.9123 100.122 38.8467 100.455 40.8886 100.677C46.3694 101.565 51.9576 102.452 57.5459 103.007C58.4023 103.119 59.2688 103.119 60.1251 103.007C61.1098 102.86 62.0382 102.443 62.8132 101.798C63.5883 101.154 64.1816 100.307 64.5312 99.3447C65.6187 95.9392 66.4451 92.4506 67.003 88.9113C67.2179 87.6904 67.4328 86.5804 67.6478 85.5815C68.615 80.6978 69.6896 75.7031 70.7643 70.8194L72.6987 61.4959L73.0211 59.942C73.6659 56.7232 74.4182 53.2824 74.848 50.0636C75.063 48.0657 74.2032 46.7338 71.9464 45.8458C70.9832 45.444 69.9704 45.1825 68.9374 45.0689C65.6059 44.6249 62.2744 44.2919 59.0504 43.848C54.9667 43.404 50.7755 42.849 46.5843 42.2941C45.5096 42.1831 43.8976 41.8501 42.0707 41.6281C36.2675 40.8511 26.8104 39.4082 23.1566 39.4082ZM58.8355 104.117C58.4029 104.136 57.9697 104.098 57.5459 104.006C51.9576 103.451 46.2619 102.563 40.7811 101.676C38.7392 101.343 36.8048 101.01 34.763 100.788C33.9032 100.677 32.1838 100.455 30.2494 100.122C22.7267 99.1227 15.7414 98.2347 14.2368 97.5688C13.4671 97.205 12.8093 96.6293 12.3354 95.9049C11.8615 95.1805 11.5898 94.3353 11.5502 93.462C11.3352 91.2422 16.6011 43.515 17.2459 41.9611C17.6758 40.9448 18.3817 40.0789 19.2781 39.4683C20.1745 38.8576 21.223 38.5283 22.2968 38.5203C25.091 38.1873 35.4078 39.7412 42.1782 40.8511C44.0051 41.1841 45.7246 41.4061 46.6918 41.5171C50.883 42.0721 55.0742 42.627 59.1579 43.071C62.3819 43.404 65.8208 43.848 69.0448 44.2919C70.1474 44.4068 71.231 44.6679 72.2688 45.0689C74.848 46.1788 76.0302 47.9547 75.7078 50.2856C75.2779 53.6154 74.5257 56.9452 73.8809 60.275L73.5584 61.8289L71.624 71.1523C70.5494 75.9251 69.5822 80.9198 68.5075 85.9145C68.2926 86.9134 68.0776 88.0233 67.8627 89.2443C67.2905 92.8534 66.4644 96.4146 65.391 99.8996C64.9829 101.02 64.2872 102.005 63.3784 102.748C62.4696 103.491 61.3821 103.964 60.2326 104.117H58.8355Z" fill="#17202D"/>
    <path d="M76.0302 70.8193C79.1468 62.9388 87.4217 53.8373 96.4489 57.6111C107.196 62.0508 106.766 79.0328 103.112 88.2453C100.103 96.0148 92.4726 104.894 83.4454 101.121C72.5913 96.5698 72.2689 80.1428 76.0302 70.8193Z" fill="#7B7A7A"/>
    <path d="M76.0302 70.8194L76.46 71.0414C74.4927 76.3417 73.9 82.0808 74.7406 87.6904C75.4929 92.2412 77.6422 98.1238 83.5529 100.566C85.485 101.327 87.5785 101.543 89.6182 101.191C91.658 100.84 93.5704 99.9348 95.1593 98.5678C98.4895 95.7913 101.048 92.1531 102.574 88.0234C106.336 78.367 106.228 62.162 96.1265 58.0552C91.183 55.9463 86.8843 58.0552 84.0902 60.2751C80.648 63.1332 77.9514 66.834 76.2451 71.0414L76.0302 70.8194ZM87.7441 102.453C86.2013 102.427 84.6744 102.126 83.2305 101.565C76.8899 98.9008 74.6331 92.6852 73.7734 87.9124C72.879 82.1212 73.472 76.1889 75.4929 70.7084C77.2334 66.3066 80.0471 62.4446 83.6603 59.4981C87.8515 56.1683 92.3651 55.3914 96.5563 57.1672C102.897 59.8311 104.939 66.1577 105.584 71.1524C106.263 77.0097 105.562 82.9498 103.542 88.4674C101.934 92.7643 99.2668 96.5524 95.8041 99.4558C93.4789 101.285 90.6649 102.332 87.7441 102.453Z" fill="#17202D"/>
    <path d="M80.114 71.2633C83.2305 63.3828 91.5055 54.1703 100.64 57.9441C111.494 62.3839 110.742 79.5878 107.196 88.6893C104.187 96.4588 96.5564 105.338 87.5292 101.565C76.675 97.1248 76.3526 80.6978 80.114 71.2633Z" fill="#90908F"/>
    <path d="M96.3414 57.5001C93.4319 57.6049 90.6368 58.6971 88.3889 60.6079C84.9202 63.485 82.2199 67.229 80.5439 71.4853C78.5704 76.8228 77.9778 82.5992 78.8244 88.2453C79.5767 92.7961 81.726 98.7897 87.6366 101.232C96.4489 104.894 103.864 95.6819 106.658 88.5783C108.677 83.2151 109.379 77.4188 108.7 71.7073C108.163 67.0456 106.228 60.9409 100.318 58.4991C99.0796 57.868 97.7219 57.5269 96.3414 57.5001ZM91.7204 103.007C90.2136 102.971 88.7238 102.67 87.3143 102.119C76.3527 97.5688 75.8153 80.9197 79.6841 71.1523C81.3961 66.7337 84.2149 62.8647 87.8516 59.942C92.0428 56.6122 96.5564 55.8352 100.855 57.6111C107.196 60.275 109.237 66.7126 109.775 71.5963C110.417 77.4625 109.68 83.4022 107.625 88.9113C105.046 95.1269 99.1356 103.007 91.7204 103.007Z" fill="#17202D"/>
    <path d="M89.1413 72.9282C91.1831 67.8225 96.6639 60.164 103.004 62.8278C111.064 66.1576 109.667 80.8087 107.088 87.3573C105.046 92.463 99.9954 99.7886 93.7623 97.2358C85.5949 93.906 86.4546 79.6988 89.1413 72.9282Z" fill="#A9A9A9"/>
    <path d="M89.571 73.1502C86.9918 79.6989 86.2396 93.684 93.8697 96.7919C96.4489 97.9018 99.1356 97.2358 101.607 94.794C103.77 92.639 105.457 90.0264 106.551 87.1354C108.059 82.8758 108.717 78.3452 108.485 73.8162C108.27 69.9314 106.981 64.9367 102.682 63.1608C99.3505 61.8289 96.4489 63.4938 94.622 65.1587C92.4911 67.4907 90.7806 70.197 89.571 73.1502ZM96.234 98.2348C95.2792 98.2114 94.3349 98.0238 93.4398 97.6798C85.1649 94.239 85.9172 79.8098 88.7113 72.8173C89.8996 69.7109 91.7768 66.9357 94.1921 64.7147C97.0937 62.0509 100.21 61.2739 103.219 62.4949C107.948 64.4928 109.237 69.8204 109.56 73.9272C109.796 78.5653 109.139 83.2057 107.625 87.5794C106.498 90.604 104.737 93.3332 102.467 95.5709C100.75 97.1757 98.5472 98.117 96.234 98.2348Z" fill="#17202D"/>
    <path d="M97.5236 76.1471C98.3833 74.0383 100.533 70.9304 103.112 72.0404C106.443 73.3723 105.906 79.3659 104.831 82.1408C103.972 84.2497 101.822 87.2465 99.3505 86.2475C96.019 84.8046 96.4489 78.922 97.5236 76.1471Z" fill="#626060"/>
    <path d="M102.037 72.2623C101.257 72.3088 100.524 72.667 99.9953 73.2613C99.1117 74.1383 98.416 75.197 97.9534 76.3691C97.3852 78.0815 97.1301 79.8881 97.2012 81.6968C97.3086 83.1397 97.846 85.1376 99.458 85.8036C99.9605 85.9958 100.508 86.0244 101.027 85.8855C101.546 85.7466 102.011 85.4468 102.36 85.0266C103.184 84.141 103.873 83.1304 104.401 82.0298C104.97 80.3174 105.225 78.5108 105.154 76.7021C105.046 75.1482 104.616 73.2613 102.897 72.5953C102.663 72.3734 102.355 72.254 102.037 72.2623ZM100.425 86.9135C100.022 86.9037 99.6234 86.8288 99.243 86.6915C97.631 86.0255 96.6638 84.3606 96.4489 81.8078C96.179 80.1444 96.3018 78.4383 96.8069 76.8344C97.3121 75.2305 98.1847 73.7763 99.3505 72.5953C99.8402 72.0367 100.481 71.6429 101.19 71.4648C101.899 71.2867 102.643 71.3325 103.327 71.5964C104.939 72.2623 105.906 74.0382 106.121 76.5911C106.294 78.5586 105.999 80.54 105.261 82.3628C104.725 83.6462 103.96 84.8136 103.004 85.8036C102.282 86.4486 101.378 86.8376 100.425 86.9135Z" fill="#17202D"/>
    <path d="M100.103 76.924C100.748 75.2591 102.574 72.5953 104.724 73.4832C107.411 74.5931 106.981 79.5878 106.121 81.8077C105.476 83.4726 103.649 86.0254 101.607 85.2485C98.8132 84.0276 99.1356 79.1439 100.103 76.924Z" fill="#90908F"/>
    <path d="M103.864 73.8162C102.36 73.8162 101.07 75.7031 100.533 77.146C99.9953 78.517 99.8102 80.0081 99.9953 81.4748C99.9848 82.1476 100.149 82.8111 100.47 83.3966C100.791 83.9821 101.258 84.4682 101.822 84.8046C103.757 85.5815 105.369 82.8067 105.799 81.6967C106.658 79.5879 106.981 75.0371 104.616 74.0382C104.398 73.8765 104.132 73.7981 103.864 73.8162ZM102.36 85.8035C101.994 85.7728 101.634 85.6983 101.285 85.5815C99.8879 85.0265 99.1356 83.5836 98.9207 81.4748C98.8022 79.8545 99.0221 78.2269 99.5655 76.702C100.318 74.7042 102.36 72.0403 104.724 73.0393C106.121 73.5942 106.873 75.0371 107.088 77.146C107.149 78.7638 106.931 80.3799 106.443 81.9187C105.906 83.3616 104.401 85.8035 102.36 85.8035Z" fill="#17202D"/>
    <path d="M85.0575 59.165C85.7023 55.5023 88.2815 43.9589 87.8517 40.9621C87.7351 39.8242 87.3245 38.7395 86.6627 37.8218C86.001 36.904 85.1125 36.1868 84.0903 35.7454C83.1518 35.4066 82.1779 35.1831 81.1887 35.0795C69.9047 33.8585 58.7282 32.6376 47.4442 30.9727C43.8978 30.4177 23.1567 27.7539 20.8999 26.755C20.7925 26.755 21.1149 25.978 21.1149 25.867C21.2223 25.534 21.3298 25.2011 21.4373 24.7571C31.6466 26.089 41.8559 27.5319 52.0653 28.8638C59.2655 29.8628 66.5733 30.6397 73.7735 31.5277C77.8573 32.0826 82.2634 32.3046 86.2397 33.4146C86.6496 33.5129 87.0465 33.662 87.4218 33.8585C88.3821 34.2251 89.2388 34.8332 89.9143 35.6278C90.5898 36.4224 91.0629 37.3784 91.2906 38.4093C92.0429 41.8501 89.3562 55.1693 88.6039 59.498C89.3077 58.9716 90.0643 58.525 90.8607 58.1661C88.2815 59.72 88.1741 59.276 85.0575 59.165Z" fill="#A9A9A9"/>
    <path d="M85.5947 58.7211C85.9564 58.697 86.3195 58.7345 86.6694 58.832C87.2413 58.888 87.817 58.888 88.3889 58.832C88.4963 58.0551 88.7113 57.1671 88.8187 56.1682C89.7859 50.6185 91.5054 41.2951 90.8606 38.6312C90.6404 37.686 90.2032 36.8093 89.586 36.0752C88.9688 35.3411 88.1896 34.7712 87.3142 34.4135L86.2395 34.0805C83.0811 33.3834 79.8882 32.8647 76.675 32.5266L73.7734 32.1936L68.1851 31.5277C62.9193 30.8617 57.4385 30.1957 52.0651 29.5298C48.5187 29.0858 44.8649 28.5308 41.3185 28.0869C34.9779 27.1989 28.4225 26.2 21.867 25.423C21.7595 25.645 21.7595 25.756 21.6521 25.978L21.5446 26.2V26.311C21.5332 26.3951 21.4955 26.4731 21.4371 26.533C24.3387 27.4209 38.0945 29.3078 44.2201 30.0848C45.7246 30.3067 46.9067 30.4177 47.5515 30.5287C58.2982 32.0826 69.1523 33.3036 79.7915 34.5245L81.2961 34.6355C82.3237 34.7156 83.336 34.9396 84.3051 35.3014C85.4032 35.7662 86.361 36.5258 87.079 37.5017C87.7971 38.4775 88.2494 39.634 88.3889 40.8511C88.7113 43.404 87.0993 51.0625 86.1321 56.1682C85.9171 57.1671 85.8097 58.0551 85.5947 58.7211ZM88.7113 60.053C88.6038 60.053 88.4963 60.053 88.4963 59.942L88.2814 59.72H86.6694C86.2395 59.72 85.7022 59.609 85.1649 59.609C85.0574 59.609 84.9499 59.498 84.8425 59.387C84.735 59.276 84.735 59.165 84.735 58.943C84.8425 58.1661 85.0574 57.1671 85.3798 55.8352C86.347 51.0625 87.8515 43.182 87.6366 40.7401C87.5523 39.6767 87.1729 38.6609 86.5439 37.8144C85.9149 36.9679 85.063 36.3266 84.0902 35.9674C83.2334 35.6033 82.327 35.3787 81.4035 35.3014L79.6841 35.4124C69.1523 34.1915 58.1907 33.0816 47.4441 31.4167C46.7993 31.3057 45.6171 31.1947 44.1126 30.9727C33.0435 29.4188 22.5118 27.9759 20.7923 27.1989C20.255 26.9769 20.4699 26.422 20.6849 25.867L20.7923 25.645C20.9141 25.3644 20.9868 25.0638 21.0073 24.7571C21.0234 24.6255 21.0886 24.5055 21.1888 24.4227C21.2891 24.3398 21.4167 24.3005 21.5446 24.3131L41.4259 26.9769C44.9723 27.4209 48.6262 27.9759 52.1726 28.4199C57.5459 29.1968 63.0267 29.8628 68.2926 30.4177L73.8809 31.0837L76.7825 31.4167C80.0429 31.6544 83.2782 32.1742 86.4545 32.9706C86.8991 33.0682 87.3317 33.2171 87.7441 33.4146C88.7712 33.821 89.6883 34.477 90.4179 35.3271C91.1474 36.1772 91.6679 37.1964 91.9353 38.2983C92.5801 41.1841 90.9681 50.1746 89.8934 56.1682C89.7859 56.9452 89.571 57.7221 89.4635 58.3881L90.1083 58.0551C90.3806 57.9499 90.6347 57.8 90.8606 57.6111C90.9723 57.5687 91.0951 57.5703 91.2057 57.6156C91.3163 57.6609 91.4068 57.7467 91.46 57.8565C91.5132 57.9664 91.5253 58.0927 91.4941 58.2112C91.4628 58.3298 91.3903 58.4323 91.2905 58.4991L90.6457 58.832C90.1205 59.1253 89.6175 59.4592 89.1411 59.831C88.9262 60.053 88.8187 60.053 88.7113 60.053Z" fill="#17202D"/>
    <path d="M99.673 31.8607C106.228 34.6356 103.327 44.847 102.467 50.1747L101.285 57.6112C96.1265 56.7233 93.3324 56.1683 88.7113 59.4981C89.3561 55.2803 92.1503 41.7392 91.398 38.4094C91.1703 37.3784 90.6972 36.4224 90.0217 35.6279C89.3462 34.8333 88.4895 34.2252 87.5292 33.8586C87.0993 33.7476 86.7769 33.5256 86.3471 33.4146C82.2626 32.5609 78.1373 31.931 73.9884 31.5278C67.1105 30.6398 60.2327 29.8629 53.4623 28.8639C44.1127 27.532 34.6556 25.9781 25.306 24.9791C23.3716 24.7572 22.1895 24.2022 21.3297 26.4221C20.2551 29.1969 20.1476 32.9707 19.8252 35.9675C19.7177 36.4115 19.2879 39.7413 19.2879 39.8523C18.7289 40.4699 18.2253 41.1386 17.7833 41.8501C17.2957 43.8158 16.9722 45.821 16.8161 47.8438L15.3116 48.0658C15.8489 43.737 17.6759 28.4199 19.0729 24.9791C19.8252 22.9813 22.1895 22.5373 24.0164 22.4263C25.384 22.4268 26.7494 22.5382 28.1001 22.7593C39.3841 24.5352 50.5607 26.3111 61.8447 27.754C73.4511 29.1969 85.0575 30.1958 96.6639 30.9728C97.6311 31.3058 98.7057 31.5278 99.673 31.8607Z" fill="#90908F"/>
    <path d="M23.2641 24.5351C23.6612 24.5169 24.0588 24.5542 24.4462 24.6461C24.6611 24.6461 24.9835 24.7571 25.1985 24.7571C31.539 25.4231 37.8795 26.311 44.1126 27.31C47.1217 27.7539 50.3457 28.1979 53.4622 28.6419C58.2982 29.3078 63.2417 29.8628 67.9702 30.5288C70.0121 30.7508 72.054 31.0837 74.0958 31.3057L76.7825 31.6387C80.0367 31.9309 83.2681 32.4501 86.4545 33.1926C86.8695 33.2726 87.2688 33.4226 87.6366 33.6366C88.6637 34.043 89.5809 34.699 90.3104 35.5491C91.04 36.3992 91.5605 37.4184 91.8278 38.5203C92.4726 41.2951 90.8606 50.5076 89.786 56.5012C89.6785 57.2782 89.4636 58.0551 89.3561 58.7211C93.4398 56.0573 96.234 56.5012 100.855 57.2782L101.93 50.2856C102.037 49.6196 102.145 48.8427 102.36 47.9547C103.434 42.2941 104.831 34.6355 99.458 32.4157C98.5405 32.018 97.5509 31.8288 96.5564 31.8607C82.4782 30.8617 71.7316 29.8628 61.7372 28.5309C52.2801 27.31 42.7155 25.867 33.3659 24.4241C31.539 24.0911 29.7121 23.8692 27.9926 23.5362C26.6487 23.2601 25.278 23.1483 23.9089 23.2032C22.5118 23.2032 20.1475 23.6472 19.3953 25.4231C18.2131 28.4199 16.6011 41.0731 15.9563 46.5118C15.8719 46.9127 15.8358 47.3228 15.8489 47.7327L16.3862 47.6218V47.3998C16.4894 45.5245 16.7775 43.665 17.2459 41.8501C17.6235 41.1565 18.0938 40.5213 18.643 39.9632L18.7505 39.8522C18.8579 39.5192 19.0729 37.6323 19.1803 36.8554C19.2004 36.5943 19.2363 36.3348 19.2878 36.0784C19.3953 35.1905 19.5027 34.3025 19.6102 33.3036C19.6967 30.919 20.1315 28.5615 20.8998 26.311C21.0334 25.7778 21.3423 25.3091 21.7736 24.9852C22.2049 24.6612 22.7317 24.5021 23.2641 24.5351ZM88.7113 60.053C88.6038 60.053 88.4964 60.053 88.4964 59.942C88.3832 59.8196 88.3083 59.665 88.2814 59.4981C88.3889 58.7211 88.6038 57.5002 88.8188 56.1683C89.786 50.5076 91.5054 41.1841 90.8606 38.5203C90.6404 37.575 90.2033 36.6983 89.586 35.9642C88.9688 35.2301 88.1896 34.6602 87.3142 34.3025L86.2396 33.9696C83.091 33.2185 79.8948 32.6993 76.675 32.4157L73.9884 32.0827C71.9465 31.8607 69.9046 31.5277 67.8628 31.3057C63.1342 30.7508 58.1907 30.0848 53.3547 29.4188L44.0051 28.0869C37.8795 27.199 31.4315 26.2 25.1985 25.5341C24.8761 25.5341 24.6611 25.4231 24.3387 25.4231C22.9417 25.2011 22.1894 25.0901 21.6521 26.644C20.9615 28.7966 20.5636 31.0379 20.4699 33.3036C20.3625 34.3025 20.255 35.1905 20.1475 36.0784C20.1456 36.3412 20.1095 36.6026 20.0401 36.8554C19.6102 39.8522 19.6102 40.0742 19.5027 40.1852C19.3953 40.2962 19.3953 40.2962 19.1803 40.5182C18.7026 41.0042 18.3034 41.5663 17.9982 42.1831C17.5807 43.8962 17.2933 45.6404 17.1385 47.3998L17.031 48.0657C17.0235 48.1809 16.9757 48.2894 16.8967 48.371C16.8177 48.4526 16.7127 48.5019 16.6011 48.5097L15.0966 48.7317C14.9451 48.7483 14.7928 48.709 14.6667 48.6207C14.5593 48.5097 14.5593 48.3987 14.5593 48.1767C14.6667 47.7327 14.6667 47.0668 14.7742 46.2898C15.5265 40.4072 17.1385 28.0869 18.3206 24.9791C18.9654 23.2032 20.8998 22.2043 23.6939 22.0933C25.0973 22.0895 26.4988 22.2008 27.8851 22.4262C29.7121 22.7592 31.539 22.9812 33.3659 23.3142C42.6081 24.7571 52.1726 26.2 61.6297 27.4209C71.6241 28.7529 82.3708 29.7518 96.4489 30.6398C97.549 30.7005 98.6348 30.9248 99.6729 31.3057C105.799 33.8586 104.187 42.2941 103.112 47.9547C103.004 48.7317 102.789 49.5086 102.682 50.1746L101.5 57.6112C101.5 57.7222 101.392 57.8332 101.285 57.9441C101.242 57.9861 101.192 58.0178 101.136 58.037C101.08 58.0562 101.021 58.0624 100.963 58.0551H100.855C95.6966 57.1672 93.1174 56.7232 88.7113 59.831C88.9262 60.053 88.8188 60.053 88.7113 60.053Z" fill="#17202D"/>
    <path d="M26.3806 39.0752C25.9964 36.506 26.2176 33.8789 27.0254 31.4167C27.2787 30.5483 27.7871 29.7827 28.4802 29.2259C29.1734 28.6691 30.017 28.3486 30.8942 28.3089C29.927 27.8649 22.7268 27.1989 21.0073 26.977C20.3625 31.4167 19.6102 35.8564 18.858 40.1852C21.1148 38.6313 23.9089 38.7423 26.3806 39.0752Z" fill="#17202D"/>
    <path d="M78.9318 64.2708C80.4741 62.5671 82.1256 60.9726 83.8753 59.4981L84.735 58.8321C85.3798 57.2782 86.2396 50.5076 86.562 48.2877C83.9052 47.9687 81.2803 47.4117 78.7169 46.6228C79.1468 49.3977 78.8244 52.8385 78.9318 55.7243V64.2708Z" fill="#626060"/>
    <path d="M83.2305 101.343C84.6118 101.861 86.0611 102.16 87.5292 102.23L86.9918 104.561C85.1846 104.536 83.3982 104.16 81.726 103.451C69.7972 98.4567 70.7644 80.2538 74.7406 69.9314C76.4105 65.543 79.3824 61.8131 83.2305 59.276L83.338 59.72C79.8567 62.6962 77.1893 66.5608 75.6004 70.9303C71.839 80.4758 72.4838 96.9028 83.2305 101.343Z" fill="#626060"/>
    <path d="M75.063 89.0223L78.0721 89.3553C78.7169 92.4631 80.5438 96.9029 83.0156 98.9007C83.9524 99.5858 84.8495 100.327 85.7022 101.121V101.232H85.4873L84.5201 101.01L83.9828 100.788C81.6857 99.7176 79.6742 98.0881 78.1207 96.039C76.5672 93.9898 75.518 91.5822 75.063 89.0223Z" fill="#626060"/>
    <path d="M82.4782 92.685C84.5201 93.462 86.562 91.2421 87.5292 89.6882C88.174 92.796 90.4308 96.4588 93.4398 97.6798C97.4161 99.3447 101.715 96.7918 104.186 93.573C100.855 99.3447 93.9772 104.006 87.3142 101.232C79.6841 98.1237 76.1377 83.6946 79.0393 76.258V76.591L78.9318 77.368C78.8244 78.6999 78.7169 79.9208 78.7169 81.2527C78.7169 84.3605 79.1468 91.3531 82.4782 92.685Z" fill="#626060"/>
    <path d="M89.4636 73.1501C90.3883 70.7667 91.737 68.5832 93.4399 66.7125C92.2835 68.1914 91.3422 69.8367 90.6457 71.5962C88.0665 78.1449 86.9919 92.019 94.9444 95.3488C98.1684 96.6808 101.285 95.0159 103.542 92.685C101.285 95.6818 97.6311 98.5677 93.7623 97.0137C86.0247 93.6839 86.8844 79.5878 89.4636 73.1501Z" fill="#90908F"/>
    <path d="M80.4363 63.9378C81.511 63.9378 82.5857 64.0488 83.5529 64.0488L83.6603 63.9378L85.1649 62.3838C86.0082 61.476 86.9055 60.6234 87.8515 59.831C86.8843 59.831 85.8097 59.72 84.8425 59.72C84.4126 59.72 80.8662 63.2718 80.4363 63.9378Z" fill="#626060"/>
    <path d="M86.7769 52.9383L89.3561 52.2724L88.2815 58.8321H85.5948L86.7769 52.9383Z" fill="#90908F"/>
    <path d="M103.219 75.2591C103.434 74.7041 103.972 74.1491 104.509 74.3711C105.476 74.8151 105.476 76.591 105.154 77.479C105.078 77.7558 104.901 77.9915 104.661 78.1365C104.42 78.2814 104.135 78.3242 103.864 78.2559C103.004 77.9229 102.897 76.147 103.219 75.2591Z" fill="#A9A9A9"/>
    <path d="M84.5201 64.3818L91.0756 68.1556C92.1155 66.4899 93.4674 65.0559 95.0519 63.9378L90.3233 59.4981C88.0721 60.6772 86.0929 62.3428 84.5201 64.3818Z" fill="#A9A9A9"/>
    <path d="M90.4308 52.5055C93.5473 51.3956 98.5983 50.5076 101.715 51.7285L100.855 57.5002C97.3087 56.1683 92.3652 55.9463 89.3561 58.7211L90.4308 52.5055Z" fill="#626060"/>
    <path d="M100.425 77.257L100.533 76.924C99.9953 78.8109 99.8878 82.5847 102.037 83.4726C103.757 84.2496 105.261 82.1407 105.906 80.8088L105.584 81.6967C105.046 83.1396 103.434 85.4705 101.607 84.6936C99.243 83.6946 99.5654 79.2549 100.425 77.257Z" fill="#626060"/>
    <path d="M97.7385 74.7042C97.631 75.0371 97.4161 75.2591 97.3086 75.5921C95.9116 79.0329 95.1593 84.8046 99.3505 86.5805C99.7309 86.7178 100.13 86.7927 100.533 86.8025C99.5654 88.4674 97.2012 91.4642 95.0518 90.5762C91.7204 89.2443 92.2577 84.4716 93.3324 81.8078C94.4275 79.2138 95.9148 76.8161 97.7385 74.7042Z" fill="#90908F"/>
    <path d="M76.0303 72.3733L79.0393 72.5953C78.2409 75.9872 77.7019 79.4386 77.4273 82.9177L74.3108 82.1407C74.3935 78.8129 74.9735 75.5182 76.0303 72.3733Z" fill="#90908F"/>
    <path d="M68.9375 83.9166C68.4001 86.9134 66.3583 100.788 68.5076 102.786C68.9366 103.109 69.4067 103.371 69.9047 103.562C73.7735 105.227 81.9409 106.115 86.1321 106.559C86.1321 106.67 86.0247 106.892 86.0247 107.003C85.8269 107.401 85.5537 107.753 85.2213 108.039C84.889 108.325 84.5044 108.539 84.0903 108.668C83.9828 108.668 61.9521 104.561 59.8028 104.228C61.5223 103.895 63.994 102.897 64.6388 101.121C66.5732 96.3479 67.8628 89.0223 68.9375 83.9166Z" fill="#A9A9A9"/>
    <path d="M92.0427 40.0742C95.6966 38.8533 99.243 37.5213 102.789 36.3004C102.545 35.3931 102.096 34.5582 101.48 33.8639C100.863 33.1696 100.097 32.6353 99.243 32.3047L94.5145 33.6366L89.7859 34.9685C91.1637 36.2942 91.9754 38.1306 92.0427 40.0742Z" fill="#A9A9A9"/>
    <path d="M76.8899 28.0869C73.8809 24.7571 69.0449 18.3195 69.0449 13.6578C68.9374 8.44106 63.4566 4.55629 59.2654 2.7804C52.9249 0.227549 45.6171 0.00556228 38.9542 0.89351C28.4224 2.22543 18.7504 7.22013 14.5592 17.9865C13.5425 20.445 12.9951 23.0831 12.9472 25.756C12.8398 32.4156 12.9472 39.0753 12.9472 45.6239C13.6995 45.8459 14.4518 46.1788 15.204 46.4008C15.5264 46.5118 15.8488 45.9568 16.0638 45.8459C20.6848 42.849 25.5208 39.9632 30.3568 37.1884C36.2675 33.8586 47.4441 27.8649 53.9995 26.977C63.6715 25.756 67.7553 26.977 76.8899 28.0869Z" fill="#00ADE7"/>
    <path d="M13.3772 45.2909C13.4846 45.2909 13.6996 45.4019 13.807 45.4019C14.3444 45.5128 14.7742 45.7348 15.3116 45.8458C15.419 45.8458 15.419 45.7348 15.5265 45.6238L15.8489 45.2909C20.5774 42.294 25.306 39.2972 30.142 36.6334C41.1036 30.4177 49.1636 26.9769 53.9996 26.422C59.8653 25.7093 65.7991 25.8588 71.6241 26.866C72.9137 27.0879 74.2033 27.1989 75.7079 27.4209C73.5585 24.8681 68.6151 18.5414 68.5076 13.6577C68.5076 10.6609 66.0359 6.11019 59.0505 3.22436C53.5697 1.00449 46.9068 0.33853 39.0617 1.33747C23.9089 3.33535 17.5684 11.5489 14.9892 18.0975C13.9654 20.5146 13.4174 23.118 13.3772 25.756C13.2697 30.5287 13.3772 35.4124 13.3772 40.0742V45.2909ZM15.3116 46.8448H15.0966C14.5593 46.7338 14.022 46.5118 13.4846 46.4008C13.2506 46.2761 12.9949 46.2006 12.7324 46.1788L12.41 46.0678V25.756C12.4878 23.0037 13.0713 20.2918 14.1294 17.7645C16.8161 10.9939 23.2641 2.4474 38.9543 0.449523C46.9068 -0.549417 53.7847 0.116543 59.3729 2.4474C66.6807 5.55522 69.4748 10.3279 69.4748 13.7687C69.5823 17.8755 73.666 23.9801 77.2124 27.8649L78.0721 28.7528L76.89 28.6418C74.9556 28.4199 73.1287 28.1979 71.5167 27.9759C65.606 27.1989 61.6297 26.644 54.1071 27.5319C49.3785 28.0869 41.426 31.5277 30.5718 37.6323C25.7358 40.2962 21.0073 43.293 16.2788 46.2898C16.1713 46.2898 16.1713 46.4008 16.0638 46.5118C15.9692 46.6201 15.8529 46.706 15.7231 46.7635C15.5932 46.8209 15.4528 46.8487 15.3116 46.8448Z" fill="#17202D"/>
    <path d="M73.5585 34.6688C70.9425 37.4305 68.062 39.9109 64.9612 42.072C63.5641 43.071 34.3332 38.4093 30.142 37.7433C32.0764 36.7443 44.0052 30.0847 45.1873 29.7518C45.6172 29.6408 53.1398 30.7507 54.2145 30.9727C60.77 31.8606 67.3254 32.5266 73.8809 33.1926" fill="#17202D"/>
    <path d="M94.8368 4.66734C98.0608 5.99926 103.004 8.6631 101.285 13.1028C100.318 15.6557 97.416 17.9866 95.2667 19.5405C92.6875 21.4274 81.1885 27.754 78.1795 28.198C76.46 28.4199 66.4656 27.643 64.1013 27.532C60.9848 27.421 49.8083 26.755 47.3365 27.865C43.5752 29.6409 39.9213 31.5278 36.2675 33.3036C40.352 25.7643 45.6175 18.9758 51.8501 13.2138C64.1013 2.11449 79.2541 -1.77028 94.8368 4.66734Z" fill="#FF0066"/>
    <path d="M79.7916 2.22538C70.1196 2.22538 60.6625 6.11015 52.2801 13.7687C46.5082 19.0436 41.576 25.2238 37.6646 32.0826C38.3094 31.7496 38.9542 31.4166 39.4916 31.0837C41.9633 29.8627 44.5425 28.5308 47.1217 27.3099C49.271 26.3109 56.3638 26.5329 63.1342 26.8659H64.1014C64.7462 26.8659 66.0358 26.9769 67.5404 27.0879C71.1942 27.3099 76.89 27.7539 78.0721 27.5319C80.8662 27.1989 92.2577 20.8723 94.9444 18.9854C96.1265 18.2084 99.6729 15.6556 100.748 12.7698C101.822 9.88392 99.7804 7.33107 94.622 5.1112C89.8815 3.25535 84.861 2.27841 79.7916 2.22538ZM34.8705 34.6355L35.7302 33.0815C39.7884 25.4605 45.0973 18.6253 51.4204 12.8807C64.5313 1.00445 80.0065 -2.10337 95.0519 4.11226C100.963 6.55412 103.219 9.66194 101.822 13.3247C100.748 16.0996 97.7385 18.5414 95.5892 19.9843C93.2249 21.6492 81.4036 28.3088 78.287 28.7528C76.9974 28.9748 71.5166 28.5308 67.5404 28.3088C66.0358 28.1978 64.7462 28.0868 64.1014 28.0868H63.1342C59.4804 27.8649 49.8084 27.4209 47.659 28.4198C45.0798 29.6408 42.5006 30.8617 40.0289 32.1936C38.8468 32.7486 37.6646 33.4145 36.5899 33.9695L34.8705 34.6355Z" fill="#17202D"/>
    <path d="M38.5028 72.2399C36.2997 77.5454 29.9055 79.7875 24.2312 77.2791C18.557 74.7706 15.7413 68.3996 17.9444 63.1163C20.1475 57.833 26.5417 55.5687 32.2052 58.0883C37.8687 60.6078 40.7059 66.9456 38.5028 72.2399Z" fill="#626060"/>
    <path d="M38.7286 71.1522C36.5793 77.4566 29.8841 77.8118 25.0911 75.3255C20.0724 73.4053 15.677 68.1776 18.6431 62.2283C21.7704 56.7341 27.9927 54.0481 33.0221 56.2902C38.0516 58.5322 40.4266 65.0364 38.7286 71.1522Z" fill="#A9A9A9"/>
    <path d="M26.488 74.5265C28.8565 75.6246 31.5321 75.7904 34.0107 74.9927C34.7718 74.6949 35.4575 74.2225 36.016 73.6111C36.5745 72.9996 36.9912 72.2652 37.2347 71.4631C37.8779 69.1003 37.6914 66.5788 36.708 64.3444C35.7247 62.11 34.0079 60.3068 31.8614 59.2538L31.6464 59.1539C29.4196 58.3197 26.9804 58.3158 24.7511 59.1428C22.5217 59.9697 20.6424 61.5756 19.4382 63.6824C19.039 64.4307 18.8146 65.2649 18.7828 66.1186C18.7511 66.9723 18.913 67.8218 19.2555 68.5994C20.5122 71.098 22.6341 73.0161 25.1984 73.9715L25.6283 74.1491C25.9005 74.2823 26.18 74.4081 26.4665 74.5265H26.488Z" fill="white"/>
    <path d="M28.8953 73.4608C32.3128 74.9815 36.418 72.9947 38.0837 69.0211C39.7495 65.0475 38.2879 60.6189 34.8597 59.0983C31.4316 57.5777 27.3371 59.5645 25.6713 63.538C24.0056 67.5116 25.4779 71.9402 28.8953 73.4608Z" fill="#4F885C"/>
    <path d="M29.422 72.5397C32.2914 73.7273 35.7518 71.9625 37.1489 68.6216C38.5459 65.2807 37.3638 61.3849 34.4622 60.0973C31.4854 58.8653 28.0142 60.619 26.6279 63.9599C25.2416 67.3008 26.4022 71.2078 29.3038 72.4953L29.422 72.5397Z" fill="#52AB62"/>
    <path d="M28.4225 73.2278C28.2398 73.1336 28.0638 73.026 27.8959 72.9059C27.6657 72.7524 27.4466 72.5817 27.2404 72.3954C26.6873 71.8828 26.2159 71.2835 25.8433 70.6195C25.3646 69.7458 25.0544 68.7847 24.9298 67.7891C24.7905 66.6095 24.8819 65.4131 25.1985 64.2706C25.5652 62.9717 26.2076 61.7735 27.0792 60.7633C27.5557 60.2313 28.0934 59.7617 28.6804 59.3647C29.2897 58.9616 29.952 58.6513 30.6471 58.4435C31.3622 58.23 32.1066 58.14 32.8501 58.1771C34.3757 58.2483 35.8238 58.8915 36.9231 59.9863C37.4619 60.5168 37.9122 61.1356 38.2557 61.8177C38.59 62.4813 38.829 63.1918 38.965 63.9266C39.1728 64.9813 39.1728 66.0684 38.965 67.1232L38.8575 67.6337L38.7071 68.1332C38.6091 68.4466 38.4943 68.7542 38.3632 69.0545C38.2235 69.3652 38.073 69.6427 37.9333 69.9202C37.3394 70.9499 36.5497 71.8447 35.612 72.5507C34.8287 73.1426 33.9419 73.5722 33.0006 73.8161C32.2798 73.9945 31.5363 74.0544 30.7975 73.9937C30.5258 73.9659 30.2564 73.9177 29.9915 73.8494C29.7943 73.8088 29.6004 73.7532 29.4112 73.6829L28.9383 73.5053L28.4225 73.2278ZM29.3467 73.6385C29.536 73.7084 29.73 73.764 29.927 73.805C30.1921 73.87 30.4615 73.9145 30.733 73.9382C31.4565 73.9921 32.1836 73.917 32.8824 73.7162C33.8019 73.4483 34.658 72.9873 35.3971 72.3621C36.2656 71.6353 36.976 70.7276 37.4819 69.6982C37.6002 69.4207 37.7399 69.1322 37.8366 68.8547C37.9471 68.5535 38.0404 68.2459 38.116 67.9334L38.2235 67.4784L38.2879 67.0011C38.3288 66.6807 38.3539 66.3584 38.3632 66.0354C38.3847 64.7024 38.0699 63.3865 37.4497 62.2173C37.124 61.6348 36.7186 61.104 36.2461 60.6412C35.2792 59.7267 34.04 59.1787 32.7319 59.0873C32.0817 59.053 31.43 59.1165 30.7975 59.2759C29.5501 59.6168 28.4096 60.286 27.4875 61.2183C26.6132 62.1179 25.9417 63.2056 25.5209 64.4038C25.149 65.4886 25.0025 66.642 25.091 67.7891C25.1634 68.7708 25.4304 69.7267 25.8755 70.5973C26.2194 71.269 26.6739 71.8737 27.2189 72.3843C27.4214 72.5739 27.6369 72.7482 27.8637 72.9059C28.0277 73.0262 28.2001 73.1338 28.3795 73.2278L28.8309 73.4609L29.3467 73.6385Z" fill="#2E3D30"/>
    <path d="M25.6821 63.538C25.336 64.3633 25.1184 65.2399 25.0373 66.1353C25.9408 64.9507 27.1878 64.0962 28.5957 63.6967C30.0035 63.2972 31.4982 63.3739 32.8609 63.9154C34.1767 64.5553 35.261 65.6113 35.9566 66.9305C36.6523 68.2496 36.923 69.7633 36.7297 71.2521C37.2876 70.5875 37.7442 69.8389 38.0838 69.0322C39.728 65.0808 38.2879 60.63 34.8598 59.1094C31.4316 57.5888 27.3478 59.5756 25.6821 63.538Z" fill="#3B5440"/>
    <path d="M29.8733 71.119C31.0792 71.494 32.3765 71.3974 33.5178 70.8476C34.6591 70.2979 35.5646 69.3335 36.0615 68.1383C36.5583 66.9432 36.6119 65.601 36.2118 64.3677C35.8118 63.1344 34.9862 62.0963 33.8926 61.4515C32.6867 61.0765 31.3894 61.1731 30.248 61.7228C29.1067 62.2726 28.2013 63.237 27.7044 64.4321C27.2075 65.6273 27.154 66.9695 27.554 68.2028C27.954 69.4361 28.7796 70.4742 29.8733 71.119Z" fill="#000105"/>
    <path d="M32.3021 64.0042C32.0843 64.6151 32.0448 65.2786 32.1883 65.9125C32.3319 66.5464 32.6522 67.123 33.1096 67.5709C33.5671 68.0188 34.1416 68.3183 34.7622 68.4325C35.3828 68.5467 36.0221 68.4705 36.6012 68.2133C37.1803 67.9561 37.6737 67.5293 38.0203 66.9855C38.367 66.4418 38.5517 65.8051 38.5516 65.154C38.5516 64.503 38.3668 63.8663 38.02 63.3226C37.6733 62.7789 37.1798 62.3522 36.6007 62.0951C36.1976 61.9245 35.7655 61.8387 35.3299 61.8426C34.8942 61.8465 34.4637 61.94 34.0634 62.1178C33.6632 62.2955 33.3013 62.5539 32.9988 62.8778C32.6964 63.2017 32.4595 63.5846 32.3021 64.0042Z" fill="white"/>
    <path d="M41.3186 65.203L40.8673 64.0376C40.7149 63.5225 40.5057 63.0272 40.244 62.5614C39.9538 62.0397 39.6314 61.4514 39.2768 60.8854C38.9221 60.3193 38.417 59.7754 37.9334 59.1761C37.698 58.8695 37.4274 58.5937 37.1274 58.3547L36.2247 57.5778C35.7143 57.1907 35.1753 56.8456 34.6127 56.5455L34.4408 56.4234C34.2775 56.3019 34.105 56.1943 33.9249 56.1016L33.3876 55.8019C33.2944 55.7498 33.1973 55.7052 33.0974 55.6687L32.7213 55.5244L32.1732 55.3135L31.378 55.0804C30.2904 54.8189 29.1703 54.7328 28.0572 54.8251C26.9546 54.9391 25.8709 55.2003 24.8332 55.6021C23.804 56.0293 22.8237 56.5728 21.9101 57.2226L21.4373 57.6111L21.1041 57.8886L20.8892 58.0661L20.3949 58.5434C20.2551 58.6766 20.1154 58.8098 19.9865 58.9541L19.4384 59.5646C19.2963 59.7227 19.1635 59.8895 19.0408 60.064L18.6431 60.5968L17.9769 61.6401L17.8801 61.7955L17.6115 62.3838C17.1481 63.4811 16.8962 64.6611 16.8699 65.8579C16.8667 66.4581 16.9243 67.0571 17.0419 67.6449C17.1635 68.2273 17.3399 68.7961 17.5685 69.3431C18.0239 70.4104 18.6568 71.3871 19.4384 72.2289C20.1861 73.0772 21.0388 73.8198 21.9746 74.4377C22.8942 75.0262 23.8746 75.5064 24.8977 75.8695C25.2058 76.0101 25.521 76.1433 25.8434 76.2691C26.1766 76.3912 26.5097 76.5021 26.8429 76.602L27.348 76.7352L28.4226 76.9572L29.4973 77.1015H30.572H31.0878C31.4639 77.1015 31.8078 77.1015 32.1625 77.0016C32.5171 76.9017 32.8932 76.8795 33.2371 76.8018C33.9236 76.6344 34.5876 76.381 35.2145 76.0471C35.5245 75.8805 35.8226 75.6914 36.1065 75.481L36.5256 75.1591C36.6641 75.048 36.7968 74.9294 36.9232 74.8039C37.0553 74.6854 37.1808 74.5595 37.2994 74.4266C37.4216 74.2967 37.5364 74.1595 37.6433 74.0159C37.7585 73.878 37.8661 73.7334 37.9657 73.583C38.0147 73.4407 38.0577 73.2963 38.0946 73.1501C38.2826 72.8473 38.4513 72.5322 38.5997 72.2067C38.7502 71.8848 38.8791 71.5407 38.9973 71.1856L39.1908 70.3975L39.395 69.2876C39.395 69.11 39.4487 68.9324 39.4702 68.7437L39.5347 67.9335C39.6065 66.8212 39.556 65.7042 39.3842 64.6037L39.309 64.2707L39.1693 63.6269C39.1693 63.4493 39.0941 63.2717 39.0403 63.0941L38.8039 62.3283C38.7524 62.1547 38.6914 61.9842 38.6212 61.8177L38.5137 61.5402V61.4403C38.9006 61.9731 39.2768 62.4726 39.5884 62.9277C40.1371 63.6835 40.6465 64.469 41.1144 65.2807C41.4906 65.8579 41.7162 66.1909 41.7162 66.1909C41.7162 66.1909 41.5765 65.8579 41.3186 65.203ZM38.7287 64.8145V65.1031C38.7287 65.2696 38.7932 65.425 38.8039 65.5915L38.8791 66.4017C38.8896 66.5644 38.8896 66.7275 38.8791 66.8901C38.8791 66.99 38.8791 67.0788 38.8791 67.1676V67.3341C38.8914 67.5411 38.8914 67.7487 38.8791 67.9557L38.8254 68.7437C38.8254 68.9102 38.8254 69.0656 38.7609 69.2321L38.6642 69.9091L38.4063 71.0191C38.2773 71.3743 38.1591 71.6739 38.0194 71.9625C37.8772 72.2691 37.7156 72.5657 37.5358 72.8505C37.4498 72.9948 37.3638 73.128 37.2564 73.2722C37.1637 73.4114 37.0632 73.5448 36.9555 73.6718C36.8544 73.8033 36.7468 73.9293 36.6331 74.0492C36.5209 74.1703 36.4025 74.2852 36.2784 74.3933C36.1587 74.5074 36.0331 74.6148 35.9023 74.7152C35.7788 74.819 35.6497 74.9153 35.5154 75.0037C35.2442 75.1875 34.9605 75.3507 34.6664 75.4921C34.0778 75.7806 33.457 75.9931 32.818 76.1248C32.4982 76.1898 32.1754 76.238 31.8508 76.2691C31.5284 76.2691 31.1953 76.2691 30.8836 76.2691H29.9057L28.9385 76.1248L27.982 75.9028L27.047 75.6031C26.7354 75.4921 26.4345 75.37 26.1336 75.2368C25.8327 75.1036 25.5425 74.9593 25.2631 74.8039H25.1986C24.2767 74.416 23.4005 73.9207 22.5872 73.3277C21.7917 72.7414 21.0698 72.0554 20.4378 71.2855C20.1233 70.9068 19.8394 70.5022 19.5889 70.0756C19.3358 69.6602 19.1199 69.2219 18.9441 68.7659C18.6071 67.8778 18.4467 66.9287 18.4726 65.9753C18.4984 65.0218 18.71 64.0835 19.0945 63.2162L19.3309 62.7057L19.8145 61.9398L20.3734 61.1518C20.4686 61.0116 20.5727 60.8781 20.685 60.7522C21.9491 59.2088 23.5367 57.9828 25.3276 57.1671L25.8004 57.0006C26.3566 56.8608 26.9199 56.7533 27.4877 56.6787C27.8073 56.6238 28.1309 56.5978 28.4549 56.601C28.7999 56.5446 29.1481 56.5113 29.4973 56.5011L30.572 56.5788C30.9158 56.5788 31.249 56.7231 31.6466 56.7897C32.3445 56.9474 33.025 57.178 33.6777 57.4779C34.3206 57.805 34.9416 58.1758 35.5369 58.5878L35.7304 58.7543L35.9668 58.9763L36.1172 59.1539L36.214 59.2649C36.8903 60.0328 37.4517 60.9007 37.8797 61.8399C38.299 62.7862 38.5918 63.7869 38.7502 64.8145H38.7287Z" fill="#000105"/>
    <path d="M58.0727 66.3462C53.3549 66.3462 51.3883 68.7437 50.4855 69.8758C51.3668 69.2654 52.4522 68.6438 53.3764 68.1221C54.7121 67.4546 56.196 67.1672 57.6751 67.2897C58.6409 67.2953 59.6006 67.4486 60.5229 67.7447C62.3928 68.3996 63.8544 70.0423 65.2515 71.4852C64.7054 69.9745 63.725 68.6724 62.4418 67.7538C61.1586 66.8352 59.634 66.3441 58.0727 66.3462Z" fill="#626060"/>
    <path d="M65.7243 72.2844C65.6147 72.0283 65.489 71.7799 65.3481 71.5407C64.9844 70.9055 64.5357 70.3263 64.0155 69.8203C63.27 69.0918 62.4131 68.4955 61.4793 68.0555C60.3986 67.5591 59.2419 67.2623 58.0619 67.1787C56.8865 67.1343 55.7116 67.2803 54.58 67.6115C53.6013 67.9067 52.6625 68.3281 51.7858 68.8658C51.172 69.2433 50.5928 69.678 50.0556 70.1644C49.6687 70.5196 49.4645 70.7304 49.4645 70.7304L50.1201 70.2421C50.6993 69.8282 51.3062 69.4573 51.9363 69.1321C52.8191 68.6603 53.7487 68.2881 54.7089 68.0222C55.7986 67.7273 56.9265 67.6112 58.0511 67.6781C60.1637 67.8024 62.184 68.6144 63.8221 69.9979C64.3615 70.4576 64.8451 70.9831 65.2621 71.5629C65.5631 72.0402 65.7243 72.2844 65.7243 72.2844Z" fill="#000105"/>
    <path d="M66.5302 75.4921C64.0912 73.6439 61.2424 72.4571 58.2445 72.0402C57.8886 71.9866 57.5294 71.9607 57.1698 71.9625C56.8124 71.9284 56.4526 71.9284 56.0952 71.9625C55.7298 71.9625 55.3644 71.9625 55.0205 71.9625C54.6766 71.9625 54.2897 72.0846 53.9458 72.129L53.387 72.2067L52.8282 72.3398L51.689 72.584C50.926 72.7727 50.1845 73.0391 49.357 73.1945C49.953 72.6073 50.5926 72.0692 51.2699 71.5851C51.9808 71.1386 52.7333 70.7667 53.516 70.4752C55.1088 69.8548 56.8208 69.6304 58.5132 69.8203C60.2308 70.0143 61.8744 70.6476 63.2954 71.6628C64.69 72.6126 65.8081 73.9363 66.5302 75.4921Z" fill="#000105"/>
    <path d="M65.0579 74.26C64.0559 73.4132 62.9761 72.6697 61.8339 72.0401C60.7662 71.4594 59.6275 71.0301 58.4487 70.7637C57.2582 70.5064 56.0431 70.3909 54.8271 70.4196C54.2038 70.4196 53.5697 70.4973 52.9142 70.5084C52.2586 70.5195 51.6138 70.6749 50.9045 70.6749C51.4545 70.2564 52.0368 69.8852 52.6455 69.565C53.2779 69.2617 53.9363 69.0202 54.6121 68.8435C56.0211 68.4812 57.4919 68.4584 58.9108 68.7769C60.325 69.0945 61.6423 69.7652 62.7474 70.7304C63.8249 71.6579 64.626 72.8817 65.0579 74.26Z" fill="#000105"/>
</svg>
