<?xml version="1.0" encoding="utf-8"?>
<!-- Generator: Adobe Illustrator 21.0.2, SVG Export Plug-In . SVG Version: 6.00 Build 0)  -->
<svg version="1.1" id="Слой_1" xmlns="http://www.w3.org/2000/svg" xmlns:xlink="http://www.w3.org/1999/xlink" x="0px" y="0px"
	 viewBox="0 0 936.1 934.1" style="enable-background:new 0 0 936.1 934.1;" xml:space="preserve">
<style type="text/css">
	.st0{fill:#0098FE;}
	.st1{fill:#FFFFFF;}
</style>
<path class="st0" d="M468.4,2.5c256.5-0.1,465.2,208.6,465.1,465.1c-0.1,256.2-208.6,464.8-464.9,464.9
	C212.2,932.6,3.4,723.7,3.5,467.3C3.6,210.9,212,2.6,468.4,2.5z"/>
<g>
	<path class="st1" d="M737.3,689.3c-4.8,0.9-8.1-2-10.8-4.9c-4.1-4.4-8.5-5.7-14.4-5.4c-4.1,0.3-8.6,0.8-12.7-0.7
		c-1.6-0.6-2.7-0.6-4,0.6c-2.9,2.6-4.3,1.8-4-2c0.1-1.3-0.4-2.4-1.9-2.4c-4.6,0-8.3-2.8-12.7-3.4c-2.6-0.4-5.6-2-7.5,1.4
		c-0.3-0.7-0.6-1.4-0.9-2.2c-0.1,0.3-0.2,0.6-0.3,0.8c0-0.3,0.1-0.6,0.3-0.8c-4.1-4-8.6-1.2-12.9-0.8c-1.3-0.6-2.6-1.3-3.9-1.9
		c3-1.6,5.4-3.8,7.2-6.7c1-1.6,1.4-3.3,0.4-5.1c-2.3-4.2-6.4-7.6-6.4-13c0-1-0.2-1.8-1.2-2.5c-4.8-3.3-8.2-8.4-15.1-9
		c-2.9-0.3-5.8-2.8-9.2-1.9c-6,1.6-11.6,1.5-16.3-3.1c-1.7-1.7-3.4-1.6-6.3-0.3c3.6-6.7-3.1-7.1-5.1-10.3c-2.7-4.4-7.5-2.8-12.4-3.2
		c4.4-4,1-5.1-1.5-6.5c-2.9-1.6-6.8-1.4-8.7-4.8c1.1-1.5,3.4-0.3,4.2-2.2c-5.2-1.6-9.9-0.3-14.4,2.1c-2.5,1.3-5.3,3.5-7.9,1.8
		c-4.9-3.1-9.7-2.7-14.7-1.4c-2.3,0.6-4.2,0-4-2.8c0.2-3.3-1.7-3.8-4.4-4c-2.2-0.2-4.8,0.8-6.1-2.1c-0.2-1.3,0.8-3.5-1.2-3.6
		c-1.4-0.1-3.3,1.7-3.4,3.1c-0.1,2.8,2.5,0.9,3.7,1.5c-3.3,4.3-9.7,1.6-12.8,6c-2.2-3.6-2.3-6.3,1.9-7.9c0.8-0.3,2.4-1.4,1.2-2.7
		c-0.9-1-2.5-2.3-3.9-1.2c-1.4,1.1-3.2,1.3-4.4,2.9c-2,2.6-5,4.8-8.4,4.5c-3.5-0.3-5.3,0.6-5.6,5.2c-1.8-4.4-3.7-4.1-6.1-2.1
		c-2.5,2.1-4.8,4.1-3.9,7.9c0.2,0.9,0,1.9-1.1,2.4c-4.4,2.1-8.1,4.8-7.1,11.3c-2.6-3-4.5-5.3-6.6-7.4c-4.4-4.5-9.7-5.2-15.6-3.2
		c-3.3,1.1-6,4.3-9.6,3.5c-5-1.2-9.5-3.4-12.7-7.7c-3.6-4.8-6.6-10-4.7-16.1c2-6.3,4.1-12.5,5-19.2c0.5-3.5,0-4.2-3.2-2.9
		c-1.8,0.7-4.5-0.5-3.9-1.3c2.7-3.6-1.2-2.7-1.9-2.7c-5.4,0.3-10.5-2.1-16.1-0.5c-4.1,1.1-8.8,0.3-13.2,0.2c-1.7,0-3-1.6-1.3-2.4
		c6.1-2.8,3.6-8.3,4.5-12.6c1.4-1,0.2-3.3,1.9-4.1c5.1,0.8,4-3.7,4.1-5.8c0.1-4.7,0-8.9,4.2-12.2c1.6-1.3,2.9-3.6,1.6-6.2
		c-1.4-2.8-3.5-0.7-5.2-0.9c-1.3-0.1-2.7-0.3-3.9,0.1c-7.4,2.3-18.5-0.4-17.9,13.1c0,0.6-1.2,1.3-1.4,2c-0.8,4-6.7,4.5-6.4,9.3
		c0,0.6-1.6,1.1-2,0.2c-1.3-3.7-3.9-1.7-6.2-1.7c-5.9,0-11,5.2-17.9-0.6c-6.7-5.7-10.8-12.3-13.8-19.8c-3.7-9.1-0.7-18.6,0.3-27.9
		c0.2-1.9-1-4.6,1.6-5.8c3.3-1.5,3.2-3.8,2.1-6.6c-1-2.6-1.1-5.4-0.2-7.9c2.3-6.3,3.5-13.5,13-13.6c2.5,0,7.1-1.6,6.6-6.5
		c-0.1-1.2,1.6-1.9,1.7-1.1c0.6,3.9,2.2,1.5,3.4,0.8c1.9-1.1,4-1.5,5.8-0.7c5.4,2.2,12.6-1.9,16.7,4.7c0.2,0.3,1.3,0.3,1.9,0.2
		c3.5-0.2,7-1.1,11.3,1.6c-5.3-6.6-4.8-10.7,0.5-11.8c6.9-1.3,13.9-0.3,20.8,0c2.1,0.1,4.7,0.4,5.6,3.3c1.1,3.6,3.6,2.5,5.4,0.9
		c3.9-3.4,6.1-1.9,7.9,2.2c0.5,1.2,1.4,2.3,2.4,3.1c2.6,2.3,2.7,5,1.7,8.2c-1,3.5,0,7.3,1.7,10.1c1.2,2.1,2.3,4.2,3,6.4
		c0.8,2.8,2.3,5.1,3.9,7.4c1.4,2,4,2.9,5.4,0.6c2.6-4.1,5.5-9,3.6-13.5c-2.7-6.3-2-12.9-4-19.2c-1.8-5.9-3.5-12.8-0.1-18.6
		c3.1-5.4,8.1-9.5,14.8-10.7c1.5-0.3,2.5-1.7,3.2-3c3.3-6.1,10.4-7.5,15.1-12.1c1.4-1.4,3.6-0.6,5.3-1.1c2.1-0.6-2-3,0.9-3.5
		c0.1-0.6,0.1-1.1,0.2-1.7c0,0,0,0,0,0c0,0,0,0,0,0c2.1,0.8,3.8-0.2,4.2-1.9c0.5-2.1-2-2.4-3.2-3.5c3.5-3.1,3.8-5.9,0.6-9.8
		c-0.5-0.6-1.5-0.8-0.5-1.8c2.8-2.8,2.1-5.7,0-8.5c3.8-1.3,0.7-4.9,2.1-6.9c0.5,0.3,1,0.6,1.6,0.8c0,0,0.1,0.1,0.1,0.1
		c1.1,1.8-1.8,3.9-0.3,5.1c3.4,2.8,2.5,6,1.7,9.5c2.3-2.8,4-5.9,6-8.7c2.6-3.6-1.8-6.3-1.1-9.7c2.2,0.3,3.1,2,4.5,3.2
		c4.6-4.2,7.1-9.3,7.3-15.5c0.4,0,0.8,0,1.2,0c0,0,0,0,0,0c0,0,0,0,0,0c3.7,1.2,7.1-0.1,11.9-0.9c-3.9-1.8-6.6-0.6-9-1.4
		c0,0,0.1-0.4,0.1-0.4l0,0c7.4-2.4,15.2-2.4,22.5-5.2c-1-2.7-2.7-4.9-1-9c3.3-8,11.5-15.2,20-14.7c2.3,0.1,5.3-0.5,5.9-1.7
		c2.7-5.5,7.9-3.2,11.8-4.7c0.9-0.3,1.8-0.7,2.8-1.1c0.7,0.3,1.5,0.6,2.2,0.9v0l0,0c0.3,0,0.5,0.1,0.8,0.3c0,0.2,0,0.4,0,0.6
		c-3.1,1.6-6.7,2.3-9.2,4.8c-2.1,2.2-3.4,4.5-1,7.8c2.6,3.7,4.2,1,6.2-0.1c2.2-1.2,3.9-3,5.3-5.1c0.6-0.9,0.9-2.5,2.4-1.9
		c6.2,2.1,10.9-2.7,16.5-3.3c1.9-0.2,1-1.3,0.7-2c-0.7-2.1-2.9-2.9-4.5-3c-4.4-0.2-7.8-0.6-11.7-4.1c-4.7-4.3-5.4-7.8-3.2-13
		c0.7-1.6,0.3-2.7-1.7-2.3c-1.2,0.3-2.9,2.2-3.4-0.3c-0.4-2.1,1.9-0.6,2.8-1.3c2.3-1.6,6.6-1.8,6-5.6c-0.7-3.7-3.9-4.8-7.7-4.6
		c-9.3,0.5-18.1,2.5-25.5,8.4c-0.4-0.4-0.7-0.8-1.1-1.1c4.6-4.8,9.1-9.7,16.5-10.1c1.8-0.1,1.7-1.8,2.2-2.9c1.6-3.4,5.3-6.4,7.8-6.1
		c11.3,1.5,22.4,4.1,34,4.3c4.5,0.1,8-1.3,10.5-4.4c2.7-3.3,5.7-4.2,9.6-3.5c4,0.7,7-1.6,9.6-3.8c3.3-2.8-3.9-7.8,1.6-10.8
		c-0.4-0.5-0.7-1.1-1.1-1.6c-1.8-2.4-3.8-4.3-7.3-1.6c1.5-4.2,1.5-4.2-1.1-6.7c-1-0.5-2-1.1-2.9-1.6c1.3-0.5,3.6,0.5,3.5-1.6
		c-0.1-1-1.6-2.9-3.6-2.7c-1.5,0.1-2.7-1-3.8-1.3c-3-0.7-4.4-5.4-8.7-2.6c1.9-4.6,1.7-4.3-1.4-7.1c-2.6-2.3-5.8-4.4-6.5-8.3
		c6.4-1.2,6.4-1.2,2.5-6.3c-0.3-0.4-1.8-0.3-0.8-1c3.7-2.7,0.4-3.2-1.1-4.7c-1.2-1.2-3.5-2.2-2.1-4.6c0-0.6,0-1.2-0.1-1.8
		c-1.7-6.4-5-12.3-5.9-19.2c-4.9,8.3-9.8,16.1-19.9,18.3c-1,0-2-0.1-2.9-0.1l0,0c-0.6-7.1-6.3-5.9-11.1-6.3c2.9-1.2,7.7-0.3,4.3-6
		c-0.4-0.6-1.6-4.7-0.3-5.8c2.2-1.9,1.6-5,3.8-6.7c0.6-0.5,0.8-1.5-0.3-2c-8.4-3.5-8.8-3.3-12.6-8.8c-3.3-4.8-6-9.6-13-7
		c-0.2,0.1-0.6-0.4-0.9-0.4c-4,0.1-7-2.6-10.5-3.8c-2.6-0.9-5-0.3-7,1.4c-1.1,0.9-2,2.9-0.9,4c3.1,3.2,0.2,5-1.3,7
		c-0.8,1.1-1.9,1.1-0.9,3.5c1.2,2.9,3.1,7.9-0.9,10.3c-2.8,1.7-4.9,4.1-7.4,6.1c-2,1.6-2.5,3.6,0.1,5.6c2.5,2,3.2,4.9,4,8.1
		c1.1,4.7-1.5,9.7,1.6,14.1c-1.2,1.3-2.9-0.7-4.4,1.2c-3.4,4.2-8.4,5.8-13.3,7.5c-4.6,1.6-11,2-6.1,9.6c0.1,0.2,0,0.7-0.1,1
		c-3.3,7.7,1,16.6-4.3,24.2c-1.6-2.3-3.6-4.2-4.8,0.4c-0.2,0.8-0.6,2-1.5,0.8c-1.9-2.5-4-0.2-6.3-0.4c3.6-3.8,3.3-6.3-0.7-8.4
		c-1-0.5-5.2-9.3-4.5-10.1c4-4.9,2-11.6,5.2-16.7c1.7-2.7,0.6-3.6-2.5-3.8c-4.4-0.3-10.7,0.5-12.9-2c-4.6-5.4-13.1-5.7-15.7-13.1
		c-0.3-0.8-1.2-1.7-2.1-2.1c-6.1-2.9-11.6-8-19.3-5.5c-1.3,0.4-2.9,0.3-4.5-0.5c5.1-4.4,2.4-10.2,2.6-15.4c0.1-2.1-2.8-2-4.7-1.1
		c-0.8,0.4-1,1.8-2.2,1.7c-1-6.6,2.3-11.9,5.1-17.5c2.4-5,8-6.7,10.8-11.2c3.1-5,9.5-6,13.3-10c2.1-2.3,4.1-2,6.4-1.9
		c1.7,0.1,3.5,0.1,4.4-1.6c1.1-2.1-0.6-3.3-1.9-4.6c0-0.7,0-1.3,0-2c4.1,3.2,5.9,2.8,9.3-1.5c0.7-0.9,1.9-2.8,3.7-0.6
		c1.4,1.7,4.1,2,5.5,1.1c4.3-2.8,9.1-4.9,12.5-9l0,0c0.3-0.7,0.6-1.4,1-2.1c2.5-1.5,4.7-3.7,7.5-4.6c0.9-0.3,2-0.7,1.3-2.1
		c-0.5-1-2.8-1.7-0.8-2.9c1.5-0.9,4.7-0.7,5.1,0.3c1.2,3.8,4.8,1.4,6.8,3.2c1.1,1,0.9-0.9,0.8-1.8c0.4,0,0.9,0,1.3,0
		c0.8,1,1.2,2.2,3,1.8c4.4-0.8,7.6-4.2,12-5.1c1-0.2,2.7-2.5,1.1-4.1c-2.4-2.4-1.4-5.3-2-8.2c2.2,0.5,3.9,1,5.7,0.6
		c0.7-0.1,3-5.7,2.5-5.8c-4-0.8-4.7-6.3-9.3-6.2c0.4-1,1.4-0.9,2.2-1.2c-0.2-0.1-0.5-0.2-0.7-0.3c0.2,0.1,0.5,0.1,0.7,0.3
		c5.6,1,11.2,1.9,16.8,3.2c2.4,0.6,5.2,2.1,6.8,0c1.6-2.1-2.5-2.6-2.7-4.9c0.9,0,2.5-0.5,2.7,0.4c0.6,3.2,7.5,2.3,4.9,7.5
		c3.2,1.5,3.7,5.1,6,7.1c-1,1.6-3.4-0.3-3.6,2.5c3.3-0.1,7.1-1.3,8.4,3.4c0,0.2,0.6,0.2,0.9,0.3c3.4,0.9,6.3,5.1,5.7,8.4
		c0.3,0.3,0.6,0.5,0.7,0.8c-0.3-0.2-0.5-0.4-0.7-0.8c0,1.8-0.1,3.6-0.1,5.3c0.1-1,0.3-1.6,0.8-2c-0.3,0.7-0.6,1.3-0.8,2
		c-4.1,2-8.1,4-12.2,6c-1.5,0.7-1.6,1.6-0.9,3.2c1.5,3.2,1.4,3-2,3.4c-1.4,0.2-3,0-4.3,0.5c-3.3,1.5-6.1-0.1-9-1.2
		c-1.3-0.5-2.9-4.1-4.5-0.2c-0.9,2.1-4.2,1.1-4.9,3.6c-0.3,1.2-0.5,2.5,0.6,3.1c2.1,1.3,4,3.3,6.8,2.4c3.5-1.1,6.8-1.1,10.2,0.1
		c0.7-0.3,1.4-0.5,2.1-0.8c1.7,1.8,5.2,0.4,6.1,3.8c0.8,2.8,2.1,5.4,5.5,6.2c0.4,0.1,1.9,1,0.7,1.7c-4.2,2.3-0.4,3.8,0.7,4.5
		c4.5,2.5,8.2,6.4,12.7,8.6c4.3,2.1,7.8,6,13.1,6.6c-0.5-8.4-9.4-11.6-12-19.3c6.4,2.7,10.5,7.6,16,10.2c0.9,0.4,0.7,2.7,2,1.9
		c1.2-0.8,3.3-1.9,2-4.2c0.3-0.3,0.7-0.6,1-0.9c0.2,0.1,0.5,0.3,0.7,0.3c0.1,0,0.3-0.2,0.3-0.3c0.3-2.2-0.8-4-1.6-6
		c-0.1-0.2-0.1-0.4-0.2-0.5c-0.6-6.4-8.2-8.4-9.5-14.7c-0.3-1.5-2.4-3.2-2.5-5.8c0.8,0.4,1.3,0.5,1.5,0.9c0.8,1,1.5,2.6,3,2
		c2-0.9-0.7-1.8-0.3-2.5c0.5-0.9,1.4-1.9,2.3-2.3c1.4-0.7,1.5,0.7,1.9,1.6c1,2.5,3.2,3.7,5.2,5.1c0.4,0.4,0.8,0.7,1.2,1.1
		c-0.2,5.1,3.2,7.4,6.9,9.7c1.4-2.1,0.3-4.6,1.4-7c3,2.8,6.3,0.7,6.7-1.3c0.4-1.7-0.8-2.7,1.7-1.5c2,1,1.3-3.4,3.6-2
		c0.2-1.4-1.1-2.5-1.9-2.5c-4.5-0.4-7.1-4.7-11.4-5.2c0.3-1.3,1.8-2.6,0-4c0,0,0,0,0,0c-3.6-2.5-8.8-2.6-10.9-6.8
		c-1.2-2.4-3.5-2.7-5.1-4.1c0-0.6,0-1.3,0-1.9c1.6-0.4,4.6,0.1,2.1-3.1l0,0c2.5-0.8,4.6,1.9,7.3,0.6c-1.8-2.7-5.6-2.2-8-4.8
		c2.6,0,4.5,0,6.8,0c-0.9-3.8-2.3-5.7-5.9-2.6c0,0,0,0,0,0c0,0,0,0,0,0c-0.4,0-0.7-0.1-1.1-0.1c-0.1-0.6-0.2-1.3-0.3-1.9l0,0
		c0.1-0.3,0.2-0.6,0.2-0.9c1.1-0.2,2.1-0.4,3.3-0.7c-1.6-3.3-4.3-3.8-7.3-3.8c0.8-1.7-0.3-1.8-1.5-1.9c0,0,0,0,0,0c0,0,0,0,0,0
		c0-1-0.7-1.5-1.5-1.8c-0.4-0.3-0.7-0.7-1.1-1c-1.1-4.3-3-5.6-6.1-3.6c-2.5,1.7-3.1,0.1-4-1.5c0.2-0.6,0.6-1.7,0.5-1.7
		c-1.3-0.5-2.5-0.4-3.5,0.6c-0.6-0.1-1.6,0-1.8-0.3c-1.2-2.9,2.8-0.9,2.7-3.1c-0.6-1.6-2.4-1.1-3.7-1.7c0,0,0,0,0,0
		c1.9-1.2,2.9-2.5,0.1-3.7c-1.4-0.6-2.8-0.8-3.8-2.1c0,0,0,0,0,0c0,0,0,0,0,0c1.1-0.5,3.7,1,2.8-2.1c0,0,0,0,0,0
		c-2-7.6-9.3-7-14.7-9.1c-1.5-0.6-2.7,1.2-2.5,2.3c0.6,2.7,0.8,6.1,5,5.8c2.4-0.2,4.6,0.4,6.8,1.2c0,0.2,0,0.5,0,0.7
		c-1.9,0.1-3.8,0.1-5.7,0.2c-0.5,0.2-0.9,0.5-1.4,0.7c0,0,0,0,0,0c-1,0-2,0.1-2.9,0.1c-2.6,0.2-5.2,0.4-8.3,0.7
		c0.9-1.4,1.3-2.9,2.4-3.6c3.2-2.2,2.4-5.8,2.1-8.2c-0.4-2.3-4.2-1.8-6.6-1.7c-2.6,0.1-5,1.9-7.7,0.8c-3.3-1.4-5.2,2-8,2.5
		c-1,0.2-1.9,2.7,0.4,3.4c1.7,0.6,0.9,1.4,0.6,2.2c-0.7,1.7-1.2,0.1-1.6-0.3c-1-0.7-1.7-0.7-2.6,0.1c-0.9,0.8-0.9,1.8-0.5,2.7
		c0.5,1.1,2,2,0.7,3.5c-0.6-0.3-1.2-0.6-1.8-1c-2-0.9-3.7-2.9-2.7-4.6c1.8-3.2,2.3-7.7,7.1-8.8c2.5-0.6,4.8-2,7.4-3.1
		c-11.4-5.6-27.2,2.7-32.5,11.5c-1.6,2.6-0.1,2.9,1.7,3.6c2.3,0.9,5.2,0.5,6.8,3.3c-2.3,0.8-4.1-0.2-6-0.9c-1.1-0.4-2.6-1.6-3.5,0
		c-0.9,1.5-0.5,3.1,0.8,4.5c2.2,2.4,5.1,1.8,7.9,1.8c0.7,0.9,1,2.2,2.2,2.7c0,0,0,0,0,0l0,0c2,1.3,4.2,1,6.4,0.6
		c2.3-0.4-0.3,1.2,0.5,1.5c-0.4,0.4-0.8,0.8-1.2,1.1c0,0,0,0,0,0c0,0,0,0,0,0c-3.8-0.5-5.2,2.5-4.6,4.8c0.8,3.5-1.4,3.5-3.2,3.9
		c-1.2,0.3-2.4,0.2-2.9,1.4c-1.6,3.8-5.6,5-8.1,8c-1.9,2.3-4.6,3.2-6.2-0.9c-1.2-3-1.7-5.5,1.5-7.8c3.3-2.4,1.3-5.2-0.6-7.2
		c-2.4-2.6-3.5,0.8-4.4,1.9c-1.6,2-3.5,3.2-6.3,4.5c0.5-1.3,0.6-2,1-2.4c1.8-2.4,1.1-5.5,1.8-8.2c0.4-1.3-3.6,0.4-5.1-1.4
		c-0.4-0.5-1.1-0.7-2.1-1.3c3.2-1.1,4.4-4.9,8-3.8c-0.2-2.7-3-4.5-1.5-7.2c2.5-4.2-0.1-6.4-3.1-8.5c-2.1,0.2-4.9-1.2-5.6,2.6
		c-0.1,0.9-1.2,1.1-2.5,0.7c-3.7-1.2-5.6,1.5-6.5,4.2c-0.4,1.2-0.7,1.7-1.6,2.3c-3.9,2.4-3.9,5.4,0.2,7.5c2.4,1.3,4.9,2.2,7.3,3.3
		c-3.7,0.4-3.7,0.4-3.4,4.4c0.1,1-0.3,2.2-1.2,2.6c-3.2,1.3-5.8,4.1-9.4,4.1c-3.1,0-4.6,1.2-5,4.2c-0.2,1.4-0.5,2.9-2.1,3.5
		c-4.5-4.2-4.5-4.2,0.5-7.6c1-0.3,2.2-0.8,1.7-1.9c-0.8-1.8-1.9,0-2.8,0.3c0,0,0,0,0,0c0,0,0,0,0,0c-0.7-0.9-1.3-1.8-2.1-2.6
		c-1.8-2.1-5.6-1.4-7.2,1.2c-0.6,0.6-1.1,1.2-1.7,1.8c0,0,0,0,0,0c-1.7,2.2-3.9,1.3-5.9,0.7c-1.9-0.5-4.1-1.5-5.8-0.7
		c-7.3,3.6-11.1-4.3-17.1-5.1c-0.4-0.1-2.9-2.5-1.5-4.8c1-1.8,0.3-3.6-1.9-3.5c-4.1,0.3-8.2,0.9-12.3,1.7c-0.8,0.1-2.6,0.4-1.7,2.2
		c0.7,1.5,1.6,0.9,2.8,0.6c3.6-0.7,7.2-2.2,11.1-1.4c-3.5,1.5-7.2,2.7-10.9,3.6c-3.1,0.7-6.1,1.8-6.4,5.3c-0.3,4-1.8,6.4-6.4,7.2
		c1-1.5-1.7-4,2.1-4.1c1.2,0,1.1-1,0.9-1.8c-0.5-2.9-6.5-6.5-9.3-5.9c-7.1,1.5-14,1.8-20.8-1.9c1.7-2.9,4.4-3.5,6.9-3.2
		c2.6,0.3,4.3-0.7,4-2.9c-0.3-2.5-2.4-3.7-5.1-3.3c-6.4,0.9-11.8-2.1-16.1-6c-3.4-3.1-5.9-3.6-9.4-1.4c-2,1.3-3.9,2.4-6.6,1.6
		c1.1-1.9,4.2-2.3,3.4-5.5c-2.2,1.4-4.1,2.6-6,3.8c-1,0.6-1.6,2.7-3.2,1.3c-1.4-1.3-0.5-2.7,0.4-4c1.2-1.6,2.4-3.2,1.5-5.3
		c-1.2-0.3-1.5,0.8-2.1,1.1c-3.7,1.7-6.5,6.3-11.6,3.8c1.9-2.2,0.1-2-1.2-1.6c-3,1-6,2.2-9,3.3c-1.4,0.2-3-0.1-4.1,1.2c0,0,0,0,0,0
		c-2.8,1.5-6,0.2-8.7,0.8c-3.3,0.7-7,1.7-9.8,4.5c-1.6,1.6-4.8,1.6-5.9-1.1c-2.2-5.4-7.7-4.6-11.5-5.2c-4-0.7-8.5-0.4-12.7-0.4
		c-3.5,0-7.5-0.4-11.1,1.6c-21.5,12-42.3,24.9-61.9,39.9c-13.8,10.5-26.3,22.4-39.4,33.7c-6,5.2-11.2,11.4-17,16.8
		c-2.1,1.9-1.7,5.1-3.4,6.3c-2.5,1.8-3.8,4-5.2,6.7c5.2,0.2,3,2.7,1.2,4.4c-2.4,2.3-2.3,4.2,0.8,5c1.3,0.4,3.1-0.8,4.7-1.3
		c0,0.4,0,0.8,0,1.2l0,0c-4.6,6.7-9.7,12.9-15.7,18.4c-3.6,3.4-7.9,6.1-10.2,10.7c-0.6,0-1.3-0.1-1.9,0.1c-1.2,0.4-2.3,1.1-2.6,2.5
		c-0.1,0.3,0.5,0.9,0.8,1c1.3,0.4,2.1-0.5,2.9-1.3c0.3-0.3,0.5-0.8,0.8-1.2c0,0,0,0,0,0c1.4-0.9,2.9-1.7,4.1-2.8
		c9.1-8.9,18.3-17.6,28.2-25.6c2.8-2.3,6.6-4.8,7.3-7.7c0.8-3.8,2.6-5.1,5.5-6.4c2-0.9,3.8-2.4,4.7-4.2c1.5-3.3,4.7-4,6.9-6.1
		c-0.1,3.4-2.8,4.8-4.6,6.8c-1.3,1.5-1.8,2.5-0.1,3.8c0,0,0,0.1,0,0.1c0,0,0.1,0,0.1,0c0,0,0,0,0,0l0,0c0,0,0,0,0,0
		c0,0-0.1-0.1-0.1-0.1c5.4-2.6,10.7-5.3,15.1-9.5c1.2-1.2,0.8-2.8,1.4-4.1c1.6-3.2,4.9-1.2,7.2-2.3c0.5-0.2,0.7,0.4,0.9,1.1
		c1.2,3.3,2.1,7.3,7.2,5.9c1.2-0.3,2.3,0.1,3.3,0.8c2.4,1.8,4.8,2.7,8.6,0.6c-1.7,3-5.1,5.3-0.4,7c0.2,0.1,0.3,0.9,0.3,1.3
		c-0.4,2.6-1.2,6.1,2.2,6.4c3.9,0.4,0.8-4.1,2.8-5.8c2.8,1.8,0.2,6.1,3.5,7.5c0,0,0,0,0,0c-0.1,0.3-0.2,0.7-0.3,1
		c-0.6,0-1.2,0.1-1.8,0.1v0c-1.4-0.6-2.9-2-4.3-0.2c-1.8,2.4-2.7,5.1-1.5,8.1c0,1.7-1,3-1.8,4.4c-0.6,1.1-1.1,3.5,1.8,1.8
		c1.3,0.1,1,1.1,1.1,1.9c0,0,0,0,0,0c-0.4,1-2.4,1.8-0.2,3l0,0v0c0.6,0,1.2,0,1.8,0c0.5,1.6-0.4,2.8-1.2,4.1
		c-2,3.1-1.3,6.4-0.2,10.2c1.5-3.2,3-5.6,3.4-8.4c1.8-0.1,2.8,1.4,4.1,2.2v0h0l0,0l0,0l0.4-0.1c-0.8,1.1,0.2,2.5-1.1,3.9
		c-1,1.1,0.9,1,1.7,0.9h0l0,0c0,0.4,0,0.9,0,1.3c-3.8,3.2-3,7.5-3,11.4c1.8,0.9,3.8-3.7,4.8,0.7c-0.3,0.4-0.6,0.7-0.9,1.1
		c0,0,0,0,0,0c0,0,0,0,0,0c-2.8,2.7,1,6.2-1.3,9.3c-0.7,1,1,1.5,2.2,0.6c0.7-0.5,1.5-1.6,2.4-0.2c0.7,1.2-0.1,1.7-1,2.3
		c-2.8,1.7-5.7,3-5.2,7.5c0.3,2.5,0.3,4.8,2.4,5.9c0.6,0.3,1.4,0.8,1.4,1.3c0.3,4,3.1,2.2,5.1,2.4c-0.2,0.9,0,1.6,1.1,1.8
		c-3.8,3.4,0.1,7.2,1.3,8.6c3.7,4.5,4.2,13.4-1,17.8c1.4-4.6-2.1-4-4.2-5.4c-5.2-3.4-5.5,0.1-5.8,3.7c-0.5,5.3,0,11-2.2,15.9
		c-4.4,9.8-6.9,20.4-12.8,29.6c-0.7,1.1-1.3,2.5-1.3,3.7c0.6,9.8-5.3,18.6-4.3,28.7c0.4,4.6-1.2,9.5,1.3,13.9c1.7,2.9,2,5.5,1.8,9.2
		c-0.2,4.9,0.1,10.9,3.1,15.8c0.7,1.2,1.3,2.9,1.2,4.3c-0.5,4.3,2,5.7,5.4,7.3c5.1,2.5,10.8,5.3,11.6,11.6
		c1.5,13.2,4.5,25.7,12.3,36.8c2.9,4.2,1.4,7.2-3.5,8.2c1.1,4.2,3.8,6.4,7.7,8.6c3.3,1.9,8.5,5.5,7,9.7c-3,8.2,4.4,10.1,7.1,14.7
		c0.9,1.5,2.6,2.5,3.4,4.2c0.5,1,0.5,3.1,2.4,2.2c1.6-0.7,2.3-2.5,1.4-4.3c-0.7-1.5-1.5-3.7-2.7-4.1c-5.4-1.7-4.2-6.3-5-10
		c-0.8-4-0.7-8.6-2.7-11.9c-5.4-9.1-9.8-18.8-13.8-28.5c-1.7-4.1-2.6-9.6,0.8-14.4c1.5,1.6,3,2.7,4.9,3.5c1.8,0.8,3.1,1.9,3.3,4.8
		c0.4,5.6,1.9,11.2,4.9,16.5c2,3.5,5.9,6.2,6.6,9.4c1,4.8,3.9,7.2,7,9.9c1.1,1,3.9,2.1,0.4,3.9c-1.2,0.6-2,3.1-0.4,3.9
		c4.7,2.4,6.7,6.9,9.9,10.6c5.3,6,9.5,12.2,11.4,20.1c0.8,3.5,2.4,6.3,0.6,10.3c-2.5,5.2,0,9.8,5.6,12.4c2.4,1.1,4.1,2.8,5.6,4.9
		c0.9,1.2,1.6,2.6,3.2,3c5.5,1,9.9,3.9,14.2,7.3c0.9,0.7,1.9,1.4,3,1.7c4.6,1.3,8.6,4.2,12.9,5.7c7,2.4,13.9,8,21.9,2.4
		c4.3-3,7.7-0.5,11.1,2.2c5.6,4.6,9.9,11.4,16.8,13.6c6,1.9,12.2,3.8,18.5,5.3c2.3,0.6,4.6,2,7,0c0.7-0.6,2.3-0.2,2.1,1.1
		c-0.6,5.6,4.2,7.8,7,11.1c2.3,2.8,4.8,4.6,3.4,9.2c-1.1,3.6,3.2,3.7,5.5,4.3c2.6,0.7,0-2,1.6-2.8c0.8,4.8,8.9,4.5,7.4,11.2
		c0,0.2,1.4,1,1.5,0.9c2.6-2.8,4.8,1,7.5,0.4c4.9-1.1,8.1,3.2,11.4,5.8c2,1.6,2.8,0.7,4.2,0.3c1.9-0.6,2.3-1.7,0.8-3.3
		c-1.2-1.3-1.2-2.2,0.7-2.8c1.7-0.5,2.6-1.7,3.3-3.5c0.8-2.4,3-2.5,5-1.8c2.6,1,5.6,5,5.3,5.3c-2.9,3.4,0.6,4.6,1.7,6.7
		c2.1,3.9,5.2,7.2,3.9,12.6c-0.7,2.8-2.1,7.7-0.2,9.5c4.2,4,0.7,5.5-1.4,7.4c-3.1,2.8-5.5,6-7.8,9.5c-1.4,2.1-3.5,4.1-6.5,4.8
		c-2.1,0.5-7.4,0.1-3.2,5.2c0.8,1-1,1.9-1.2,3c-0.7,3.9-5.9,5.5-4.6,10.6c0.5,2.1-0.6,4.4,2.3,5.7c2.9,1.4,2.7-2.5,5-2.4
		c1.3,3.9,1.5,6.9-3.6,8.8c-6.6,2.5-8.1,5.6-5.1,10.2c1.9,2.8,1,3.9-1.4,5.4c1.6,0.9,2.7,1.8,3.9,2c7.8,1.2,10.4,8.3,14.2,13.4
		c4.5,5.9,6.7,13.5,11.8,19.3c3.6,4,5.4,9.1,8,13.6c3.8,6.6,11.5,9.5,18.3,11.8c7.5,2.6,13.3,7.3,19.9,11.1c0.8,0.5,1.2,1.2,1.2,2
		c0.2,6.9,2.2,14,0.3,20.8c-1,3.6-0.9,6.9-0.7,10.3c0.3,4.1,0.4,8.1-0.7,12c-2.1,7.3-3.6,14.7-2.4,22.3c0.9,5.7,0.5,11.1-2.8,16.1
		c-1.5,2.3-1.6,6.3-3.6,7.4c-3.3,1.8-1.6,2.7-0.4,4.3c1.7,2.3,2.8,4.4,0.7,7.5c-1.9,2.7,0.3,5.3,3.3,4.8c5.9-0.9,4.4,1.8,2.8,4.8
		c-0.1,0.1-0.1,0.1-0.2,0.2c-1,1.1-0.5,2.5-0.6,3.8c2.4,7.7-6.3,2.3-7.6,6.6c4,0,7.2,0.7,6.6,5.4c0,0,0,0,0,0c0,0,0,0.1,0,0.1
		c-0.8-0.5-1.5-1.5-2.5-0.7c-0.3,0.3-0.6,0.9-0.5,1.3c0.5,1.5,1.9,1,3,1c0.3,1.1,1.1,1.3,2.2,1.1c0,0,0,0,0,0c0,0,0,0,0,0
		c1.1,0.4,2.2,1.2,3.3,1c9.1-1,18.7-0.9,26.3-6.9c2.6-2,6.5-2.2,8.2-5.7c-0.5-0.2-0.7-0.2-0.8-0.3c-2.6-0.5-7.1,0.9-7.5-1.9
		c-0.3-2.8,4.2-2.6,6.8-3.5c1.6-0.5,6.8-9,6-9.3c-2.4-0.9-3.5-2.5-1.9-4.4c1.4-1.7,3.7-0.5,5.7-0.2c5.3,0.7,9.3-1.5,9.5-6.4
		c0.1-3.6,1.5-3,3.9-3.3c9.7-1.1,19.5-2.2,25.5-11.6c-1-1.5-4.6-0.5-3.6-2.6c2.5-5-2.2-2.9-3.4-4.1c0.4-0.3,0.8-0.7,1.2-1
		c0,0,0,0,0,0c0,0,0,0,0,0c2.8,0,5.6-0.3,8.4-0.1c10.3,0.8,20.3-8.6,22.3-15.7c0.6-2.2,2.3-2.6,4-3.2c0,0,0,0,0,0c0,0,0,0,0,0
		c0,0.6-0.1,1.6,0.7,1.5c1.2-0.1,1.3-1.3,1.4-2.3c0,0,0,0,0,0c0,0,0,0,0,0c1.7,0.1,3.2-0.2,3.9-2.1c0-0.4,0-0.7,0-1.1c0,0,0,0,0,0
		l0,0c3.9-4.2,7.8-8.5,11.7-12.8c1-1.1,2-2.7,1.2-4.1c-2.1-4.1,0.8-6.6,3.1-8.9c4.5-4.2,9.3-8.1,15.1-10.4c1.5-0.6,3.4-1.3,4.2-2.5
		c3.1-4.4,7.5-5.1,12.3-5.4c4.6-0.2,9.3-3.8,10.3-6.6c2.4-6.7,7.8-11.3,10.2-18.2c2.6-7.5,6.1-14.5,6.7-22.6c0.2-2.3,0.6-4.6,2-6.6
		c0.1,0.1,0.3,0.1,0.3,0c0.7,0,1.4,0,1.8-0.9l0,0c1.6-0.7,2.7-2,3.4-3.5c2.9-6.5,8.2-11.1,12.9-16.2c5.7-6.3,9-13,6.5-21.8
		C740.6,690.6,740,688.8,737.3,689.3z M552.6,301.8c0,0,0.1,0,0.1,0c-0.1,0.1-0.2,0.1-0.3,0.2C552.5,301.8,552.6,301.8,552.6,301.8z
		 M573.5,71.3C573.5,71.3,573.5,71.3,573.5,71.3c0.1,0,0.1,0,0.2,0C573.6,71.3,573.5,71.3,573.5,71.3
		C573.5,71.3,573.5,71.3,573.5,71.3C573.5,71.3,573.5,71.3,573.5,71.3z M215.5,196.7C215.5,196.7,215.5,196.7,215.5,196.7
		C215.5,196.7,215.5,196.7,215.5,196.7C215.5,196.7,215.5,196.7,215.5,196.7z M211.6,192.3C211.6,192.3,211.6,192.2,211.6,192.3
		c0.1-0.1,0.1,0,0.1,0C211.7,192.3,211.7,192.3,211.6,192.3z M210.5,183.6C210.5,183.6,210.5,183.6,210.5,183.6
		C210.5,183.6,210.5,183.6,210.5,183.6C210.5,183.6,210.5,183.6,210.5,183.6z"/>
	<path class="st1" d="M918.1,424.2c0.3-6-2.7-6-7-6.3c-6.6-0.5-11.6,1.7-15,7.4c-0.5,0.8-1.4,1.6-1.9,1.1c-2.8-2.7-8.2,0.1-10-5.2
		c0.1,7.6-4.5,12.3-8.3,17.7c-2.5,3.5-3.9,8.8-3.1,13.5c0.9,4.7-0.5,8.7-2.8,12.3c-6,9.7-13.9,18.1-18.5,28.8
		c-2.7,6.4-5,12.8-7.5,19.3c-0.4,0.9-0.7,2.5-0.2,2.9c3.5,3.1,1.4,7.2,2.2,10.7c1.9,8.3-0.7,16.2-3.9,22.7c-3.3,6.7,0.6,12.1-0.8,18
		c-0.7,3,2.9,4.6,3.8,6.7c2.6,6.1,9,10.5,7.7,18.2c-0.3,1.7,0.7,4.7,2,5.4c3.9,2.1,5.6,6,8.5,8.9c2.8,2.9,5.1,3.1,8,0.2
		c2.6-2.6,5.9-5.5,9.4-5.1c3.8,0.5,5.5-1.6,7.5-3.6c1.5-1.5,2.7-3.3,4.2-4.9c1.7-1.8,3.3-5,5.7-4.1c2.9,1,0.8,4.5,1.4,6.7
		c0.1,0.3,0.4,0.5,0.6,0.8c2.4-1,3.7-2.8,4.4-5.4c9.6-33.4,15.2-67.5,16.7-102.2c0.5-10.8,0-21.7,0.4-32.5
		C922.2,445.4,917.6,435.1,918.1,424.2z"/>
	<path class="st1" d="M789.2,156c-3.6-4.9-6.7-9.2-9.8-13.5c1.5-2.2,1.5-2.2-1.9-4.3l0,0v0c0.1-2.8-1.8-3.4-4-3.7
		c0.3-1.7-1.6-1.9-2.1-3.1c0.1-1.2-0.9-1.7-1.6-2.3c-40.5-36.2-86-64.2-136.7-83.9c-4.9-1.9-10.2-3.3-16-2.7c1.9,3.4,5.9,3,7.4,5.9
		l0,0h0c-0.4,0.4-0.9,0.9-1.3,1.3c0,0,0,0,0,0c0,0,0,0,0,0c-1.1,0.2-2.3-0.6-3.7,0.5c2.2,1.2,5.1,1.9,6.2,3.7
		c2.2,3.6,2.5,5.2,4.1,5.1c5.4-0.5,9.7,2.7,14.8,3.6c6.8,1.1,13.2,4.8,17.4,9.8c5,6,7.9,13.8,11.7,20.8c1,1.8,1.4,3.1-1.2,3.5
		c-0.1-0.9,0.2-2-0.7-2.6c-0.2-0.1-1,0.3-1,0.6c-0.3,1.6,0.5,2.5,2,2.7c0,0,0,0,0,0c0,0,0,0,0,0c1.4,1.5-2,2.1-0.7,3.7
		c0.1,0.1-2.4,1.4-0.2,2.6c1.4,0.8,3.1,2.9,4.2,1.5c2.7-3.5,4.5-0.6,6.6,0.3c1,1.1-5,4.1,1,3.9c2.2,2.1,3.4,4.8,5.1,7.9
		c-2.3-0.2-3.2-1.4-4-2.6c-1.7-2.6-4.6-3.2-7.3-4c-3.2-1-2.5,1.1-1.8,2.9c-1.1,1.8-2.4-1.7-3-0.1c-0.5,1.2-0.1,3,0.4,4.2
		c1.8,4.2,6.1,5.7,11.1,4c-1.7-2.2-4.4-3.5-5.6-6.1c3.6,0,5.4,3.8,8.8,4.1c-0.2,0.8-1.3,1.9,0.1,2.3c0.9,0.3,0.9-1,1-1.8
		c0,0,0,0,0,0c0,0,0,0,0,0c3.7,1.3,1.3,2.8,0.2,4.3c-1.6,0.4-2.3,1.4-2.2,3.1c0,0,0,0,0,0c0,0,0,0,0,0c0.3,0.7,0.7,1.3,1,2
		c-1.6,0.7-3.1-0.1-4.7-0.2c-1.6-0.1-2,0.6-1.4,2c0,0.3,0,0.6-0.1,0.9c-0.5,2-5.7-1.8-3.9,3.1c-0.7,0.6-1.9,1.2-1.9,1.9
		c-0.1,1.4,1.4,0.9,2.2,1.1c0.9,0.2,2-0.2,2.5,1c-1.2,0.3-2.7-0.7-3.4,0.6c-0.4,0.7,0.7,1.2,1.4,1.5c-0.4,1.3,1.6,3.9-1.9,3.5
		c-1.2-0.1-1.2,0.8-1,1.6c0.3,1.1,1.2,0.7,2,0.7c1.5,1.1-1.2,3.2,0.9,4.2l0,0c2.1,3.5,3.1,7.4,3.5,11.5c2.7-0.2,5.2-3.2,7.4-0.6
		c1.8,2.1-2.5,1.7-2.1,2.9c0.7,2.3-1.2,1.1-1.6,1.2c-1.3,0.4-1.4,1.7-1.4,2.3c-0.1,1,1.2,0.5,1.9,0.7c0.5,0.1,2.4-0.3,1,1.1
		c-2.8,2.8,1.3,3.3,1.6,5.1c0.1,0.7,2,0.6,1.9,1.9c-0.4,5.1,3.2,8.6,5.3,12.6c2.6,5,6.2,8.1,12.3,5.9c2.2-0.7,3.3,1,2.9,2.4
		c-1.6,4.5,4.3,4,4.4,7.1c2.3-1.9,3.7,3.8,6.1,0.7c-0.1-0.7,1.3-1.2,0.2-2l0,0c1.2-0.8-0.3-2.3,0.8-3.1c1.9-1,0.8-2,0-2.9
		c0.4-2.5,4.6-3.5,2.9-6.9c1.5-2.2,0.1-3.3-1.6-4.2v0c-0.1-0.2-0.1-0.5,0-0.8c1.2-0.5,2.4,0.8,3.1,0.6c2.8-0.7,0.9-1.8,0-2.8
		c0,0,0,0,0,0c0.6-0.7,1.2-1.4,1.8-2.1c4,0,4.6-0.6,3.2-4.1c-0.1-0.2-0.1-0.4-0.2-0.6c0,0,0,0,0,0c0,0,0,0,0,0c0,0,0,0,0,0
		c-0.6-0.6-1.1-1.3-1.7-1.9c0.6-0.2,1.1-0.3,1.7-0.5c1.2,0.1,2-0.4,1.9-1.6c-0.1-1-0.9-1.2-1.8-1.2l0,0c-0.3-0.5-0.9-1-0.9-1.6
		c0-0.9,0.7-0.6,1.3-0.6c3.1-0.4,6-2.5,9.4-1.3c0-0.5,0.1-1,0.1-1.5c0.4,0.4,0.8,0.8,1.2,1.1c2.8,1.5,5.8,0.8,8.5,0.2
		c1.7-0.4,4.1,0,5.4-2.4c4.8-8.9,5.9-6.3,13.7-5.1c5.9,0.9,12.5,3.2,17.8-2.2c-4.1-2.7-8-6.2-13.4-6.7c0,0,0,0,0,0
		c-0.1-0.3-0.2-0.5-0.1-0.8c4.6,0.2,2.1-3.5,2.9-5.4c0,0,0,0,0,0c0,0,0,0,0,0C780.9,149.5,782.5,155,789.2,156z M635.6,51.8
		C635.6,51.8,635.6,51.8,635.6,51.8c0.1,0,0.2-0.1,0.2-0.1C635.7,51.8,635.6,51.8,635.6,51.8z"/>
	<path class="st1" d="M905.9,377.5C906.1,377.6,906.4,377.5,905.9,377.5L905.9,377.5z"/>
	<path class="st1" d="M885.1,336.2c-0.6-0.1-1.4,0.1-1.8-0.3c-1.4-1.2-3.2-2.2-4.3-0.6c-1,1.5,0.1,3.6,1.6,4.9
		c8.8,7.5,10,17.7,10.3,28.3c0.1,3.1-1,3.2-3.5,2.1c-3.8-1.7-7.8-2.9-11.8-4.3c-2.3-0.8-5.8,2-4.8,3.9c2.3,4.5,1.6,9.4,2.1,14
		c0.8,6.9-2.1,13.9,1.1,21.1c1.3,2.9,0.2,6.7,5.3,6.1c1.6-0.2,2.1,1.3,2.6,2.6c0.6,1.5,0.8,3.2,2.6,4.5c2.1-1.9,3.9-5.2,7.7-3
		c0.3,0.2,1.4-0.3,1.7-0.8c2.7-4.1,4.8-8.5,3.5-13.4c-1.3-4.6-0.2-9.1,2.1-12.3c2.2-3.2,2.3-5.9,1.9-9.2c-0.2-1.8-1-4.2,0.9-5
		c1.6-0.7,2.5,1.8,3.8,2.7c0,0,0,0,0,0c3-0.6,0.9-5.2,4.8-4c0.3,1,0.6,2,1,2.9c0,0,0,0,0,0c0.4,1.2,0.8,2.3,1.3,3.8
		c0.8-1.7,0.9-2.8-0.5-3.6h0c0.1-1.5,0.2-2.9-0.8-4.1c0,0,0,0,0,0c-3.4-18.8-9-37.1-15.3-55.2c-0.5-1.4-0.1-4.3-3-3.6
		c-2.5,0.7-2,3.1-1.3,4.6c1.7,4.1-2.4,7-1.7,10.8C891,333,883.8,331.6,885.1,336.2z"/>
	<path class="st1" d="M905.9,377.5C905.9,377.5,905.9,377.5,905.9,377.5c-0.1,0-0.1,0-0.1,0C905.9,377.5,905.9,377.5,905.9,377.5z"
		/>
	<path class="st1" d="M660.5,293.6c0.9-0.5,1.3-1.6,0.8-2.6c-0.6-1.2-1.5-1.5-2.9-0.9c-2.9,1.1-5.7-0.6-8.5-0.6
		c-3.6,0-2.9-1.7-1.8-3.7c0.4-0.6,1.6-0.9,0.6-1.7c-0.6-0.5-1.4-1.6-2.5-0.8c-1.1,0.8-2,1.8-3.6,0.8c1-3.1,3.2-5.9,5.6-7.2
		c2.7-1.4,0.8-4.8,3.5-5.4c-3.1-1.3-5.9,0.3-7.5,2.2c-2.9,3.5-6.3,7-7.7,11.4c-1.5,4.6-4.2,7.3-8.7,8.5c0.4,1.5,3.8,0.1,2.3,2.8
		c-0.9,1.7,0.9,5.6,2.8,6c1.3,0.3,2.6,0.5,3.9,0.9c2.5,0.8,4.9,0.3,7.4,0.1c2.6-0.2,4.7,2.2,7.4,1.7c-0.4,0.5-0.7,1-1.1,1.5
		c-1.6,1-3.2,2.1-5.2,3.3c4.3,0.7,4.3,0.7,6.1-2.5c3.6,1,3.3-3.6,6-4c0.9,2.8-0.7,5.4-1.1,7.7c1.1,1.6,2.8-2.5,3.1,0.9
		c0.2,1.8,1.5,2.3,2.8,1.9c3.1-0.9,1.8-4.2,3.1-6.2c0.6-1,0.4-2.4-1.5-1.6c-0.8-2.9-4.8,0.5-5.4-2.8c0.6-1.1,1.3-2.2,1.9-3.3
		c1.4-0.9,3.5-1.1,4-3.4c-2.6-0.6-3.8,1-5.1,2.5c0,0,0,0,0,0C658.5,297.2,657.7,295,660.5,293.6z"/>
	<path class="st1" d="M486.7,521.3c-4.5-2.3-10.4-2-13.6-6.9c-0.3-3.8-2.3-0.7-3.6-0.9c-3-1-6-1.8-8.3-4.6c-1.3-1.6-3.9-1.5-6.1-1.5
		c-1.6,0-3.6,0.5-4.9-0.2c-7.7-4-14,0-20.5,3c-2,0.9-1.9,2.4-1.3,4.1c-1.6,0.4-3.7-0.5-4.6,2c1.7-0.4,3.4,0.5,4.7-1
		c3.8-2.2,8.7-2,12.1-5.5c1-1,5.2,0.7,5.1,1c-2.3,4.8,2.3,3.1,3.3,3.1c6.3-0.1,11.5,4,17.6,4.2c0.7,0,1.9,0.5,2.1,1.1
		c1.6,5,5.7,6.1,10.1,6.8c0.5,0.1,1.3,0.4,1,1.5c-1,1.5-4.2,1.5-3.3,4.7c7.7-0.7,15.7,0.6,23.3-2.9
		C496,525.3,491.2,523.6,486.7,521.3z"/>
	<path class="st1" d="M383.2,50.7c5-3.6,10.8-4.8,16.1-7.2c0.7,0.3,1.4,0.5,2.1,0.8c-2.8,1.4-5.6,2.7-8.3,4.2
		c-0.9,0.5-2.3,0.7-1.8,2.4c0.4,1.5,1.4,1.6,2.6,1.6c2.6,0,5.1,0,7.7,0c-3.9,1.2-7.8,1.6-11.7,2.1c-1.4,0.2-3.2,0.3-3.2,2.4
		c-0.1,2.3,1.6,1.9,3.1,2.1c3.5,0.3,6.9,0.6,10.4,0.4c4.1-0.2,8,0.7,10.6,4.8c-3.9,0.7-7.5,0-10.7-0.9c-5-1.5-9.9-0.4-14.8,0.1
		c-3.4,0.4-4.9,4.6-2.8,6.7c1.4,1.4,3.3,1.3,5.2,1.3c1.2,0,2.9-0.7,3.6,0.7c0.7,1.4-1,1.8-1.5,2.7c-1.8,2.8-1,4.4,2.4,4.2
		c2.6-0.1,5.3-0.7,7.9-0.5c7.9,0.5,15-2.7,22.5-4c1.6-0.3,2.2-2.1,4.7,0.7c4.3,4.9,11.4,5.6,18.1,4.1c2.2-0.5,2.2-2.1,2-3.9
		c-0.4-0.4-0.8-0.9-1.3-1.3c0,0,0,0,0,0c0,0,0,0,0,0c2.1-3.8,5-2.3,7.4-0.7c1.9,1.2,2.7,0.3,3.6-0.8c1.1-1.3,0.7-2.4-0.8-3.2
		c-2.7-1.5-3.2-5.1-6.2-6.5c-0.9-0.4-2.8-2.7-1.1-3.6c4.3-2.3,3.5-7.7,7.1-10.4c1.9-1.4,2.3-3.8,0.3-5.1c-2-1.3-4.7-3.3-7-1.2
		c-3,2.8-5.7,6-7.7,9.6c-1.2,2.1-2.8,3.7-4.3,2.8c-2.5-1.5,0.5-3,1.1-4.4c1.1-2.5,4.1-5-0.5-7.3c-1,2-1.2,4.9-4.5,4
		c-0.4-0.8-0.8-1.5-1.2-2.3c0,0,0,0,0,0c0,0,0,0,0,0c-3.8-5.2-8.6-1.1-14.1-0.6c2.3-1.5,3.6-2.2,4.8-3.1c0.5-0.4,1.6-1,0.5-1.8
		c-0.5-0.3-1.3-0.1-2-0.1c0-0.3,0-0.7,0-1c1.4-2.2,1.7-5.6-0.7-5.5c-5.1,0.2-9.6-2.7-14.4-1.9c-5.2,0.9-10.6-0.5-15.3,4.6
		c-3.1,3.3-8.7,5.7-13.7,7.2c-5.4,1.6-7.8,4.7-7.1,10.7C374.4,51.1,379.9,53.1,383.2,50.7z"/>
	<path class="st1" d="M528.2,142.6c2,0.1,4.2-0.3,4.6-2.1c0.6-2.3-1.7-2.7-3.6-3c-0.9-0.1-3.3,1-1.8-1.7c0.6-2.5-0.8-4.1-2.5-5.5
		c-2.3-1.9-4.6-3.7-6.5-5.9c-1.5-1.7-5.2-1.4-4.7-5.3c0.2-1.1-1.9-0.8-3-0.4c-1.9,0.7-2.5,2.4-3.4,4.1c-2.2,4.4-3.3,9.5-8.1,12.2
		c-0.4,0.2-0.7,1.2-0.6,1.7c0.2,1.1,1.2,0.8,2,0.9c1.4,0.2,3.5-0.4,2.6,2.2c-1.5,4.5,1.7,3.9,3.5,2.7c3.1-1.9,7-2.6,9.2-6.1
		c0.8-1.3,2-3,3.9,0C521.6,139.4,524.1,142.4,528.2,142.6z"/>
	<path class="st1" d="M538.8,32.4c-4-2.9-8-5.9-13.9-4.7c1.5,3.2,4.1,4.2,6.8,4.8c1.3,0.3,2.9-0.6,3.7,1.2c0,0,0,0,0,0
		c0.1,1.9,0.2,3.6-2.5,3.9c-1.9,0.2-2.5,2-2.7,3.7c-0.2,2.1,1.8,1.4,2.6,2.1c3.5,3,8.2,2.2,12.2,3.7c5.7,2.1,12.2,4.6,18.8,2.5
		c0.6-0.2,0.9,0.1,1,0.6c0.9,3.5,3.9,2.4,6.2,3.1c4.4,1.3,6.2-3,10.3-3.2c-5.1-5.4-11.2-5.9-17.2-6.5c-7.6-0.7-15.2-1.1-21.6-6.2
		c0.4-0.4,0.8-0.7,1.2-1.1c1.2-0.3,3.8,1.7,2.8-1.8c-0.4,0.1-0.8,0.2-1.2,0.2h0l0,0C543.8,32,541.3,32.2,538.8,32.4z"/>
	<path class="st1" d="M863.5,276.2c1.8,5.2,3,10.9,6.1,15.2c4.1,5.7,5,6.3,3.5,13.1c-0.1,0.4,0.2,0.9,0.4,1.3c1,1.7,1.6,3.3,0,5
		c-1.2,1.3-0.5,1.9,0.8,2.6c2.9,1.4,3.3,3.3,1.2,6c-0.7,0.9-1.5,2.3-0.8,3.8c4.5-1.8,8.9-0.5,14.2,0.5c-1.8-2.7-2.4-4.9-1.5-7.4
		c0.4-1.3,0-2.9-1.1-3.7c-3.5-2.8-4-7.1-5.7-10.7c-2.4-4.9-4.6-9.9-7.8-14.4c-1.3-1.9-2.1-3.1-1.7-5.4c0.5-2.8,0.8-5.9-2.4-7.4
		c-2.3-1.1-4.1-1.9-2.5-5.1c0.8-1.6-0.8-2.8-2.5-3c-2.4-0.2-1.4,1.8-1.4,2.8C862.6,271.7,862.7,274,863.5,276.2z"/>
	<path class="st1" d="M516.3,548.3c0.3,0.5,1.7,0.6,2.3-0.1c2.4-2.5,4.2-6.4,8.6-3.1c3.5-3.7,7.8-2.5,12-1.9c1,0.1,2-0.3,2.3-1.5
		c0.2-0.9-0.5-1.7-1.3-2c-3.8-1.2-6.4-4.3-9.6-6c-7.2-3.9-15.6-1.2-23.4-2.5c-0.1,0.4-0.1,0.9-0.2,1.3c0.5,0.3,1,0.7,1.6,1
		c3.2,1.7,0.8,5.2,2.5,7.5c-1.8,0.9-3.5,1.3-5.6,0.9c-2.6-0.4-5.4-1.1-8.5,0.3c2.4,2.3,4.3,3.4,7.5,3.3
		C508.4,545.5,513.5,542.6,516.3,548.3z"/>
	<path class="st1" d="M458.8,25.3c-1.8-5.2-5.7-4.8-9.9-4.3c-5.7,0.7-10.1,5.2-16,5.4c-0.1,0-0.2,0.3-0.4,0.6
		c1.9,0.9,3.7,1.8,5.9,1.6c0,0.7,0,1.3,0,2c0.6,3.4,3.3,2.2,5.1,2.1c9.5-0.5,18.9-2.6,28.6-1.1c3.4,0.5,6.4-1.3,9.5-2.7
		c0.8-0.4,2.2-0.6,1.6-2c-0.4-1-1.6-1.4-2.5-0.8c-2.3,1.3-4.3,0.6-6.5-0.4c-0.3-1.7,3.4-2.4,1.4-3.9c-1.6-1.1-4.8-0.8-5.8,1.1
		c-0.8,1.5-2,2-2.9,3.1C465.4,28,459.6,27.7,458.8,25.3z"/>
	<path class="st1" d="M481.5,46.5c0.3,0.7,0.7,1.3,1,2c0-0.1,0.1-0.1,0.2-0.2c0,0.1-0.1,0.1-0.2,0.2c-1.8,3.7-3.4,2.3-5.5,0
		c-1.8-2.1-4.5-2-6,0c-1,1.4-1.7,3.7,1.5,5.1c2.3,1,3.8,3.5,4.1,6.3c0.2,1.7,1.9,3.9,3,2.8c3.4-3.5,8-1.4,11.4-3.4
		c2.2-1.3,4.8-3,5.2-5.6c0.1-0.7-0.8-5-4.6-3.8c3-1.5,5.9-2.6,8.7-4c1.9-1,0.3-1.3-0.6-1.6c0-0.3,0-0.5,0-0.8
		c0.3-0.1,0.6-0.2,0.8-0.4c0.1,0,0.1-0.3,0.1-0.3c-1.9-0.9-3.9-0.4-5.9-0.2c0,0,0,0,0,0c-1,0.3-2.1,0.6-3.1,0.9
		c-4.3-3.3-7.2,1.3-10.8,1.9C481,45.7,481.2,46.1,481.5,46.5z"/>
	<path class="st1" d="M813.2,194.3c-3.3-1.1-6.1-2.7-9.2,0.1c-0.1,0.1-1-0.6-1.6-0.9c-0.7-2.4-1.7-4.6-3.2-6.6
		c-1.3-1.8-2.7-0.7-4-0.7c-1.7,0-0.8,1.9-1.1,2.8c-0.6,2,1.3,1.2,2.3,1.6c1.6,0.6,3.7,0.6,4.2,2.9c-1.6,1.1-4.1,1.6-0.7,4
		c1.2,0.9,5.5,2.7,1.5,5.8c-0.4,0.3,0.6,1.6,1.4,1.6c3.5,0.2,5.6,2.7,7.8,4.8c4.3,3.9,8.5,1.4,12.8,0.4c1.3-0.3,1.8-1.8,1.7-3.2
		C824.6,202.8,817.2,195.6,813.2,194.3z"/>
	<path class="st1" d="M498.6,60.4c0,0-0.1,0.1-0.1,0.1c0,0,0,0,0,0c0,0,0,0,0.1,0c0,0,0,0,0,0C498.6,60.5,498.6,60.5,498.6,60.4z"/>
	<path class="st1" d="M508.2,54.7c0-0.2,1.7-0.4,2.3,0c8.2,4.4,12.6-3.6,19-5.5c-6.9-0.1-11.8-7.1-20.4-2.5
		c-6.6,3.6-8.8,7.8-10.4,13.8C501.7,58.4,507.1,60.1,508.2,54.7z"/>
	<path class="st1" d="M859.1,303.4c-1.2,2.6,0.6,4.4,2,6c1.3,1.6,2.6-0.4,3.9-0.7c4.1-0.9,3.8-3.8,3.4-6.9c-0.3-2.3-1.6-4.4-1.4-5.9
		c1-4-0.4-6.4-2.3-8.5c-0.9-1-2.2-2.3-3.9-1.6c-1.7,0.7-1.4,1.9-0.6,3.3c0.2,0.4,0.3,1-0.4,1.2c-6.4,1.2-2,4.5-1,6.6
		C860,299.2,860.2,301.1,859.1,303.4z"/>
	<path class="st1" d="M477.7,86.1c-0.2-3-0.6-6.1-3.1-8.2c-1.2-1-1.7-5.3-4.3-2.3c-3.1,3.5-6.9,4.5-11.3,5.4
		c3.2,1.6,5.9,3.5,8.7,5.4C471,88.8,474.4,86.4,477.7,86.1z"/>
	<path class="st1" d="M495.7,30.7c2.4,0.4,4.4,0.8,6.2,1.1c-0.8,1.9-4.3-0.6-3.9,2.3c0.3,2.4,3,1.3,4.5,1.9c3.7,1.4,5.9-2.1,8.9-3.1
		c2.1-0.7,5.7-1.5,5.7-4.1c0-3-3.9-0.1-5.3-2.1c-0.1-0.1-0.3-0.2-0.4-0.3c-1.2-1.5-3.1-1.2-4.6-1.5c-2.5-0.5-3,0.7-1.3,2.6
		c0.6,0.5,1,1.2,0.5,1.7c-1,1-1.8,0.3-2.4-0.6c-1.7-2.6-3.7-2.4-4.8,0.2C498.3,30.3,496.7,29.3,495.7,30.7z"/>
	<path class="st1" d="M427.4,21.3c0.5,1.4,2.3,0.9,3,2.1c-0.1,0.1-0.2,0.3-0.2,0.4c0,0.1,0.2,0.4,0.2,0.4c1.6-0.3,3.2-0.6,4.8-0.8
		c0,0,0,0,0,0c1.1-0.6,3.4-0.3,2.3-2.7c2.2-1.9,4-1.2,6.9-0.6c3.1,0.7,8.1-0.2,11.1-3.4c1.4-0.3,3,0.3,4.3-0.9
		c-1.6-0.8-3-0.3-4.4-0.1c-11.1-1.3-21.4,3.1-32.9,3.9C424.5,21.7,426,21.2,427.4,21.3z"/>
	<path class="st1" d="M563,110.6c0.3,3.1,3.1,2.2,4.9,2.9c3.6-0.4,6.6-1.6,6.9-5.7c0.2-2.6-2.2-3.1-4.1-3.2
		C567.8,104.4,562.8,108.4,563,110.6z"/>
	<path class="st1" d="M469,543.9c7.9,5,7.9,5,16,2.9C480.7,541.2,475.2,542.2,469,543.9z"/>
	<path class="st1" d="M553.3,26.4c4,0.6,8.1,1.9,12.2,0.9c1.3,0.1,2.7,0.2,4,0.3v0c0,0.3-0.1,0.5-0.1,0.8c-2.2,0.4-3.5,2.6-6.1,2.3
		c-1.3-0.1-0.8,1.3,0,2.1c-0.8,1-2,0.5-2.9,0.9c0,0,0,0,0,0c0,0,0,0,0,0c-3.5-0.2-7.2-1.2-11.5,1.7c6.3,0.9,11.1,4.4,16.3,4.5
		c5.6,0.1,11.1,0.9,15.4,3.6c4.8,3,8.9,0.6,13.6,1.4c-0.8-2.1-2.3-1.6-3.2-2.3c-0.8-0.6-0.7-2,0.1-1.8c3.7,0.8,6.7-2.7,10.3-1.2
		c3.4,1.4,6.6,0.2,9.9-1.1c-2-1.4-4-2.3-6.1-3.1c-9.2-3.8-18.9-5.7-28.7-7c-0.8-2.6-3.2-2.3-5.2-2.8c-0.1,0.1-0.1,0.2-0.2,0.2
		c0.1-0.1,0.1-0.1,0.2-0.2c-2-0.3-3.9-0.6-5.9-0.9c-3.9-0.8-7.8-1.6-11.7-2.2c-1.1-0.2-2.7-1.5-3.3,0.6
		C549.9,25.3,551.7,26.1,553.3,26.4z"/>
	<path class="st1" d="M612,288.1c-4.8-6.1-7.8-7.7-15.1-8.2C602.9,286.8,606.6,288.8,612,288.1z"/>
	<path class="st1" d="M614.8,318.6c1.5,1.9,2.5-0.3,3.7-0.6c1.2-0.3,2.6-2.6,1.9-2.7c-5.4-0.4-1.8-5-3.3-7.2
		c-7.6,7.7-7.6,7.7-5.1,11.1C613.3,316.5,613.2,316.5,614.8,318.6z"/>
	<path class="st1" d="M468,41.8c0-3-4.6-0.4-6.5-2.2c-1.6,0.5-4.1,0.2-3.8,2.3c0.2,1.4,0,4.9,2.9,4.1C463.3,45.1,468,45,468,41.8z"
		/>
	<path class="st1" d="M520.5,35.5c-2.6,0.3-5.1,1.2-8.2,1.9c2.6,2.5,5.1,2.9,7.4,3.9c2.6,1,4-0.8,4.3-2.7
		C524.3,36.5,522.5,35.2,520.5,35.5z"/>
	<path class="st1" d="M528.7,18.1c-4.6-0.6-9.1-1.2-13.5-1.8C519.1,20.8,523.2,24.9,528.7,18.1z"/>
	<path class="st1" d="M521.1,147.8c-3.4,0.5-7.1-1.8-10.2,1.4c-0.8,0.9-1.8,1.4-1.4,2.8c0.5,1.9,1.9,1,2.8,0.9
		C515.9,152.6,518.7,150.8,521.1,147.8z"/>
	<path class="st1" d="M554.2,542.3c-2.2,0-5.5-0.7-5.5,2.5c0,3.6,3.5,0.6,4.5,1.4c3.1,0.4,6.6,0.7,6.5-2.4
		C559.7,541.1,556.2,542.4,554.2,542.3z"/>
	<path class="st1" d="M535.1,23.6c0,1.7-2.4,0.1-2.5,1.8c1,0.9,2.2,1.3,3.5,1.3c1.7,1.1,3.5,1.1,6.6,0.5c-2.3-0.8-3.3-1.1-4.4-1.4
		c-0.5-0.3-0.9-0.6-1.4-0.9c0.5-0.2,0.9-0.3,1.4-0.5c0,0,0,0,0,0c0,0,0,0,0,0c1.3,0.5,2.5-0.1,2.8-1.3c0.3-1.1-1-1.4-1.8-1.9
		c-1.2-0.6-2.3-1.3-3.5-1.6c-1.9-0.4-4.1-0.1-4.4,1.9C530.9,24.4,533.6,23.4,535.1,23.6z"/>
	<path class="st1" d="M483.3,16.3c0.8,0.1,1.6,0.4,2.4-0.4c-1.9-1.7-4-1.6-6.3-1.3c0.1,0.1,0.2,0.1,0.3,0.2
		c-0.1-0.1-0.2-0.1-0.3-0.2c-2.8,0.1-5.9-0.7-8.9,1.7C475.2,18.4,479.2,18.4,483.3,16.3z"/>
	<path class="st1" d="M135.4,192.2c4-1.2,6.8-3.8,8.9-7.3C139.8,185.3,137.1,188.2,135.4,192.2z"/>
	<path class="st1" d="M529.5,160.2c1.9-1.1,3.3-3,4-4.9c0-1.7-0.9-2-1.9-1.9c-2.7,0.4-3.9,2.2-4.1,4.7
		C527.4,159.3,528.6,160.8,529.5,160.2z"/>
	<path class="st1" d="M603.2,314.8c0.5,0.4,1.8-2.2,1.9-3.7c-3-0.6-5.8-1.1-8.5-1.7c-0.2-0.3-0.4-0.6-0.6-0.7
		c-1.1-0.8,0.7-2.9-1.4-3.1c-0.5,0-1.4,0.7-1.5,1.1c-0.3,1.6,1.2,2.1,2.3,2.8c0,0,0,0,0,0C596.6,313.1,600.6,313,603.2,314.8z"/>
	<path class="st1" d="M588,602.8c1.9-1.1,1.5-2.9,1.3-4.4c-0.1-1.3-1.5-0.9-2.4-0.8c-2.1,0.1-2.1,1.3-1.6,3c0.2,0.7-0.8,1.8-1.3,2.7
		C585.6,603.7,586.8,603.5,588,602.8z"/>
	<path class="st1" d="M491.7,242.3c2.7,1.4,5.1,1.3,7.6,1.3C497.2,238.7,495.6,238.5,491.7,242.3z"/>
	<path class="st1" d="M912.5,393.6c-0.3,0-0.9,0.7-0.9,0.8c1.7,3.3-0.4,7.5,2.6,11.1c1.5-4.1-0.8-7.3-0.5-10.6
		C913.8,394.2,913.3,393.5,912.5,393.6z"/>
	<path class="st1" d="M541.8,145.9c0.6,1.5,1.6,2.8,3.2,3.4c1.1-0.2,2-0.7,1.9-1.9c-0.2-2-2.1-2.2-3.6-2.7
		C542.5,144.4,541.5,145.1,541.8,145.9z"/>
	<path class="st1" d="M512.6,213.9c-0.2,0.8,1,1.4,1.8,1.3c2.2-0.2,3.1-2.1,4.7-3.5c-0.6-0.5-1.3-1.3-1.5-1.2
		C515.8,211.4,513.3,211.5,512.6,213.9z"/>
	<path class="st1" d="M513.4,898.4c1.6-0.1,2.1-1.3,2.1-3.5c-0.1-0.3-0.3-1.3-1.6-1.2c-1.6,0.1-2.4,1-2,2.7
		C512.1,897.1,512,898.5,513.4,898.4z"/>
	<path class="st1" d="M475.9,490.5c-1.2,1.5-2.6,2.7-1,4.6c0.4,0.4,2,0.6,2.1,0.4C478.1,493.7,477.2,492.2,475.9,490.5z"/>
	<path class="st1" d="M582.6,111.2c-1.8-2-3.2-3.4-5.9-2.1C578.2,111,579.7,111.9,582.6,111.2z"/>
	<path class="st1" d="M556.3,97.2c3.2,1.8,4.5,0.4,6.8-1.3C560.1,95,558.6,96.1,556.3,97.2z"/>
	<path class="st1" d="M156.5,172.4c2.7-1.4,4.8-2.4,5.9-4.8C159.7,167.9,157.5,169,156.5,172.4z"/>
	<path class="st1" d="M198.3,227.3c-3,1.7-0.5,4-0.6,6.1c0.3,0.5,0.4,1.4,0.8,1.6c1.4,0.6,0.9-0.5,0.9-1.2c0-1.4-0.1-2.8-0.2-4.2
		c-0.1,0.3-0.2,0.5-0.3,0.8c0-0.3,0.1-0.6,0.3-0.8c0.1-0.3,0.2-0.6,0.2-1c1.9-0.8,2.1-2.3,1.8-4c0,0,0,0,0,0c0,0,0,0,0,0
		c1.3-2.2,2.6-4.4,3.8-6.6c-1.4-0.5-2.4-1.1-3.5-1.2c-3.2-0.3-3.2,2.5-3.3,4.3c-0.1,1.5-2.2,4.9,2.2,4.5
		C199.8,226.1,199,226.7,198.3,227.3C198.3,227.3,198.3,227.3,198.3,227.3z"/>
	<path class="st1" d="M438.9,515.9c-1.2-0.3-1.1,0.8-1.1,1.6c-0.1,0.8-0.1,1.7,1.1,1.8c0.7-0.3,1.7-0.6,1.4-1.6
		C440.2,517,439.6,516.1,438.9,515.9z"/>
	<path class="st1" d="M566.1,888.5c-0.9,0.3-1.9,0.7-2.3,1.5c-0.3,0.5,0.7,1.3,1.7,1.3c0.8-0.3,1.9-0.4,1.9-1.7
		C567.4,888.7,566.7,888.3,566.1,888.5z"/>
	<path class="st1" d="M492.5,27.4c1.8,0.5,3.3,0,3.9-2c-1.4-2.5-2.8-2.4-4,0.2l0,0C491.6,26.2,491.4,27,492.5,27.4z"/>
	<path class="st1" d="M591.2,572c0.4-1.3,0.8-2.5-0.8-3.3c-0.6-0.3-1.5-0.2-1.6,0.5C588.8,570.5,589.4,571.7,591.2,572z"/>
	<path class="st1" d="M478.1,501.8c0.8-0.1,1.2-0.9,1.4-1.9c-0.2-0.4-0.1-1.3-1-1.1c-0.8,0.1-1.5,0.6-1.6,1.5
		C476.6,501.2,477.3,501.9,478.1,501.8z"/>
	<path class="st1" d="M514.7,100.1c0.1,0.7,1.1,0.7,1.6,0.2c1.2-1.1,1.7-2.3,0.3-3.7C515,97.3,514.6,98.7,514.7,100.1z"/>
	<path class="st1" d="M472,476.9c-1.6,0.5-0.2,1.3,0.5,1.8c1.8,2,2.4-0.1,3.4-1.1c0,0,0,0,0,0c0.7-0.1,1.4-0.2,2.1-0.3
		C475.9,476.7,473.8,476.3,472,476.9z"/>
	<path class="st1" d="M593.3,180c-0.9,0.1-1.6,0.5-1.8,1.4c-0.2,0.7,0.2,1.2,1.1,1.2c0.9,0,1.5-0.4,1.8-1.3
		C594.3,180.6,594.2,179.9,593.3,180z"/>
	<path class="st1" d="M509,522.1c-1.9-0.8-3.1-0.8-4.5,0.4C506.1,523.6,507.3,523.6,509,522.1z"/>
	<path class="st1" d="M609.5,173.8c0.9,1.3,1.6,2.5,3.1,2.1c0.3-0.1,0.7-0.9,0.5-1.1C612.5,173.6,611.3,173.1,609.5,173.8z"/>
	<path class="st1" d="M549.5,144.6c1,1.6,1.7,3,3.7,2.6C552.7,145.4,552,144.3,549.5,144.6z"/>
	<path class="st1" d="M515.3,20.9c-0.7-0.6-1.1-1.1-1.5-1.2c-0.7-0.2-2-0.6-1.7,0.6C512.4,21.6,513.7,21.7,515.3,20.9z"/>
	<path class="st1" d="M126.8,170.8c-1.7-0.1-2.2,1-3,2.8C125.8,173,126.8,172.4,126.8,170.8z"/>
	<path class="st1" d="M146.3,181.6c2.4-0.6,3.4-1.3,3.8-3C147.9,178.5,147.6,180,146.3,181.6z"/>
	<path class="st1" d="M215.5,227.6c-0.1-0.5-0.2-1.4-1.1-1c-0.5,0.2-0.9,0.8-1.1,1.3c-0.2,0.6,0.1,1.3,0.9,1.4
		C215.2,229.3,215.5,228.5,215.5,227.6z"/>
	<path class="st1" d="M93.5,223.6c2.3-0.4,3.2-1.1,3.9-3.1C95.2,220.8,94.5,221.8,93.5,223.6z"/>
	<path class="st1" d="M911.7,383.9c-0.7,1.8-0.6,2.9,0.3,4.1C912.8,386.6,912.8,385.4,911.7,383.9z"/>
	<path class="st1" d="M570.5,97.8c0.3-0.2,0.8-0.8,0.7-0.9c-0.3-0.6-0.8-1-1.5-0.6c-0.3,0.2-0.6,0.6-0.8,0.9
		C569.4,97.7,569.7,98.4,570.5,97.8z"/>
	<path class="st1" d="M206.6,255.6c0-0.1,0-0.3,0-0.4C206.5,255.3,206.5,255.5,206.6,255.6z"/>
	<path class="st1" d="M207,254.8c-0.1,0.3-0.2,0.6-0.4,0.8c1.8,2.3,3.4,4.8,5,7c2.7,3.5,3.5,8.6,8.1,10.6c2.4,1.1,3.6,1.5,3.9-2.1
		c0.5-5.8-4.6-9.8-4.5-15.3c0-0.3-0.7-0.8-1.1-0.9c-3.2-0.6-5.5-2.9-8.1-4.6c-2.1-1.4-3.5-1.2-3.1,1.9c1.3,0.1,1.6,0.3,1.5,0.6
		c-0.3-0.2-0.8-0.4-1.5-0.6c0,1-0.1,2-0.1,3C206.7,255.1,206.8,254.9,207,254.8z"/>
	<path class="st1" d="M496.3,506.5c0.1-1.1-0.4-1.8-1.4-2.3c-0.8,1.1-0.3,1.8,0.6,2.4C495.7,506.8,496.3,506.6,496.3,506.5z"/>
	<path class="st1" d="M546.5,34.5C546.5,34.5,546.5,34.5,546.5,34.5L546.5,34.5C546.5,34.5,546.5,34.5,546.5,34.5
		C546.5,34.5,546.5,34.5,546.5,34.5L546.5,34.5C546.5,34.5,546.5,34.5,546.5,34.5C546.5,34.5,546.5,34.5,546.5,34.5
		C546.6,34.5,546.5,34.5,546.5,34.5z"/>
	<path class="st1" d="M548.3,33.6c0-0.7-0.7-1.2-1.4-1c-1.2,0.4-0.5,1.2-0.4,1.9C547.3,34.4,548.3,34.8,548.3,33.6z"/>
	<path class="st1" d="M482.8,32.5c0.3,0,0.7-0.2,1.4-0.5c-0.8-0.5-1.4-0.9-1.9-1.1c-0.8-0.2-1.3,0.3-1.1,1
		C481.3,32.3,482.2,32.4,482.8,32.5z"/>
	<path class="st1" d="M517.7,118.6c-0.4-0.3-0.7-0.6-1-0.9c-0.2,0.3-0.7,0.7-0.6,1c0.1,0.4,0.6,0.7,0.9,1
		C517.1,119.4,517.3,119.1,517.7,118.6z"/>
	<path class="st1" d="M551.8,29.9c-0.5-1.1-1.9-0.9-3.3,0.1c0.9,0.5,1.3,0.8,1.7,0.9C551,31.1,552.3,30.9,551.8,29.9z"/>
	<path class="st1" d="M577.1,103.3c-0.7-0.1-1.3,0.3-1.3,1.1c0,0.4,0.5,0.9,0.8,1c0.6,0.3,0.8-0.3,0.9-1
		C577.4,104.2,577.3,103.4,577.1,103.3z"/>
	<path class="st1" d="M484.1,479.7c-1.6,0.7-1.9,1.8-1.1,3.4C483.6,482,485,481.3,484.1,479.7z"/>
</g>
</svg>
